<?xml version="1.0" encoding="utf-8"?>
<!-- Generator: Adobe Illustrator 19.0.0, SVG Export Plug-In . SVG Version: 6.00 Build 0)  -->
<svg version="1.1" id="Layer_1" xmlns="http://www.w3.org/2000/svg" xmlns:xlink="http://www.w3.org/1999/xlink" x="0px" y="0px"
	 viewBox="-927 501 40 40" style="enable-background:new -927 501 40 40;" xml:space="preserve">
<g>
	<path d="M-895.9,530.6l8.7-8.7v-1.5h-7.4c0.2-0.4,0.4-0.8,0.4-1.3c0-1.2-0.8-2.2-1.9-2.5c0-1.6,0.6-3,1.7-4.1l-0.9-0.9
		c-1.3,1.3-2.1,3.1-2.1,5c-1.1,0.3-1.9,1.3-1.9,2.5c0,0.5,0.1,0.9,0.4,1.3h-6.7c-0.5-2.3-0.7-4.7-0.7-7v-1.9h-6.1l1.3-7.4
		c0.2-0.9,1-1.6,1.9-1.6h2.3v-1.3h-2.3c-1.6,0-2.9,1.1-3.1,2.6l-1.3,7.6h-1.5c-0.3-2.9-2.8-5.1-5.7-5.1c-3.2,0-5.7,2.6-5.7,5.7
		c0,2.9,2.1,5.2,4.8,5.7c-0.2,1.4-0.4,2.9-0.8,4.3c-0.1,0.5-0.2,1.1-0.2,1.7c0,3.4,2.5,6.2,5.7,6.8v2.7h1.3v3.8h-1.9
		c-1.8,0-3.2,1.4-3.2,3.2v0.6h14v-0.6c0-1.8-1.4-3.2-3.2-3.2h-1.9v-3.8h1.3v-2.7c3.3-0.5,5.7-3.4,5.7-6.8c0-0.2,0-0.4,0-0.5l7.4,7.4
		h0.3v8.9h-6.4v1.3h14v-1.3h-6.4v-8.9H-895.9z M-925.5,512.1c0-0.6,0.1-1.1,0.3-1.7l2.9,1.7l-2.9,1.7
		C-925.4,513.2-925.5,512.6-925.5,512.1z M-920.4,513.3v-0.6h6.4l-0.3,1.9h-6.1C-920.4,514.2-920.4,513.7-920.4,513.3z
		 M-918.7,511.4l1.8-1c0.1,0.3,0.2,0.7,0.3,1H-918.7z M-917.5,509.3l-2.9,1.7v-3.3C-919.3,507.8-918.2,508.4-917.5,509.3z
		 M-921.7,507.6v3.3l-2.9-1.7C-923.9,508.4-922.8,507.8-921.7,507.6z M-924.6,514.8l2.9-1.7v0.1c0,1.1-0.1,2.1-0.2,3.1
		C-922.9,516.3-923.9,515.7-924.6,514.8z M-908.4,539.5h-11.3c0.3-0.7,1-1.3,1.8-1.3h7.7C-909.4,538.2-908.7,538.8-908.4,539.5z
		 M-913.4,537h-1.3v-3.8h1.3V537z M-915.9,531.9v-1.3h3.8v1.3H-915.9z M-912,529.3h-4.1c-3.1,0-5.6-2.5-5.6-5.6
		c0-0.5,0.1-0.9,0.2-1.4c0.5-2.1,0.9-4.3,1-6.4h5.9l-2,11.4l1.3,0.2l2-11.6h3.1v-1.3h-2.9l0.3-1.9h5.1v0.6c0,0.4,0,0.9,0,1.3h-1.3
		v1.3h1.4c0.2,2.2,0.5,4.3,1,6.4c0.1,0.4,0.2,0.9,0.2,1.4C-906.4,526.8-908.9,529.3-912,529.3z M-898.1,519.1c0-0.5,0.3-0.9,0.6-1.1
		v0.5h1.3V518c0.4,0.2,0.6,0.6,0.6,1.1c0,0.7-0.6,1.3-1.3,1.3C-897.5,520.4-898.1,519.8-898.1,519.1z M-888.8,521.6l-2.5,2.5
		c-1,0-2.4-0.3-3.8-0.6c-1.5-0.3-3.1-0.7-4.3-0.7c-1.6,0-3,0.3-3.7,0.5l-1.8-1.8H-888.8z M-902,524.5c0.7-0.2,1.6-0.3,2.6-0.3
		c1,0,2.5,0.3,4,0.6c1,0.2,2,0.4,2.9,0.5l-3.9,3.9h-0.7L-902,524.5z"/>
	<rect x="-908.9" y="522.9" width="1.3" height="1.3"/>
	<rect x="-912.1" y="518.4" width="1.3" height="1.3"/>
	<rect x="-913.4" y="526.1" width="1.3" height="1.3"/>
	<rect x="-920.4" y="523.6" width="1.3" height="1.3"/>
	<rect x="-918.5" y="517.8" width="1.3" height="1.3"/>
</g>
</svg>
