<?xml version="1.0" encoding="utf-8"?>
<!-- Generator: Adobe Illustrator 19.0.0, SVG Export Plug-In . SVG Version: 6.00 Build 0)  -->
<svg version="1.1" id="Layer_1" xmlns="http://www.w3.org/2000/svg" xmlns:xlink="http://www.w3.org/1999/xlink" x="0px" y="0px"
	 viewBox="-909 478 40 40" style="enable-background:new -909 478 40 40;" xml:space="preserve">
<g>
	<path d="M-869.3,502c0-1.9-0.5-3.2-1.5-4.1c-0.8-0.7-1.9-0.9-2.7-0.8v-0.2c0-0.1,0-0.2,0-0.2l0,0v-0.1c0,0,0,0,0-0.1
		c0-0.2,0-0.3,0-0.4c-0.2-1.1-1.1-1.9-2.3-2.2c-0.3-0.1-0.7-0.1-1.1-0.1c-1.4,0-3.2,0.5-4.7,1v-5.1c0-0.5,0-1.5-0.2-2l-0.1-0.5
		c0.5-1,0.5-2.1-0.2-3c-0.1-0.1-0.2-0.2-0.3-0.3c-0.1-0.2-0.3-0.3-0.5-0.5c0,0-0.1-0.1-0.2-0.1c0,0,0-0.1-0.1-0.1
		c-7.5-5.8-17.1-4.8-18.9-4c-0.3,0.1-0.5,0.2-0.8,0.3c-1.1,0.4-2.2,0.9-3,1.8c-2.6,3.1-1.3,6.6-0.9,7.3c-0.3,0.8-1.4,4.4-0.2,9.2
		c0.3,0.9,0.8,1.6,1.5,1.9l10.6,4.6c0.2,0.1,0.4,0.1,0.5,0.1l0.7,1.3c0.3,0.4,0.8,0.6,1.2,0.4c0.3-0.2,0.9-0.4,1.6-0.7
		c0,0.1,0,0.2,0,0.3l0,1.4c0,0.5,0.4,1,0.9,1.1l10.4,1.2c0.3,0.2,1.9,0.9,3.7,0.9c0.5,0,1.1-0.1,1.6-0.2c3-1,4.8-3.9,4.6-7.7
		C-869.3,502.3-869.3,502.1-869.3,502z M-881.9,495.5c1.5-0.5,3.5-1.1,4.9-1.1c0.3,0,0.6,0,0.9,0.1c1,0.3,1.6,0.9,1.8,1.7
		c0,0.1,0,0.2,0,0.3c0,0,0,0,0,0c-0.5,1.9-4.4,3.1-7.8,3.1c-2.6,0-5.7,0.7-9.6,2.1L-881.9,495.5z M-883,484.1L-883,484.1
		c0.1,0.1,0.2,0.2,0.2,0.3c0.5,0.8,0.5,1.6,0.1,2.5c0,0.1,0,0.2,0,0.3l0.2,0.6c0.1,0.4,0.2,1.4,0.2,1.9v5.4l-11.2,7.4v-10
		c0,0,0-0.1,0-0.2c0,0-0.8-3.3,0.8-6c0.8-1.4,2.8-2.6,4.9-3c0.6-0.1,1.2-0.2,1.9-0.2c1.1,0,2.1,0.2,2.7,0.6
		C-883.3,483.9-883.1,484-883,484.1z M-905.1,499c-0.7-0.3-1-1-1.1-1.5c-1.1-4.2-0.2-7.6,0.1-8.5l10.7,3.4c0.2,0,0.4,0,0.4-0.2
		c0-0.2,0-0.4-0.2-0.4l-10.9-3.6c-0.3-0.6-1.6-3.7,0.8-6.6c0.7-0.8,1.6-1.2,2.7-1.6c0.3-0.1,0.5-0.2,0.8-0.3
		c1.9-0.8,10-1.4,16.7,2.8c-0.9-0.1-2,0-3,0.1c-2.3,0.4-4.5,1.7-5.5,3.3c-1.7,2.9-0.9,6.4-0.9,6.5V503c-0.1,0.2-0.2,0.4-0.1,0.6
		c0,0,0,0,0,0L-905.1,499z M-892.6,505.4c-0.1,0-0.3,0-0.3-0.1l-0.9-1.6c0,0,0,0,0,0c0,0,0-0.1,0-0.2c0,0,0.1,0,0.1,0
		c4.9-2,8.7-3,11.7-3s6.3-0.8,7.7-2.4l0,1.1c0,0.1,0,0.3-0.1,0.3c-1.4,2.4-5.7,2.7-8.6,3c-0.5,0-0.9,0.1-1.3,0.1
		c-0.4,0-2.1,0.5-4.5,1.4l-0.4,0.1l0,0l0,0l0,0C-890.7,504.6-892,505.1-892.6,505.4z M-874.2,509.4c-2.4,0.7-4.9-0.7-4.9-0.7
		c0,0-0.1,0-0.1,0l-10.5-1.2c-0.2,0-0.3-0.2-0.3-0.4l0-1.4v0l11.3,1.1c0,0,1.7,0.8,3.1,0.8c1.6,0,4.1-0.5,5.4-2.2
		C-870.9,507.4-872.2,508.8-874.2,509.4z M-870.1,502.4L-870.1,502.4L-870.1,502.4L-870.1,502.4L-870.1,502.4c0,3.5-3.6,4.4-5.7,4.4
		c-1.2,0-2.8-0.7-2.8-0.7c-0.1,0-0.1,0-0.2,0l-10.6-1.1l0.3-0.3l0.3-0.1c1.1-0.3,4-1.3,4.4-1.3c0.4,0,0.8-0.1,1.2-0.1
		c2.8-0.2,7-0.5,8.8-2.7c0,0,0.1-0.1,0.1-0.1l0-0.1c0,0,0,0,0-0.1c0-0.1,0.1-0.2,0.2-0.3c0.1-0.2,0.2-0.4,0.2-0.7l0.1-1.4
		c0.7,0,1.6,0.1,2.3,0.7c0.9,0.7,1.3,1.9,1.3,3.5C-870,502.1-870,502.2-870.1,502.4z"/>
	<circle cx="-888.3" cy="488.5" r="0.5"/>
	<circle cx="-890.4" cy="491" r="0.4"/>
	<circle cx="-885.7" cy="490.2" r="0.5"/>
	<circle cx="-886" cy="486.1" r="0.4"/>
	<circle cx="-877.8" cy="503.5" r="0.5"/>
	<circle cx="-880.9" cy="498.1" r="0.5"/>
	<circle cx="-875.2" cy="505.1" r="0.5"/>
	<circle cx="-874.5" cy="502.1" r="0.4"/>
	<circle cx="-878.3" cy="496.6" r="0.4"/>
</g>
<g>
	<path d="M-897.5,506.6c-0.5,0-0.9,0-1.3,0.1c-1-2.5-2.8-5-4.7-5c-3,0-5.5,4.9-5.5,8.9c0,4,2.3,6.9,5.5,6.9c0.9,0,1.7-0.2,2.5-0.7
		c1,0.5,2.3,0.7,3.5,0.7c4.1,0,8.9-3,8.9-5.5C-888.6,509-893.3,506.6-897.5,506.6z M-903.5,516.7c-2.6,0-4.6-2.6-4.6-6.1
		c0-3.6,2.1-8,4.6-8c1.2,0,2.9,1.9,3.8,4.3c-2.6,0.6-4.8,2.5-4.8,5.2c0,1.8,1,3.3,2.5,4.3C-902.4,516.6-902.9,516.7-903.5,516.7z
		 M-897.5,516.7c-3.8,0-6.1-2.3-6.1-4.6c0-2.9,3.1-4.6,6.1-4.6c3.6,0,8,2.1,8,4.6C-889.4,513.9-893.7,516.7-897.5,516.7z"/>
	<path d="M-905.4,504.7c-0.1,0.1-1.8,2.5-1.6,5.4c0,0.2,0.2,0.4,0.4,0.4c0,0,0,0,0,0c0.2,0,0.4-0.2,0.4-0.4
		c-0.2-2.6,1.4-4.8,1.4-4.8c0.1-0.2,0.1-0.5-0.1-0.6C-905,504.5-905.2,504.5-905.4,504.7z"/>
	<path d="M-894.4,514.3c-3.1,1.5-5.3,0.1-5.4,0c-0.2-0.1-0.5-0.1-0.6,0.1c-0.1,0.2-0.1,0.5,0.1,0.6c0.1,0,1.2,0.8,3,0.8
		c0.9,0,2-0.2,3.2-0.8c0.2-0.1,0.3-0.4,0.2-0.6S-894.2,514.2-894.4,514.3z"/>
</g>
</svg>
