<?xml version="1.0" encoding="utf-8"?>
<!-- Generator: Adobe Illustrator 19.0.0, SVG Export Plug-In . SVG Version: 6.00 Build 0)  -->
<svg version="1.1" id="Layer_1" xmlns="http://www.w3.org/2000/svg" xmlns:xlink="http://www.w3.org/1999/xlink" x="0px" y="0px"
	 viewBox="-909 478 40 40" style="enable-background:new -909 478 40 40;" xml:space="preserve">
<g>
	<g>
		<polygon points="-908.6,503.2 -908.6,492.6 -907.8,492.5 -907.8,502.3 -886.9,501.1 -886.9,490.4 -886.1,490.3 -886.1,501.9 		"/>
	</g>
	<g>
		<path d="M-901.1,500.4c-0.9,0-1.7-0.7-1.7-1.7c0-0.9,0.7-1.7,1.7-1.7c0.9,0,1.7,0.7,1.7,1.7C-899.5,499.7-900.2,500.4-901.1,500.4
			z M-901.1,497.9c-0.5,0-0.9,0.4-0.9,0.9c0,0.5,0.4,0.9,0.9,0.9c0.5,0,0.9-0.4,0.9-0.9C-900.3,498.3-900.7,497.9-901.1,497.9z"/>
	</g>
	<g>
		<path d="M-897.8,496.7c-0.9,0-1.7-0.7-1.7-1.7c0-0.9,0.7-1.7,1.7-1.7c0.9,0,1.7,0.7,1.7,1.7C-896.1,496-896.9,496.7-897.8,496.7z
			 M-897.8,494.2c-0.5,0-0.9,0.4-0.9,0.9c0,0.5,0.4,0.9,0.9,0.9c0.5,0,0.9-0.4,0.9-0.9C-896.9,494.6-897.3,494.2-897.8,494.2z"/>
	</g>
	<g>
		<path d="M-891,496.4c-0.9,0-1.7-0.7-1.7-1.7c0-0.9,0.7-1.7,1.7-1.7c0.9,0,1.7,0.7,1.7,1.7C-889.4,495.6-890.1,496.4-891,496.4z
			 M-891,493.9c-0.5,0-0.9,0.4-0.9,0.9c0,0.5,0.4,0.9,0.9,0.9c0.5,0,0.9-0.4,0.9-0.9C-890.2,494.3-890.6,493.9-891,493.9z"/>
	</g>
	<g>
		<path d="M-907.5,498.7c-0.3,0-0.5,0-0.8-0.1l-0.3-0.1v-4.4l0.3-0.1c1.7-0.6,3.3,0.7,3.3,2.3C-905,497.6-906.1,498.7-907.5,498.7z
			 M-907.8,497.9c1,0.2,1.9-0.6,1.9-1.6c0-1-0.9-1.8-1.9-1.6V497.9z"/>
	</g>
	<g>
		<path d="M-902.9,495.5c-0.7,0-1.2-0.5-1.2-1.2s0.5-1.2,1.2-1.2c0.7,0,1.2,0.5,1.2,1.2S-902.2,495.5-902.9,495.5z M-902.9,493.9
			c-0.2,0-0.4,0.2-0.4,0.4s0.2,0.4,0.4,0.4s0.4-0.2,0.4-0.4S-902.7,493.9-902.9,493.9z"/>
	</g>
	<g>
		<path d="M-896,502.4l-0.1-0.2c-0.2-0.4-0.3-0.8-0.3-1.2c0-1.6,1.3-3,3-3s3,1.3,3,3c0,0.3-0.1,0.6-0.2,0.9l-0.1,0.3L-896,502.4z
			 M-893.4,498.8c-1.2,0-2.1,1-2.1,2.1c0,0.2,0,0.4,0.1,0.7l4.1-0.2c0-0.1,0-0.3,0-0.4C-891.3,499.8-892.3,498.8-893.4,498.8z"/>
	</g>
	<g>
		<path d="M-895,489.8c-0.8,0-1.4-0.5-1.4-1.1s0.6-1.1,1.4-1.1c0.8,0,1.4,0.5,1.4,1.1C-893.6,489.3-894.2,489.8-895,489.8z
			 M-895,488.5c-0.4,0-0.6,0.2-0.6,0.2s0.2,0.2,0.6,0.2c0.4,0,0.6-0.2,0.6-0.2C-894.4,488.7-894.6,488.5-895,488.5z"/>
	</g>
	<g>
		<path d="M-908,493.1l-0.6-0.5l7.4-4.7l0.2,0.2c0.3,0.2,0.7,0.3,1.1,0.3c0.8,0,1.5-0.4,1.5-0.9c0-0.2-0.1-0.4-0.3-0.5l-0.4-0.4
			l5.6-3.5l3.4,3.4l-0.5,0.2c-0.4,0.2-0.7,0.5-0.7,0.7c0,0.6,1.3,1.2,2.9,0.9l0.2,0l2.1,2.1l-0.4,0.5L-908,493.1z M-901.2,488.8
			l-5.2,3.3l19-2l-1-1c-1.9,0.3-3.6-0.6-3.6-1.7c0-0.4,0.2-0.8,0.7-1.2l-2.2-2.1l-4.2,2.6c0.1,0.2,0.2,0.5,0.2,0.7
			c0,1-1,1.8-2.3,1.8C-900.4,489.1-900.8,489-901.2,488.8z"/>
	</g>
	<g>
		<path d="M-905.7,488.7c0,0-1.2-0.9-1.1-2c0-0.6,0.4-1.2,1.2-1.6c0.5-0.3,0.8-0.6,0.8-1c0-0.6-0.6-1.2-0.8-1.4l0.5-0.6
			c0,0,1.2,1,1.1,2.1c0,0.6-0.4,1.2-1.2,1.6c-0.5,0.3-0.8,0.6-0.8,1c0,0.6,0.6,1.2,0.8,1.4L-905.7,488.7z"/>
	</g>
	<g>
		<path d="M-900.2,485.2c0,0-1.2-0.9-1.1-2c0-0.6,0.4-1.2,1.2-1.6c0.5-0.3,0.8-0.6,0.8-1c0-0.6-0.6-1.2-0.8-1.4l0.5-0.6
			c0,0,1.2,1,1.1,2.1c0,0.6-0.4,1.2-1.2,1.6c-0.5,0.3-0.8,0.6-0.8,1c0,0.6,0.6,1.2,0.8,1.4L-900.2,485.2z"/>
	</g>
	<g>
		<path d="M-889.1,485.4c0,0-1.2-0.9-1.1-2c0-0.6,0.4-1.2,1.2-1.6c0.5-0.3,0.8-0.6,0.8-1c0-0.6-0.6-1.2-0.8-1.4l0.5-0.6
			c0,0,1.2,1,1.1,2.1c0,0.6-0.4,1.2-1.2,1.6c-0.5,0.3-0.8,0.6-0.8,1c0,0.6,0.6,1.2,0.8,1.4L-889.1,485.4z"/>
	</g>
</g>
<path d="M-869.6,496.7l-0.4-0.7c-0.2-0.3-0.5-0.6-0.9-0.7c-0.6-0.2-1.4,0-2.1,0.4l-9.2,5.6c0,0,0,0-0.1,0l-5.3,3.1h-0.4h-1.4h-2.6
	c-2.4,0-4.3,2-4.3,4.3v4.4c0,2.4,2,4.3,4.3,4.3h4h10.7c2.4,0,4.3-2,4.3-4.3v-4.4c0-2.4-2-4.3-4.3-4.3h-0.7c0-0.3-0.1-0.6-0.3-0.9
	l-0.3-0.4l7.6-3.8l0,0c0.7-0.3,1.2-0.9,1.4-1.5C-869.4,497.4-869.4,497-869.6,496.7z M-879.1,504.1c0.2,0.3,0.2,0.7,0.1,1
	c-0.1,0.4-0.3,0.6-0.6,0.8l-1.8,1.1c-0.7-1.5-2.2-2.5-3.9-2.5h-0.2l5-2.9L-879.1,504.1z M-873.9,513.3c0,1.8-1.5,3.4-3.4,3.4h-7.9
	c1-0.8,1.6-2,1.6-3.4v-4.4c0-1.3-0.6-2.5-1.6-3.3c1.8,0.1,3.1,1.6,3.1,3.3v2.4c0,0.3,0.2,0.5,0.5,0.5s0.5-0.2,0.5-0.5v-2.4
	c0-0.3,0-0.6-0.1-0.9l2-1.2c0.5-0.3,0.9-0.7,1-1.3h0.8c1.8,0,3.4,1.5,3.4,3.4V513.3z M-895.3,508.9c0-1.8,1.5-3.4,3.4-3.4h2.6h1.4
	c1.8,0,3.4,1.5,3.4,3.4v4.4c0,1.8-1.5,3.4-3.4,3.4h-4c-1.8,0-3.4-1.5-3.4-3.4V508.9L-895.3,508.9z M-879.7,501.1l7.3-4.5
	c0.3-0.2,0.7-0.3,1-0.3c0.1,0,0.2,0,0.3,0c0.1,0,0.3,0.1,0.3,0.2l0.4,0.7c0.1,0.1,0.1,0.2,0,0.4c-0.1,0.4-0.5,0.7-0.9,0.9l-7.7,3.8
	L-879.7,501.1z"/>
</svg>
