<?xml version="1.0" encoding="utf-8"?>
<!-- Generator: Adobe Illustrator 19.0.0, SVG Export Plug-In . SVG Version: 6.00 Build 0)  -->
<svg version="1.1" id="Layer_1" xmlns="http://www.w3.org/2000/svg" xmlns:xlink="http://www.w3.org/1999/xlink" x="0px" y="0px"
	 viewBox="-703 221 40 40" style="enable-background:new -703 221 40 40;" xml:space="preserve">
<g>
	<rect x="-671.4" y="253" width="0.8" height="0.8"/>
	<rect x="-667.4" y="235.3" width="0.8" height="0.8"/>
	<rect x="-676" y="235.9" width="0.8" height="0.8"/>
	<rect x="-667" y="256.7" width="0.8" height="0.8"/>
	<rect x="-674.2" y="257.5" width="0.8" height="0.8"/>
	<path d="M-667.7,227.2c-0.4-0.2-0.6-0.6-0.6-1v-1.2c0.5-0.1,0.8-0.5,0.8-1v-1.4c0-0.5-0.4-1-1-1h-6.6c-0.5,0-1,0.4-1,1v1.4
		c0,0.5,0.3,0.9,0.8,1v1.2c0,0.2-0.1,0.4-0.2,0.6c-0.1,0.2-0.3,0.3-0.4,0.4c-2.5,1.4-4.1,4-4.1,6.9v0.8h-17.5
		c-1.2,0-2.2,0.9-2.3,2.1l-0.8,10.7l0.8,0.1l0.8-10.7c0.1-0.8,0.7-1.4,1.5-1.4h18.3c0.8,0,1.4,0.6,1.5,1.4l0.8,10.7l0.8-0.1
		l-0.5-7.4h7.7v10.1h-5v0.8h5.8v-13.8h-8.8l0-0.5c-0.1-1.2-1.1-2.1-2.3-2.1v-0.8c0-0.3,0-0.7,0.1-1c0.8,0.1,1.3,0.4,1.8,0.8
		c0.7,0.5,1.4,1,2.8,1c1.4,0,2.2-0.5,2.8-1c0.6-0.5,1.2-0.8,2.3-0.8s1.7,0.4,2.3,0.8c0.6,0.4,1.2,0.9,2.4,1v23
		c0,0.9-0.7,1.6-1.6,1.6h-10.1v0.8h10.1c1.3,0,2.4-1.1,2.4-2.4v-23.9C-663.6,231.2-665.2,228.5-667.7,227.2z M-668.7,238.3v1.1h-7.8
		l-0.1-1.1H-668.7L-668.7,238.3z M-675.2,222.6c0-0.1,0.1-0.1,0.1-0.1h6.6c0.1,0,0.1,0.1,0.1,0.1v1.4c0,0.1-0.1,0.1-0.1,0.1h-6.6
		c-0.1,0-0.1-0.1-0.1-0.1V222.6z M-666.3,233.2c-0.7-0.5-1.4-1-2.8-1c-1.4,0-2.2,0.5-2.8,1c-0.6,0.5-1.2,0.8-2.3,0.8
		c-1.2,0-1.7-0.4-2.3-0.8c-0.5-0.4-1.2-0.8-2.2-1c0.5-1.8,1.7-3.4,3.4-4.3c0.3-0.2,0.6-0.4,0.8-0.7c0.1-0.1,0.1-0.2,0.2-0.4h3.9V226
		h-3.8v-1h5.3v1.2c0,0.7,0.4,1.4,1,1.8c2.2,1.2,3.6,3.6,3.6,6.1C-665.3,233.9-665.8,233.6-666.3,233.2z"/>
	<rect x="-696.3" y="229.8" width="0.8" height="1.3"/>
	<rect x="-696.3" y="232" width="0.8" height="1.3"/>
	<rect x="-697.6" y="231.1" width="1.3" height="0.8"/>
	<rect x="-695.5" y="231.1" width="1.3" height="0.8"/>
	<rect x="-682.3" y="223.6" width="0.8" height="1.3"/>
	<rect x="-682.3" y="225.8" width="0.8" height="1.3"/>
	<rect x="-683.6" y="224.9" width="1.3" height="0.8"/>
	<rect x="-681.4" y="224.9" width="1.3" height="0.8"/>
	<path d="M-675.4,254.7c0.7,0,1.4-0.6,1.4-1.4c0-0.8-0.6-1.4-1.4-1.4c0,0,0,0,0,0c0-1.1-0.4-2.3-1.2-3.3c-0.8-1.1-1.8-1.7-2.9-1.7
		c-0.3,0-0.6,0-0.9,0.1c-0.8-1.6-2.1-2.6-3.5-2.6c-1.4,0-2.7,1-3.5,2.6c-0.3-0.1-0.6-0.1-0.9-0.1c-0.3,0-0.6,0.1-0.9,0.1
		c-0.8-1.6-2.1-2.6-3.5-2.6c-1.4,0-2.7,1-3.5,2.6c-0.3-0.1-0.5-0.1-0.8-0.1c-1.1,0-2.1,0.6-2.9,1.7c-0.7,1-1.2,2.2-1.2,3.3
		c0,0,0,0,0,0c-0.8,0-1.4,0.6-1.4,1.4s0.6,1.4,1.4,1.4v1.6c0,2.2,1.8,4,4,4c1.6,0,3-1,3.6-2.4h1.5c0.6,1.4,2,2.5,3.7,2.5
		c1.6,0,3.1-1,3.7-2.5h1.5c0.5,1.3,1.7,2.2,3.1,2.4v0c0,0,0,0,0,0c0.2,0,0.4,0,0.5,0c2.2,0,4-1.8,4-4L-675.4,254.7L-675.4,254.7z
		 M-679.5,247.9c1.7,0,3.2,2.2,3.2,4.1c0,0,0,0,0,0h-6.5c0,0,0,0,0,0C-682.7,250.1-681.2,247.9-679.5,247.9z M-683.9,245.4
		c1.2,0,2.2,1,2.7,2.1c-0.5,0.3-0.9,0.7-1.3,1.2c-0.7,1-1.2,2.2-1.2,3.3c0,0,0,0,0,0h-0.6c0,0,0,0,0,0c0-1.1-0.4-2.3-1.2-3.3
		c-0.4-0.5-0.8-0.9-1.3-1.2C-686.1,246.4-685.1,245.4-683.9,245.4z M-688.2,247.9c1.7,0,3.2,2.2,3.2,4.1c0,0,0,0,0,0h-6.5
		c0,0,0,0,0,0C-691.5,250.1-690,247.9-688.2,247.9z M-692.6,245.4c1.2,0,2.2,1,2.7,2.1c-0.4,0.3-0.9,0.7-1.2,1.2
		c-0.7,1-1.2,2.2-1.2,3.3c0,0,0,0,0,0h-0.6c0,0,0,0,0,0c0-1.1-0.4-2.3-1.2-3.3c-0.4-0.5-0.8-0.9-1.3-1.2
		C-694.8,246.4-693.8,245.4-692.6,245.4z M-697,247.9c1.7,0,3.2,2.2,3.2,4.1c0,0,0,0,0,0h-6.5c0,0,0,0,0,0
		C-700.2,250.1-698.7,247.9-697,247.9z M-700.2,256.4v-1.6h0.5v1.6c0,1,0.3,1.8,0.7,2.5C-699.7,258.3-700.2,257.4-700.2,256.4z
		 M-693.2,257.1c0-0.2,0.1-0.5,0.1-0.7v-0.2c0-0.3,0.2-0.5,0.5-0.5c0.3,0,0.5,0.2,0.5,0.5v0.2c0,0.2,0,0.5,0.1,0.7H-693.2z
		 M-684.3,257.1c0-0.2,0.1-0.5,0.1-0.7v-0.2c0-0.3,0.2-0.5,0.5-0.5c0.3,0,0.5,0.2,0.5,0.5v0.2c0,0.2,0,0.5,0.1,0.7H-684.3z
		 M-677.6,256.4c0,1.7-1,3.1-2.2,3.1c-1.5-0.2-2.6-1.5-2.6-3.1v-0.2c0-0.7-0.6-1.3-1.3-1.3s-1.3,0.6-1.3,1.3v0.2
		c0,1.7-1.4,3.2-3.1,3.2c-1.7,0-3.1-1.4-3.1-3.2v-0.2c0-0.7-0.6-1.3-1.3-1.3c-0.7,0-1.3,0.6-1.3,1.3v0.2c0,1.6-1.1,2.9-2.6,3.1
		c-1.2,0-2.3-1.4-2.3-3.1v-1.6h21.2L-677.6,256.4L-677.6,256.4z M-676.2,256.4c0,1.1-0.5,2-1.3,2.6c0.5-0.7,0.8-1.6,0.8-2.6v-1.6
		h0.6V256.4L-676.2,256.4z M-701,253.9c-0.3,0-0.5-0.2-0.5-0.5c0-0.3,0.2-0.5,0.5-0.5h25.6c0.3,0,0.5,0.2,0.5,0.5
		c0,0.3-0.2,0.5-0.5,0.5H-701z"/>
	<path d="M-695.9,237.5c0-0.6-0.5-1.1-1.1-1.1c-0.6,0-1.1,0.5-1.1,1.1c0,0.6,0.5,1.1,1.1,1.1C-696.4,238.6-695.9,238.1-695.9,237.5z
		 M-697.2,237.5c0-0.1,0.1-0.3,0.3-0.3c0.1,0,0.3,0.1,0.3,0.3c0,0.1-0.1,0.3-0.3,0.3C-697.1,237.8-697.2,237.6-697.2,237.5z"/>
	<path d="M-679.5,238.6c0.6,0,1.1-0.5,1.1-1.1s-0.5-1.1-1.1-1.1c-0.6,0-1.1,0.5-1.1,1.1S-680.1,238.6-679.5,238.6z M-679.5,237.2
		c0.1,0,0.3,0.1,0.3,0.3c0,0.1-0.1,0.3-0.3,0.3c-0.1,0-0.3-0.1-0.3-0.3C-679.7,237.3-679.6,237.2-679.5,237.2z"/>
	<rect x="-683.2" y="237.1" width="1.6" height="0.8"/>
	<rect x="-694.8" y="237.1" width="10.6" height="0.8"/>
	<rect x="-666.4" y="252.5" width="0.8" height="1.3"/>
	<rect x="-666.4" y="237.4" width="0.8" height="13.9"/>
</g>
</svg>
