<?xml version="1.0" encoding="utf-8"?>
<!-- Generator: Adobe Illustrator 19.0.0, SVG Export Plug-In . SVG Version: 6.00 Build 0)  -->
<svg version="1.1" id="Layer_1" xmlns="http://www.w3.org/2000/svg" xmlns:xlink="http://www.w3.org/1999/xlink" x="0px" y="0px"
	 viewBox="-924 497.5 40 40" style="enable-background:new -924 497.5 40 40;" xml:space="preserve">
<path d="M-906.1,521.5c-0.1-0.1-0.2-0.1-0.2-0.1c-0.1,0-0.2,0.1-0.2,0.2l-0.4,0.8c-0.3-0.2-0.6-0.3-0.9-0.4c-0.3-0.1-0.6-0.1-1-0.1
	l0.1-0.9c0-0.1,0-0.2-0.1-0.2c-0.1-0.1-0.1-0.1-0.2-0.1c-2.5,0.2-5.2,3-6.8,6c-0.9-1-1.9-1.7-2.8-1.9c-0.1,0-0.2,0-0.2,0.1
	c-0.1,0.1-0.1,0.1-0.1,0.2l0,0.6c-0.2,0-0.5,0-0.7,0c-0.2,0-0.4,0.1-0.6,0.2l-0.2-0.5c0-0.1-0.1-0.1-0.2-0.2c-0.1,0-0.2,0-0.3,0
	c-2,1.2-2.8,5.2-2.3,7.9c0.3,1.3,0.9,2.3,1.8,3c0.7,0.5,1.6,0.7,2.6,0.7c0.4,0,0.9,0,1.3-0.1c1.2-0.2,2.1-0.7,2.8-1.3
	c0.6,0.4,1.4,0.8,2.3,1.1c0.9,0.3,1.7,0.4,2.5,0.4c0.8,0,1.6-0.1,2.3-0.4c1.5-0.7,2.6-2,3.2-3.9
	C-903.4,528.8-903.8,523.4-906.1,521.5z M-908.1,522.5c0.3,0.1,0.5,0.2,0.8,0.4l-2.2,4.3l0.6-4.8
	C-908.6,522.4-908.3,522.4-908.1,522.5z M-919.5,526.2c0.2,0,0.4,0,0.6,0l0,3.1l-1.1-2.9C-919.9,526.3-919.7,526.2-919.5,526.2z
	 M-917.7,536c-1.4,0.3-2.6,0.1-3.5-0.5c-0.8-0.5-1.3-1.4-1.5-2.6c-0.4-2.3,0.2-5.8,1.8-7.1l2,5.1c0.1,0.1,0.2,0.2,0.3,0.2
	c0.1,0,0.2-0.1,0.2-0.3l0-5.4c0.7,0.3,1.5,0.9,2.3,1.8c-0.2,0.5-0.4,0.9-0.6,1.4c-0.8,2.6-0.3,4.8,1.5,6.3
	C-915.8,535.4-916.6,535.8-917.7,536z M-905.1,532.2c-0.6,1.8-1.5,3-2.9,3.5c-1.2,0.5-2.7,0.5-4.3,0c-1.7-0.5-5.4-2.3-3.8-7.1
	c0.2-0.5,0.4-1,0.6-1.5c0,0,0,0,0,0c1.3-2.8,3.9-5.6,6.2-6l-1,7.5c0,0.1,0.1,0.3,0.2,0.3c0.1,0,0.3,0,0.4-0.1l3.5-6.7
	C-904.4,524.1-904.1,529.1-905.1,532.2z"/>
<g>
	<path d="M-887,507.2c1.3-0.9,1.9-1.2,2.5-2.8c0.6-1.6,0.3-3.5-1-4.7c-1.4-1.4-3.8-1.7-5.7-0.4c-0.9,0.6-1.5,1.5-2.1,2.5
		c-1.7,2.6-2,2.9-4,3.7c-1.4,0.6-2.9,1.2-4.2,3.3c-1.3,2.1-1,4.4,0.9,6.2c2.4,2.4,5.2,2.1,7.7-0.3c0.9-0.9,1.3-1.9,1.7-2.9
		C-890.2,509.5-890,509.2-887,507.2z M-900.1,514.5c-1.6-1.6-1.9-3.5-0.8-5.3c1.1-1.9,2.5-2.5,3.8-3c2.1-0.9,2.6-1.2,4.3-4
		c0.6-1,1.1-1.8,1.9-2.3c1.7-1.2,3.6-0.9,4.9,0.3c1,1,1.4,2.6,0.8,4c-0.5,1.4-1,1.7-2.3,2.5c-3.1,2-3.5,2.4-4.5,4.9
		c-0.4,1-0.8,1.9-1.6,2.7C-895.6,516.3-897.9,516.6-900.1,514.5z"/>
	<path d="M-892.3,506.4c0,0,0.1,0.1,0.1,0.1c1.4,1.2,3.6,0.9,5.1-0.7c1.6-1.6,1.9-3.9,0.6-5.2s-3.6-0.9-5.2,0.7
		C-893.1,502.9-893.4,505.3-892.3,506.4z M-886.9,501.1c1,1,0.7,2.8-0.6,4.2c-1.3,1.3-3.1,1.6-4.2,0.7c-0.8-0.7-0.7-2.8,0.6-4.2
		C-889.8,500.5-887.9,500.2-886.9,501.1z"/>
	<path d="M-890.3,502.6c0.9-0.9,2.1-1.1,2.5-0.7c0.1,0.1,0.4,0.1,0.5,0c0.1-0.1,0.1-0.4,0-0.5c-0.8-0.8-2.4-0.5-3.5,0.7
		c-0.1,0.1-0.1,0.4,0,0.5C-890.6,502.8-890.4,502.8-890.3,502.6z"/>
	<path d="M-893.2,508.1c0-0.2-0.1-0.4-0.1-0.5c-0.1-0.3-0.2-0.6-0.4-0.8c-1.2-1.2-4.1-0.3-5.6,1.2c-1.8,1.8-2,4.5-0.5,5.9
		c1.5,1.5,4.1,1.2,5.9-0.6C-892.3,511.8-892.9,509.5-893.2,508.1z M-899.3,513.4c-1.2-1.2-1-3.4,0.5-5c1.3-1.3,3.8-2,4.6-1.2
		c0.1,0.1,0.2,0.3,0.2,0.5c0,0.2,0.1,0.3,0.1,0.5c0.3,1.3,0.8,3.3-0.5,4.6C-895.9,514.4-898.1,514.6-899.3,513.4z"/>
	<path d="M-894.5,507.7L-894.5,507.7c-0.6-0.6-2.8-0.1-4,1.1c-0.1,0.1-0.1,0.4,0,0.5c0.1,0.1,0.4,0.1,0.5,0c1-1,2.6-1.3,2.9-1.2
		c0.1,0.1,0.2,0.2,0.4,0.2c0.2,0,0.3-0.2,0.3-0.4C-894.4,507.8-894.5,507.7-894.5,507.7z"/>
</g>
<g>
	<path d="M-904.9,500.6c-0.4-0.3-0.7-0.6-0.7-0.8c-0.2-0.4-0.6-0.5-0.9-0.5c-0.1,0-0.2-0.1-0.3-0.1l0,0c0,0,0,0,0-0.1
		c0-0.2-0.2-0.5-0.7-0.8c-0.4-0.1-1.3-0.5-5.1-0.7c-4-0.2-7,3.9-9.1,7c-2.5,3.5-2,8.5-0.7,10.7c0.3,0.5,0.6,1.1,0.8,1.7
		c0.1,0.3,0.1,0.5,0,0.8c-0.1,0.2,0,0.4,0.2,0.6c0.2,0.1,0.4,0,0.5-0.1c0-0.1,1-1.5,1.8-6c0.6-3,4.3-10.2,12-12.2
		c0.2,0,0.6,0.2,0.6,0.2c0.2,0.3,0.5,0.6,0.9,1c0.7,0.6,1.7,1.4,2.3,2.8c-0.1,0-0.1-0.1-0.1,0c-0.2,0-0.5,0.1-0.5,0.4
		c0,0-0.2,0.9-0.7,1.6c-0.1,0.2-0.1,0.5,0.1,0.6c0.1,0.1,0.3,0.2,0.5,0.1c0.1,0,0.1,0,0.2-0.1c0.7-0.7,0.9-1.6,0.9-1.9
		c0.1,0.4,0.2,0.9,0.3,1.4c0.3,1.9-1,5.2-3.1,7.9c-1.2,1.6-3.6,4.2-6.8,4.6c-3.4,0.5-5.2-0.2-6.4-0.7l-0.3-0.1
		c-0.2-0.1-0.5,0-0.6,0.2s0,0.5,0.2,0.6l0.3,0.1c1.2,0.4,3.2,1.2,6.8,0.7c0.7-0.1,1.4-0.3,2-0.6c2.5-1,4.3-3.1,5.3-4.4
		c2.2-2.9,3.5-6.4,3.2-8.6C-902.2,503-903.9,501.6-904.9,500.6z M-920,512.2c-0.4,2-0.8,3.4-1.1,4.3c-0.1-0.4-0.4-0.9-0.7-1.4
		c-1-1.7-1.7-6.4,0.6-9.7c2.5-3.6,5.1-6.7,8.3-6.6c-0.1,0.1-0.1,0.1-0.2,0.2c-0.1,0.1-0.2,0.2-0.3,0.3c-0.3,0.3-0.7,0.7-1.1,0.8
		c-0.7,0.1-1.3,0.9-1.8,2.3c-0.3,0.7-1.6,1.9-2.1,2.4c-0.2,0.2-0.2,0.4-0.1,0.6c0.1,0.1,0.3,0.2,0.5,0.1c0,0,0.1,0,0.1,0
		c0.2-0.2,2-1.7,2.4-2.8c0.5-1.5,0.9-1.7,1.1-1.7c0.7-0.1,1.1-0.6,1.6-1.1c0.1-0.1,0.2-0.2,0.2-0.2c0.4-0.4,0.7-0.5,0.7-0.5
		c0.1,0,0.2-0.1,0.2-0.1c2.5,0.2,3.1,0.4,3.4,0.5c0.1,0,0.2,0.1,0.2,0.1C-915.5,501.6-919.4,509-920,512.2z"/>
	<path d="M-910.7,514.1c0.3-0.5,0.7-0.5,1.2-0.6c0.4-0.1,0.9-0.1,1.2-0.5c0.2-0.2,0.3-0.3,0.4-0.6c0.2-0.3,0.4-0.6,0.6-0.7
		s0.4-0.3,0.3-0.5c0-0.2-0.3-0.4-0.5-0.3c-0.6,0.1-1,0.7-1.2,1.1c-0.1,0.2-0.2,0.3-0.3,0.4c-0.2,0.2-0.4,0.2-0.7,0.3
		c-0.5,0.1-1.2,0.2-1.8,0.9c-0.6,0.9-2,0.8-2,0.8c-0.2,0-0.4,0.1-0.5,0.4c0,0.2,0.1,0.4,0.4,0.5c0.1,0,0.8,0.1,1.6-0.3
		C-911.4,514.8-911,514.5-910.7,514.1z"/>
	<path d="M-906.3,508.2c0.1-0.2,0-0.4-0.2-0.5s-0.4,0-0.5,0.2c-0.5,1.2-0.6,1.1-0.9,1.3c-0.1,0-0.2,0.1-0.4,0.1
		c-0.6,0.2-0.8,0.6-1.1,1c-0.3,0.4-0.6,0.8-1.4,1c-1.3,0.3-2.3,1.8-2.3,1.8c-0.1,0.2-0.1,0.5,0.1,0.6c0.1,0.1,0.3,0.1,0.4,0
		c0.1,0,0.1-0.1,0.2-0.2c0,0,0.8-1.2,1.8-1.5c1.2-0.3,1.6-0.8,1.9-1.3c0.2-0.3,0.4-0.5,0.7-0.7c0.1,0,0.2-0.1,0.3-0.1
		C-907,509.7-906.9,509.5-906.3,508.2z"/>
	<path d="M-913,516.6c-0.1-0.1-0.5-0.4-1.1,0c-0.4,0.3-0.8,0.2-0.8,0.2c-0.2-0.1-0.4,0-0.5,0.3c-0.1,0.2,0,0.5,0.3,0.5
		c0.3,0.1,1,0.2,1.7-0.3l0,0c0.3,0.2,0.6,0.3,1.1,0.1c0.1,0,0.2-0.1,0.4-0.2c0.2-0.1,0.3-0.4,0.1-0.6c-0.1-0.2-0.4-0.3-0.6-0.1
		C-912.9,516.7-912.9,516.6-913,516.6z"/>
	<path d="M-917.7,512.6c-0.1,0.7-0.4,1.5-0.6,1.8c-0.1,0-0.3,0.2-0.3,0.3c0,0.2,0.1,0.5,0.3,0.5c0.1,0,0.2,0,0.3,0
		c0,0,0.1,0,0.1-0.1c0.4-0.3,0.9-1.5,0.9-2.4c0-0.3,0.2-0.5,0.7-0.8c0.4-0.3,0.9-0.6,1.3-1.1c0.4-0.6,0.3-1.2,0.3-1.6s0-0.5,0.2-0.7
		c0.2-0.1,0.2-0.4,0.1-0.6c-0.1-0.2-0.4-0.2-0.6-0.1c-0.7,0.5-0.6,1.1-0.6,1.5c0.1,0.3,0.1,0.6-0.2,1c-0.3,0.4-0.6,0.6-1,0.9
		C-917.1,511.5-917.7,511.8-917.7,512.6z"/>
	<path d="M-921.1,507.9c-0.2,0.1-0.4,0.3-0.3,0.5c0,0,0.3,0.8,0,1.7c-0.1,0.2,0.1,0.5,0.3,0.5c0.1,0,0.2,0,0.3,0
		c0.1,0,0.2-0.1,0.2-0.3c0.3-1.1,0-2.2,0-2.2C-920.6,508-920.9,507.9-921.1,507.9z"/>
	<path d="M-920.2,506.1c-0.2,0.1-0.4,0.3-0.3,0.5c0,0,0.1,0.5,0,1.3c0,0.2,0.1,0.5,0.3,0.5c0.1,0,0.2,0,0.3,0c0.1,0,0.2-0.2,0.2-0.3
		c0.2-1,0-1.6,0-1.7C-919.7,506.1-919.9,506-920.2,506.1z"/>
	<path d="M-908.4,500.7c-7,2.3-9.4,8.4-9.5,8.7c-0.1,0.2,0,0.4,0.2,0.5c0.1,0,0.2,0.1,0.3,0c0.1,0,0.2-0.1,0.2-0.2
		c0-0.1,2.4-6.1,8.9-8.2c0.2-0.1,0.3-0.3,0.3-0.5C-907.9,500.8-908.1,500.7-908.4,500.7z"/>
	<path d="M-906,503.2c-0.1-0.2-0.3-0.4-0.5-0.3c-0.2,0.1-0.4,0.3-0.3,0.5c0,0,0.2,1.1-0.9,2l-1.4,1.1c-0.2,0.2-0.2,0.4-0.1,0.6
		c0.1,0.1,0.3,0.2,0.5,0.1c0,0,0.1,0,0.1,0l1.4-1.1C-905.6,504.8-906,503.3-906,503.2z"/>
</g>
<g>
	<path d="M-892.9,537.1c4.5,0,8.2-4.6,8.2-10.2c0-0.2-0.2-0.3-0.3-0.3h-0.7c-0.2-4.8-3.8-9.9-7.1-9.9s-7,5.1-7.1,9.9h-0.7
		c-0.2,0-0.3,0.2-0.3,0.3C-901,532.6-897.4,537.1-892.9,537.1z M-893.9,517.6c-1.4,1.7-2.4,3.7-2.7,5.9l0.7,0.1
		c0.3-1.9,1.1-3.7,2.2-5.2c-0.3,1.1-0.5,2.3-0.5,3.4h0.7c0-1.3,0.3-2.5,0.7-3.8c0.4,1.4,0.7,2.9,0.7,4.4h0.7c0-1.4-0.2-2.8-0.6-4.2
		c1.6,1.9,2.7,4.2,3.3,6.6l0.7-0.2c-0.9-3.8-2.7-6.1-3.7-7.2c2.5,0.9,5.2,4.9,5.4,9h-1.9c0.1-0.3,0.2-0.7,0.2-1h-0.7
		c0,0.4-0.1,0.7-0.2,1h-6.7c-0.2-0.6-0.2-1.1-0.3-1.7h-0.7c0,0.6,0.1,1.1,0.2,1.7h-1c-0.1-0.9-0.1-1.8,0-2.6l-0.7-0.2
		c-0.2,0.9-0.2,1.9-0.1,2.8h-1.3C-899.2,522.5-896.4,518.5-893.9,517.6z M-885.4,527.3c-0.1,5.1-3.4,9.2-7.5,9.2
		c-4,0-7.3-4.1-7.5-9.2H-885.4z"/>
	<rect x="-890.8" y="523.5" width="0.7" height="0.7"/>
	<rect x="-892.2" y="524.6" width="0.7" height="0.7"/>
	<path d="M-892.9,535.8l0.1-0.7c-4.8-0.6-5.5-5-5.5-5.2l-0.7,0.1C-899,530.1-898.2,535.1-892.9,535.8z"/>
	<path d="M-893.9,530.3c0.6,0,1-0.5,1-1c0-0.6-0.5-1-1-1c-0.6,0-1,0.5-1,1C-894.9,529.9-894.5,530.3-893.9,530.3z M-893.9,529
		c0.2,0,0.3,0.2,0.3,0.3s-0.2,0.3-0.3,0.3s-0.3-0.2-0.3-0.3S-894.1,529-893.9,529z"/>
	<path d="M-891.2,533.7c0.6,0,1-0.5,1-1c0-0.6-0.5-1-1-1c-0.6,0-1,0.5-1,1C-892.2,533.3-891.7,533.7-891.2,533.7z M-891.2,532.4
		c0.2,0,0.3,0.2,0.3,0.3s-0.2,0.3-0.3,0.3c-0.2,0-0.3-0.2-0.3-0.3S-891.4,532.4-891.2,532.4z"/>
	<path d="M-888.5,530.7c0.6,0,1-0.5,1-1c0-0.6-0.5-1-1-1c-0.6,0-1,0.5-1,1C-889.5,530.2-889,530.7-888.5,530.7z M-888.5,529.3
		c0.2,0,0.3,0.2,0.3,0.3s-0.2,0.3-0.3,0.3s-0.3-0.2-0.3-0.3S-888.6,529.3-888.5,529.3z"/>
	<rect x="-895.3" y="532" width="0.7" height="0.7"/>
	<rect x="-897.6" y="528.6" width="0.7" height="0.7"/>
</g>
</svg>
