<svg xmlns="http://www.w3.org/2000/svg" width="31" height="33" viewBox="0 0 31 33">
    <path fill="#4A4A4A" fill-rule="evenodd" d="M26.344 0H4.103C1.837 0 0 1.955 0 4.367v23.676c0 2.412 1.837 4.368 4.103 4.368h10.969l.019-11.582h-2.827c-.367 0-.666-.316-.667-.707l-.014-3.734c0-.393.298-.712.667-.712h2.822v-3.608c0-4.186 2.402-6.465 5.91-6.465h2.878c.369 0 .667.317.667.71V9.46c0 .391-.298.71-.666.71h-1.767c-1.908 0-2.277.965-2.277 2.382v3.123h4.192c.4 0 .71.37.662.793l-.415 3.734c-.04.357-.325.626-.663.626h-3.757l-.019 11.582h6.527c2.266 0 4.102-1.956 4.102-4.368V4.367C30.446 1.955 28.61 0 26.344 0z"/>
</svg>
