<?xml version="1.0" encoding="utf-8"?>
<!-- Generator: Adobe Illustrator 19.0.0, SVG Export Plug-In . SVG Version: 6.00 Build 0)  -->
<svg version="1.1"
	 id="Layer_1" xmlns:inkscape="http://www.inkscape.org/namespaces/inkscape" xmlns:sodipodi="http://sodipodi.sourceforge.net/DTD/sodipodi-0.dtd" xmlns:svg="http://www.w3.org/2000/svg" xmlns:rdf="http://www.w3.org/1999/02/22-rdf-syntax-ns#" xmlns:cc="http://creativecommons.org/ns#" xmlns:dc="http://purl.org/dc/elements/1.1/"
	 xmlns="http://www.w3.org/2000/svg" xmlns:xlink="http://www.w3.org/1999/xlink" x="0px" y="0px" viewBox="-909 478 40 40"
	 style="enable-background:new -909 478 40 40;" xml:space="preserve">
<g>
	<path d="M-894.9,478.3c-1.1,0-1.9,0.3-2.6,0.7s-1.2,1.1-1.7,1.7c-1,1.3-2,2.8-4,4h-1.5c-1.6,0-2.9,1.3-2.9,2.8c0,1,0.6,2,1.4,2.5
		c-0.7,1.7-1.1,3.6-1.1,5c0,2.1,0.5,3.9,0.9,5.4c0.4,1.5,0.8,2.8,0.5,3.7c-0.2,0.6-0.4,0.8-0.6,1c-0.2,0.1-0.5,0.2-0.8,0.2
		c-0.3,0.1-0.8,0.2-1.1,0.6c-0.3,0.4-0.4,0.9-0.4,1.8c0,0.2,0.1,0.3,0.3,0.3c1.9,0.5,4.1,0.7,5.9,0.7c1.9,0,4-0.4,5.9-0.9
		c0.6-0.2,1.1-0.3,1.6-0.5c0,0,0,0,0,0c2.3,0.7,4.8,1.4,7.7,1.4c1.8,0,4-0.3,5.9-0.7c0.2,0,0.3-0.2,0.3-0.3c0-0.9-0.1-1.5-0.4-1.8
		c-0.3-0.4-0.7-0.5-1.1-0.6c-0.3-0.1-0.6-0.1-0.8-0.2c-0.2-0.1-0.4-0.4-0.6-1c-0.2-0.9,0.1-2.2,0.5-3.7c0.4-1.5,0.9-3.3,0.9-5.4
		c0-1.4-0.3-3.3-1.1-5c0.9-0.5,1.4-1.4,1.4-2.5c0-1.6-1.3-2.8-2.9-2.8h-1.5c-2-1.1-3-2.7-4-4c-0.5-0.7-1-1.3-1.7-1.7
		S-893.8,478.3-894.9,478.3z M-894.9,479c0.9,0,1.6,0.2,2.1,0.6c0.6,0.4,1,0.9,1.5,1.5c0.8,1.1,1.7,2.4,3.3,3.5h-13.8
		c1.6-1.1,2.5-2.5,3.3-3.5c0.5-0.6,0.9-1.2,1.5-1.5S-895.8,479-894.9,479z M-904.7,485.4h19.5c1.2,0,2.2,0.9,2.2,2.1s-1,2.1-2.2,2.1
		c-3,0-5-0.6-7-1.2c-2-0.6-3.9-1.3-6.7-1.3c-0.2,0-0.4,0.2-0.4,0.3c0,0.2,0.2,0.4,0.4,0.4c0,0,0,0,0,0c0.9,0,1.7,0.1,2.4,0.2
		c-2.4,0.7-4.6,1.6-8.2,1.6c-1.2,0-2.2-0.9-2.2-2.1S-905.9,485.4-904.7,485.4z M-895,488.3C-895,488.3-895,488.3-895,488.3
		c0.9,0.2,1.7,0.5,2.6,0.7c2,0.6,4.1,1.3,7.3,1.3c0.3,0,0.5,0,0.8-0.1c0.7,1.6,1,3.4,1,4.7c0,2-0.5,3.7-0.9,5.2
		c-0.4,1.5-0.8,2.9-0.5,4.1c0.2,0.7,0.5,1.2,0.9,1.4c0.4,0.2,0.8,0.3,1.1,0.3c0.3,0.1,0.5,0.1,0.6,0.3c0.1,0.2,0.2,0.5,0.3,1.1
		c-1.8,0.4-3.7,0.6-5.4,0.6c-2.5,0-4.6-0.5-6.6-1.2c0.7-0.3,1.3-0.7,1.8-1.1c0.2-0.1,0.2-0.3,0.1-0.5c-0.1-0.2-0.4-0.2-0.5-0.1l0,0
		c-0.8,0.7-2.4,1.4-4.2,1.9c-1.8,0.5-3.9,0.9-5.7,0.9c-1.7,0-3.6-0.2-5.4-0.6c0-0.6,0.1-1,0.3-1.1c0.1-0.2,0.3-0.2,0.6-0.3
		c0.3-0.1,0.7-0.1,1.1-0.3c0.4-0.2,0.7-0.7,0.9-1.4c0.3-1.2-0.1-2.5-0.5-4.1c-0.4-1.5-0.9-3.3-0.9-5.2c0-1.3,0.3-3.2,1-4.7
		c0.3,0.1,0.5,0.1,0.8,0.1C-900.3,490.3-897.9,489.1-895,488.3C-895,488.4-895,488.4-895,488.3z"/>
	<g>
		<path d="M-877.9,480.1c0.2-0.5,0-1.7-0.3-1.7c-0.4,0-0.5,0.8-0.3,1.4c0,0.1,0.3,0.5,0.4,0.6C-878,480.5-877.9,480.3-877.9,480.1z"
			/>
		<path d="M-878,483.6c0.1,0.4,0.1,0.7,0.2,1.1c0-0.1-0.1-0.1-0.1-0.2c-0.3-0.5-1.5-1.3-1.8-1c-0.3,0.3,0.4,1.1,1.1,1.4
			c0.2,0.1,0.7,0.2,0.8,0.1c0,0,0,0,0,0c0.1,0.3,0.2,0.5,0.2,0.8c0,0-0.1-0.1-0.1-0.1c-0.5-0.4-1.8-0.8-2-0.5
			c-0.2,0.4,0.7,0.9,1.4,1c0.2,0,0.6,0,0.8-0.1c0.1,0.3,0.2,0.6,0.3,0.9c-0.1-0.1-0.2-0.1-0.2-0.2c-0.5-0.3-1.9-0.6-2-0.2
			c-0.1,0.4,0.8,0.8,1.6,0.8c0.2,0,0.7-0.1,0.8-0.3c0.2,0.4,0.3,0.8,0.5,1.2c0,0.1,0.1,0.2,0.1,0.3c0.2,0.3,0.3,0.6,0.5,1
			c0,0,0,0,0,0c0,0-0.1-0.1-0.1-0.1c-0.5-0.4-1.9-0.8-2-0.4c-0.2,0.4,0.7,0.9,1.5,1c0.2,0,0.7-0.1,0.8-0.2c0.2,0.4,0.4,0.7,0.6,1.1
			c0,0-0.1-0.1-0.1-0.1c-0.5-0.4-1.9-0.8-2-0.4c-0.2,0.4,0.7,0.9,1.5,1c0.2,0,0.7-0.1,0.8-0.2c0.1,0.1,0.1,0.3,0.2,0.4
			c0.1,0.2,0.2,0.4,0.3,0.6c0,0-0.1-0.1-0.1-0.1c-0.5-0.3-1.9-0.6-2-0.2c-0.1,0.4,0.8,0.8,1.5,0.8c0.2,0,0.6-0.1,0.8-0.2
			c0.2,0.4,0.4,0.8,0.6,1.2c0,0-0.1-0.1-0.1-0.1c-0.5-0.4-1.9-0.8-2-0.4c-0.2,0.4,0.7,0.9,1.5,1c0.2,0,0.7-0.1,0.8-0.2
			c0.2,0.4,0.3,0.7,0.5,1.1c-0.5-0.4-1.9-0.8-2-0.4c-0.2,0.4,0.7,0.9,1.5,1c0.2,0,0.5,0,0.7-0.1c0.1,0.1,0.1,0.2,0.2,0.4
			c0.3,0.7,0.6,1.4,0.9,2.1c0.3,0.7,0.5,1.3,0.7,2c0.1,0.3,0.2,0.6,0.3,0.9c0,0.2,0.1,0.3,0.1,0.4c0,0.1,0.1,0.3,0.1,0.4
			c0.1,0.5,0.2,0.9,0.3,1.3c0-0.1-0.1-0.2-0.1-0.3c-0.1-0.3-0.2-0.5-0.3-0.8c-0.1-0.3-0.3-0.6-0.5-1c-0.2-0.3-0.4-0.7-0.6-1.1
			c-0.1-0.2-0.2-0.4-0.4-0.5c-0.1-0.2-0.2-0.4-0.4-0.5c-0.1-0.2-0.3-0.4-0.4-0.5l-0.5-0.5l-0.1-0.1c0,0,0,0-0.1-0.1l-0.1-0.1
			l-0.3-0.2c-0.2-0.1-0.3-0.3-0.5-0.4c-0.2-0.1-0.4-0.3-0.5-0.4c-0.2-0.1-0.4-0.2-0.6-0.3c-0.4-0.2-0.7-0.4-1.1-0.6
			c-0.4-0.2-0.7-0.3-1-0.4c-0.3-0.1-0.6-0.2-0.9-0.3c-0.3-0.1-0.5-0.2-0.7-0.2c-0.4-0.1-0.6-0.2-0.6-0.2s0.2,0.1,0.6,0.2
			c0.4,0.2,0.9,0.4,1.5,0.7c0.3,0.1,0.6,0.3,1,0.5c0.3,0.2,0.7,0.4,1,0.6c0.2,0.1,0.3,0.2,0.5,0.3c0.2,0.1,0.3,0.3,0.5,0.4
			c0.2,0.1,0.3,0.3,0.5,0.4l0.2,0.2l0.1,0.1c0,0,0,0,0.1,0.1l0.1,0.1l0.5,0.5c0.1,0.2,0.3,0.3,0.4,0.5c0.3,0.3,0.5,0.7,0.8,1
			c0.2,0.4,0.4,0.7,0.6,1c0.2,0.3,1.3,2.7,1.6,4.5c0,0.1,0.1,0.1,0.1,0.1c0,0,0.1,0,0.1,0c0,0,0-0.1,0-0.1c-0.1-0.7-0.2-1.4-0.3-2.1
			c0-0.1,0-0.2,0-0.2c-0.1-0.5-0.2-1-0.3-1.6c0-0.1-0.1-0.3-0.1-0.4c0-0.1-0.1-0.3-0.1-0.5c-0.1-0.3-0.2-0.6-0.3-1
			c-0.2-0.7-0.4-1.3-0.7-2c-0.2-0.7-0.6-1.4-0.9-2.1c-0.1-0.2-0.2-0.5-0.4-0.7c0.2-0.1,0.4-0.4,0.5-0.6c0.3-0.7,0.3-1.7-0.1-1.7
			c-0.4-0.1-0.7,1.2-0.7,1.8c-0.2-0.3-0.3-0.6-0.5-0.9c0,0-0.1-0.1-0.1-0.1c0.2-0.1,0.5-0.4,0.6-0.5c0.4-0.6,0.5-1.6,0-1.7
			c-0.4-0.1-0.8,1.2-0.8,1.8c0,0,0,0.1,0,0.1c-0.2-0.4-0.4-0.7-0.6-1.1c0.2,0,0.5-0.4,0.6-0.6c0.4-0.6,0.5-1.6,0-1.7
			c-0.4-0.1-0.8,1.2-0.8,1.8c0,0.1,0,0.1,0,0.2c-0.1-0.1-0.1-0.2-0.2-0.3c-0.2-0.3-0.3-0.5-0.5-0.8c0.2-0.1,0.5-0.4,0.6-0.5
			c0.4-0.6,0.6-1.6,0.2-1.7c-0.4-0.1-0.9,1.2-0.9,1.8c0,0,0,0.1,0,0.2c-0.2-0.3-0.4-0.6-0.5-0.9c0,0,0-0.1-0.1-0.1
			c0.2,0,0.5-0.3,0.7-0.5c0.5-0.6,0.7-1.5,0.3-1.7c-0.4-0.1-1,1.1-1.1,1.7c0,0.1,0,0.1,0,0.2c-0.1-0.2-0.2-0.4-0.3-0.6
			c-0.1-0.2-0.2-0.3-0.3-0.5c0.2,0,0.6-0.3,0.7-0.4c0.5-0.5,0.8-1.5,0.5-1.7c-0.3-0.2-1.1,1-1.2,1.6c0,0.1,0,0.2,0,0.2
			c0,0,0-0.1,0-0.1c-0.2-0.3-0.3-0.7-0.4-1c0.2,0,0.6-0.2,0.8-0.3c0.6-0.5,0.9-1.4,0.6-1.6c-0.3-0.2-1.2,0.9-1.3,1.5
			c0,0.1-0.1,0.2-0.1,0.3c-0.1-0.3-0.2-0.7-0.3-1c0.2,0,0.6-0.3,0.7-0.4c0.5-0.5,0.8-1.5,0.4-1.7c-0.3-0.2-1.1,1-1.2,1.6
			c0,0.1,0,0.1,0,0.2c-0.1-0.4-0.2-0.8-0.3-1.2c0.2,0,0.6-0.3,0.7-0.4c0.5-0.6,0.7-1.5,0.3-1.7c-0.4-0.2-1,1.1-1.1,1.7c0,0,0,0,0,0
			c-0.1-0.4-0.1-0.8-0.1-1.2c0,0,0,0,0,0c0.1,0,0.5-0.4,0.6-0.6c0.4-0.6,0.5-1.6,0-1.7c-0.3-0.1-0.7,0.9-0.8,1.5
			c-0.2-0.6-0.6-1.6-1-1.5c-0.4,0.1-0.2,1.1,0.2,1.7c0.1,0.1,0.4,0.4,0.6,0.5c0,0.4,0.1,0.7,0.1,1.1c0-0.1-0.1-0.2-0.1-0.2
			c-0.2-0.6-1.2-1.6-1.5-1.3c-0.3,0.3,0.2,1.1,0.8,1.6C-878.7,483.5-878.2,483.7-878,483.6C-878,483.7-878,483.6-878,483.6z"/>
		<path d="M-878.8,487.9c-0.1,0.4,0.8,0.8,1.6,0.8c0.2,0,0.7-0.1,0.8-0.3c0.1-0.1-0.2-0.2-0.3-0.3
			C-877.3,487.7-878.7,487.5-878.8,487.9z"/>
	</g>
	<g>
		<path d="M-897.5,515.8c0.1,0,0.2,0,0.2,0c0,0,0,0,0,0c0,0,0,0,0.1,0.1c0,0,0,0.1,0,0.1c0,0-0.6,0.4-2,0.8
			c-1.1,0.3-1.8,0.3-2.1,0.3c-0.1,0-0.1,0-0.1,0c0,0,0,0,0,0c0,0,0,0-0.1-0.1c0,0,0-0.1,0-0.1c0,0,0.6-0.4,2.1-0.8
			C-898.4,515.9-897.7,515.8-897.5,515.8 M-897.5,515.2c-0.3,0-1.1,0-2.2,0.3c-1.4,0.4-2.1,0.8-2.3,0.9c-0.1,0.1-0.2,0.1-0.2,0.2
			c-0.1,0.2-0.1,0.4-0.1,0.5c0.1,0.3,0.4,0.5,0.7,0.5h0c0,0,0.1,0,0.1,0c0.3,0,1.1,0,2.3-0.4c1.4-0.4,2-0.7,2.2-0.9
			c0.3-0.1,0.4-0.5,0.3-0.8c-0.1-0.3-0.3-0.5-0.7-0.5C-897.3,515.2-897.4,515.2-897.5,515.2L-897.5,515.2z"/>
		<path d="M-886.9,513c0.4,0,0.9,0,1.6,0.1c1.5,0.2,2.1,0.6,2.1,0.6c0,0,0,0,0,0.1c0,0,0,0.1-0.1,0.1c0,0,0,0,0,0c0,0-0.2,0-0.6,0
			c-0.4,0-0.9,0-1.6-0.1c-1.5-0.2-2.2-0.6-2.2-0.6c0,0,0,0,0-0.1c0,0,0-0.1,0.1-0.1c0,0,0,0,0,0C-887.5,513-887.4,513-886.9,513
			 M-886.9,512.4L-886.9,512.4c-0.4,0-0.6,0-0.7,0c-0.3,0-0.5,0.3-0.6,0.6c0,0.2,0,0.4,0.1,0.5c0.1,0.1,0.2,0.2,0.3,0.2
			c0.2,0.1,0.9,0.4,2.3,0.6c0.6,0.1,1.2,0.1,1.7,0.1c0.4,0,0.6,0,0.7,0c0.3,0,0.5-0.3,0.6-0.6c0.1-0.3-0.1-0.6-0.4-0.7
			c-0.2-0.1-0.9-0.4-2.3-0.6C-885.8,512.4-886.4,512.4-886.9,512.4L-886.9,512.4z"/>
		<path d="M-903.1,515.1C-903,515.1-903,515.2-903.1,515.1c0.1,0.1,0.1,0.2,0,0.2c0,0-0.5,0.4-2,0.9c-1.4,0.5-2.2,0.5-2.2,0.5
			c0,0,0,0,0,0c0,0,0,0,0,0c0,0,0,0-0.1-0.1c0,0,0-0.1,0-0.1c0,0,0.6-0.5,2-1C-903.9,515.1-903.2,515.1-903.1,515.1
			C-903.1,515.1-903.1,515.1-903.1,515.1C-903.1,515.1-903.1,515.1-903.1,515.1 M-903.1,514.5h-0.1l0,0c-0.3,0-1,0.1-2.2,0.5
			c-1.4,0.5-2,0.9-2.2,1c-0.1,0.1-0.2,0.1-0.2,0.3c-0.1,0.2-0.1,0.4,0,0.5c0.1,0.3,0.4,0.5,0.6,0.5h0.1l0,0c0.3,0,1.1-0.1,2.3-0.5
			c1.3-0.5,2-0.9,2.1-1c0.1-0.1,0.2-0.1,0.2-0.3c0.1-0.2,0.1-0.4,0-0.5C-902.5,514.7-902.8,514.5-903.1,514.5L-903.1,514.5z"/>
		<path d="M-873.3,510.1C-873.3,510.1-873.3,510.1-873.3,510.1c0,0,0.6,0.4,1.5,1.7c0.9,1.2,1,1.9,1,1.9c0,0,0,0.1,0,0.1
			c0,0,0,0-0.1,0c0,0,0,0,0,0c0,0-0.6-0.4-1.5-1.6c-0.9-1.2-1.1-1.9-1.1-1.9C-873.4,510.2-873.4,510.2-873.3,510.1
			C-873.4,510.1-873.3,510.1-873.3,510.1 M-873.3,509.5c-0.1,0-0.3,0-0.4,0.1c-0.3,0.2-0.4,0.5-0.3,0.8c0.1,0.2,0.3,0.9,1.1,2.1
			c0.8,1.2,1.4,1.6,1.6,1.7c0.1,0.1,0.3,0.1,0.4,0.1c0.1,0,0.3,0,0.4-0.1c0.3-0.2,0.4-0.5,0.3-0.8c-0.1-0.2-0.3-0.9-1.1-2
			c-0.8-1.2-1.4-1.7-1.6-1.8C-873,509.6-873.2,509.5-873.3,509.5L-873.3,509.5z"/>
		<path d="M-873.4,515.3c0.3,0,0.7,0,1.3,0.1c1.5,0.2,2.1,0.5,2.1,0.5c0,0,0,0,0,0.1c0,0,0,0.1-0.1,0.1c0,0,0,0,0,0
			c0,0-0.3,0.1-1,0.1c-0.3,0-0.7,0-1.2-0.1c-1.5-0.2-2.2-0.5-2.2-0.5c0,0,0,0,0-0.1c0,0,0-0.1,0.1-0.1c0,0,0,0,0,0
			C-874.4,515.3-874.1,515.3-873.4,515.3 M-873.4,514.7L-873.4,514.7c-0.6,0-1,0.1-1.1,0.1c-0.3,0-0.5,0.3-0.6,0.6
			c0,0.2,0,0.4,0.1,0.5c0.1,0.1,0.2,0.2,0.3,0.2c0.2,0.1,0.9,0.4,2.4,0.5c0.5,0,0.9,0.1,1.3,0.1c0.6,0,1-0.1,1.1-0.1
			c0.3,0,0.5-0.3,0.6-0.6c0-0.1,0-0.2,0-0.4c-0.1-0.2-0.2-0.3-0.4-0.4c-0.2-0.1-0.9-0.4-2.3-0.5C-872.6,514.7-873,514.7-873.4,514.7
			L-873.4,514.7z"/>
		<path d="M-882.7,512C-882.7,512-882.7,512-882.7,512c0,0,0.7,0.1,2.2,0.7c1.4,0.6,1.9,1.1,1.9,1.1c0,0,0,0.1,0,0.1
			c0,0,0,0.1-0.1,0.1c0,0,0,0,0,0c0,0-0.7,0-2.1-0.7c-1.4-0.6-1.9-1.2-1.9-1.2C-882.8,512.1-882.8,512.1-882.7,512
			C-882.8,512-882.8,512-882.7,512 M-882.7,511.4c-0.3,0-0.5,0.2-0.6,0.4c-0.1,0.2-0.1,0.4,0,0.5c0,0.1,0.1,0.2,0.2,0.3
			c0.2,0.1,0.8,0.6,2.1,1.2c1.3,0.6,2,0.7,2.3,0.7c0,0,0.1,0,0.1,0c0.3,0,0.5-0.2,0.6-0.4c0.1-0.2,0.1-0.4,0-0.5
			c0-0.1-0.1-0.2-0.2-0.3c-0.2-0.1-0.7-0.6-2-1.2c-1.3-0.6-2.1-0.7-2.3-0.8C-882.7,511.4-882.7,511.4-882.7,511.4L-882.7,511.4z"/>
		<path d="M-880.8,515C-880.7,515-880.7,515-880.8,515C-880.7,515-880.7,515-880.8,515c0.1,0,0.1,0,0.1,0.1c0,0,0,0.1,0,0.1
			c0,0-0.5,0.4-2,0.9c-1.3,0.4-2,0.4-2.2,0.4c0,0,0,0,0,0c0,0,0,0,0,0c0,0,0,0-0.1-0.1c0,0,0-0.1,0-0.1c0,0,0.6-0.4,2.1-0.9
			C-881.7,515.1-881,515-880.8,515 M-880.8,514.4C-880.8,514.4-880.8,514.4-880.8,514.4L-880.8,514.4L-880.8,514.4
			c-0.3,0-1.1,0.1-2.3,0.4c-1.4,0.4-2,0.8-2.2,1c-0.1,0.1-0.2,0.1-0.2,0.2c-0.1,0.2-0.1,0.4,0,0.5c0.1,0.3,0.4,0.5,0.7,0.5h0.1l0,0
			c0.3,0,1.1-0.1,2.3-0.4c1.3-0.4,2-0.8,2.2-0.9c0.3-0.2,0.4-0.5,0.3-0.8C-880.2,514.6-880.4,514.4-880.8,514.4L-880.8,514.4
			C-880.8,514.4-880.8,514.4-880.8,514.4L-880.8,514.4z"/>
		<path d="M-889.7,510.7C-889.7,510.7-889.7,510.7-889.7,510.7c0.1,0,0.1,0.1,0.1,0.1c0,0-0.1,0.7-1,1.9c-0.9,1.3-1.5,1.7-1.5,1.7
			c0,0,0,0,0,0c0,0,0,0-0.1,0c0,0-0.1-0.1,0-0.1c0,0,0.2-0.7,1-2C-890.3,511.2-889.8,510.8-889.7,510.7
			C-889.8,510.7-889.7,510.7-889.7,510.7 M-889.7,510.1L-889.7,510.1c-0.2,0-0.3,0.1-0.4,0.2c-0.2,0.1-0.8,0.6-1.5,1.8
			c-0.8,1.2-1.1,1.9-1.1,2.1c-0.1,0.2,0,0.3,0,0.5c0.1,0.1,0.1,0.2,0.2,0.3c0.1,0.1,0.3,0.1,0.4,0.1c0.2,0,0.3-0.1,0.4-0.2
			c0.2-0.1,0.8-0.6,1.6-1.8c0.8-1.1,1-1.9,1.1-2.1c0.1-0.3,0-0.6-0.3-0.8C-889.4,510.2-889.6,510.1-889.7,510.1L-889.7,510.1z"/>
		<path d="M-875.2,509.1C-875.2,509.1-875.2,509.1-875.2,509.1c0.1,0,0.1,0.1,0.1,0.1c0,0-0.2,0.7-1,2c-0.8,1.3-1.4,1.7-1.4,1.7
			c0,0,0,0,0,0c0,0,0,0-0.1,0c0,0-0.1-0.1,0-0.1c0,0,0.1-0.7,1-1.9C-875.9,509.6-875.3,509.2-875.2,509.1
			C-875.3,509.1-875.2,509.1-875.2,509.1 M-875.2,508.5c-0.2,0-0.3,0.1-0.4,0.2c-0.2,0.1-0.8,0.7-1.5,1.8c-0.8,1.2-1,1.9-1,2.1
			c0,0.1,0,0.2,0,0.3c0,0.2,0.2,0.3,0.3,0.4c0.1,0.1,0.3,0.1,0.4,0.1c0.2,0,0.3-0.1,0.4-0.2c0.2-0.1,0.7-0.6,1.5-1.8
			c0.8-1.2,1-1.9,1.1-2.1c0.1-0.3,0-0.6-0.3-0.8C-875,508.6-875.1,508.5-875.2,508.5L-875.2,508.5z"/>
		<path d="M-895.7,512.6C-895.7,512.6-895.7,512.6-895.7,512.6c0,0,0.5,0.5,1.1,2c0.6,1.4,0.6,2.1,0.6,2.1c0,0,0,0.1-0.1,0.1
			c0,0,0,0-0.1,0c0,0,0,0,0,0c0,0-0.5-0.5-1.1-1.9c-0.6-1.4-0.6-2.1-0.6-2.1C-895.8,512.7-895.8,512.6-895.7,512.6
			C-895.7,512.6-895.7,512.6-895.7,512.6 M-895.7,512c-0.1,0-0.2,0-0.3,0.1c-0.2,0.1-0.3,0.2-0.4,0.4c0,0.1-0.1,0.2,0,0.3
			c0,0.2,0.1,1,0.7,2.3c0.6,1.3,1,1.9,1.2,2c0.1,0.2,0.3,0.2,0.5,0.2c0.1,0,0.2,0,0.3-0.1c0.3-0.1,0.5-0.4,0.4-0.7
			c0-0.2-0.1-1-0.7-2.2c-0.6-1.3-1-1.9-1.2-2.1C-895.3,512.1-895.5,512-895.7,512L-895.7,512z"/>
		<path d="M-901.5,513.2c0.2,0,0.4,0,0.6,0c1.5,0.1,2.2,0.4,2.2,0.4c0,0,0,0,0,0.1c0,0,0,0.1,0,0.1c0,0,0,0,0,0c0,0-0.5,0.2-1.6,0.2
			c-0.2,0-0.4,0-0.6,0c-1.5-0.1-2.2-0.4-2.2-0.4c0,0,0,0,0-0.1c0,0,0-0.1,0-0.1c0,0,0,0,0,0C-903,513.3-902.6,513.2-901.5,513.2
			 M-901.5,512.6c-1,0-1.6,0.1-1.7,0.2c-0.3,0.1-0.5,0.3-0.5,0.7c0,0.3,0.2,0.6,0.5,0.7c0.2,0.1,0.9,0.3,2.3,0.4c0.2,0,0.5,0,0.7,0
			c1,0,1.6-0.1,1.7-0.2c0.3-0.1,0.5-0.3,0.5-0.6c0-0.3-0.2-0.6-0.5-0.7c-0.2-0.1-1-0.3-2.4-0.4C-901,512.6-901.3,512.6-901.5,512.6
			L-901.5,512.6z"/>
		<path d="M-875.1,507.3C-875.1,507.3-875,507.4-875.1,507.3c0.1,0.1,0.1,0.1,0.1,0.2c0,0-0.5,0.5-2,1c-1.4,0.5-2.1,0.5-2.1,0.5
			c0,0,0,0,0,0c0,0,0,0-0.1-0.1c0,0,0-0.1,0-0.1c0,0,0.5-0.5,1.9-1C-875.8,507.4-875.1,507.3-875.1,507.3
			C-875.1,507.3-875.1,507.3-875.1,507.3 M-875.1,506.7h-0.1l0,0c-0.3,0-1,0.1-2.3,0.6c-1.3,0.5-1.9,1-2.1,1.1
			c-0.1,0.1-0.2,0.2-0.2,0.3c-0.1,0.2-0.1,0.4,0,0.5c0.1,0.3,0.4,0.4,0.6,0.4h0.1l0,0c0.3,0,1-0.1,2.2-0.6c1.3-0.5,2-1,2.1-1.1
			c0.2-0.2,0.3-0.5,0.2-0.8C-874.6,506.9-874.8,506.7-875.1,506.7L-875.1,506.7z"/>
		<path d="M-888.3,515.4c1.4,0,2,0.2,2,0.2s0,0,0,0c0,0,0,0,0,0.1c0,0,0,0.1,0,0.1c0,0-0.6,0.3-2.2,0.3c-0.1,0-0.1,0-0.2,0
			c-1.4,0-2.1-0.2-2.1-0.2c0,0,0,0,0,0c0,0,0,0,0-0.1c0,0,0-0.1,0-0.1c0,0,0.7-0.3,2.2-0.3C-888.4,515.4-888.3,515.4-888.3,515.4
			 M-888.3,514.8c-0.1,0-0.1,0-0.2,0c-1.4,0-2.2,0.2-2.4,0.3c-0.1,0-0.2,0.1-0.3,0.2c-0.1,0.1-0.2,0.3-0.2,0.5
			c0,0.3,0.2,0.6,0.5,0.7c0.2,0.1,0.9,0.2,2.2,0.2c0.1,0,0.1,0,0.2,0c1.4,0,2.1-0.2,2.4-0.3c0.1,0,0.2-0.1,0.3-0.2
			c0.1-0.1,0.2-0.3,0.2-0.5c0-0.3-0.2-0.6-0.5-0.7C-886.3,515-887,514.8-888.3,514.8L-888.3,514.8z"/>
		<path d="M-877.7,516.1C-877.7,516.1-877.6,516.1-877.7,516.1c1.6,0,2.2,0.3,2.2,0.3c0,0,0,0,0,0.1c0,0,0,0.1,0,0.1l0,0
			c0,0-0.6,0.2-2.1,0.2c0,0,0,0,0,0c-1.5,0-2.2-0.3-2.2-0.3c0,0,0,0,0-0.1c0,0,0-0.1,0-0.1c0,0,0,0,0,0S-879.2,516.1-877.7,516.1
			 M-877.7,515.5L-877.7,515.5c-1.4,0-2.2,0.2-2.4,0.3c-0.3,0.1-0.5,0.3-0.5,0.7c0,0.2,0.1,0.4,0.2,0.5c0.1,0.1,0.2,0.1,0.3,0.2
			c0.2,0.1,1,0.3,2.4,0.3h0c1.4,0,2.1-0.2,2.3-0.3c0.3-0.1,0.5-0.3,0.5-0.7c0-0.1,0-0.2-0.1-0.3c-0.1-0.2-0.2-0.3-0.4-0.3
			C-875.5,515.7-876.2,515.5-877.7,515.5L-877.7,515.5L-877.7,515.5z"/>
		<path d="M-873.5,513.2C-873.5,513.2-873.5,513.2-873.5,513.2c0.1,0.1,0.1,0.1,0.1,0.2c0,0-0.5,0.5-1.9,1c-1.4,0.6-2.2,0.6-2.2,0.6
			c0,0,0,0,0,0c0,0,0,0-0.1-0.1c0,0,0-0.1,0-0.1c0,0,0.5-0.5,2-1C-874.2,513.2-873.5,513.2-873.5,513.2
			C-873.5,513.2-873.5,513.2-873.5,513.2 M-873.5,512.6h-0.1l0,0c-0.3,0-1,0.1-2.2,0.6c-1.3,0.5-2,1-2.1,1.1
			c-0.1,0.1-0.2,0.2-0.2,0.3c-0.1,0.2-0.1,0.4,0,0.5c0.1,0.3,0.4,0.4,0.6,0.4h0.1l0,0c0.3,0,1-0.1,2.3-0.6c1.3-0.5,1.9-1,2.1-1.1
			c0.1-0.1,0.2-0.2,0.2-0.3c0.1-0.2,0.1-0.4,0-0.5C-873,512.8-873.2,512.6-873.5,512.6L-873.5,512.6z"/>
	</g>
</g>
</svg>
