<?xml version="1.0" encoding="utf-8"?>
<!-- Generator: Adobe Illustrator 19.0.0, SVG Export Plug-In . SVG Version: 6.00 Build 0)  -->
<svg version="1.1" id="Layer_1" xmlns="http://www.w3.org/2000/svg" xmlns:xlink="http://www.w3.org/1999/xlink" x="0px" y="0px"
	 viewBox="-703 221 40 40" style="enable-background:new -703 221 40 40;" xml:space="preserve">
<title>Fruits 3</title>
<path d="M-669.6,239.3c1-1.1,1.4-2.6,1.1-4.1c-0.1-0.3-0.3-0.4-0.6-0.4c-0.1,0-0.2,0.1-0.3,0.2l0,0c-0.3-1-0.7-2-1.3-2.9
	c-1.2-1.9-3.2-3.5-5.5-4.4c-2.3-0.9-4.6-1.1-6.7-0.5c-0.1-0.1-0.2-0.2-0.3-0.2c1.6-0.7,2.5-2.2,2.5-4c0-0.3,0.1-1.1,0.1-1.4
	c0-0.3-0.2-0.5-0.4-0.5c-0.1,0-0.1,0-0.2,0c-0.3,0.1-1.1,0.4-1.4,0.4c-1.4,0.3-2.5,1.1-3.2,2.2c0-0.8,0.2-1.5,0.4-2.2
	c0.1-0.2,0-0.5-0.3-0.6c-0.2-0.1-0.5,0-0.6,0.2c0,0,0,0,0,0c-0.4,0.9-0.5,1.8-0.5,2.7c-1.3-1.3-3.3-1.9-5.4-1.5
	c-0.4,0.1-1.5,0.1-1.9,0.2c-0.3,0-0.5,0.2-0.5,0.5c0,0.1,0,0.1,0.1,0.2c0.2,0.3,0.7,1.3,0.9,1.6c1,2.3,2.9,3.5,5.2,3.5
	c0.6,0,1.2-0.1,1.8-0.3l0.1,0c-0.1,0.1-0.1,0.2-0.2,0.3c-0.2,0.4-0.2,0.8-0.1,1.1c-1.2,1.3-2,3-2.3,4.9c-0.3,1.9-0.2,3.8,0.4,5.5
	c-0.2,0.2-0.4,0.5-0.6,0.7c-0.3-1-0.9-2.1-1.5-3.3c-0.8-1.6-1.7-3.3-1.7-4.3c0-0.7-0.6-1.3-1.4-1.3c-0.8,0-1.4,0.6-1.4,1.3
	c0,0.7,0.3,1.6,0.8,2.6c-1.1-0.5-2.4-0.6-3.9-0.3l-0.8,0.2c-0.2,0-0.4,0.2-0.5,0.4c-0.1,0.2-0.1,0.4,0,0.6l0.3,0.8
	c0.2,0.5,0.5,1,0.9,1.5c-3.1,1.6-4.5,5.4-4.5,8.7c0,2.6,1.2,5.9,3.3,8.7c2.1,2.9,4.4,4.6,6.2,4.6c1,0,2-0.6,2.6-0.9
	c0.3-0.2,1.1-0.1,1.3,0c0.7,0.4,1.6,0.9,2.6,0.9c1.7,0,3.5-1,5.2-2.9c1.8,1.5,4,2.5,6.1,2.8c0.5,0.1,0.9,0.1,1.4,0.1
	c2.3,0,4.5-0.7,6.4-2c1.9-1.3,4.2-3.6,4.8-7.9c0.5-3.8-0.7-6.6-1.8-8.2C-666.1,241.2-667.8,239.9-669.6,239.3z M-682.4,222.6
	c0.2,0,0.5-0.1,0.8-0.2c0,0.3-0.1,0.6-0.1,0.7c0,1.9-1.2,3.3-3.2,3.5l-0.4,0c0,0,0,0,0,0c0,0,0,0,0,0l0-0.4
	C-685.5,224.6-684.3,223.1-682.4,222.6z M-686.9,227.4c-2.5,0.7-4.8-0.4-5.8-2.8c-0.1-0.2-0.3-0.7-0.5-1c0.5,0,1-0.1,1.3-0.1
	c2.5-0.4,4.8,0.8,5.6,2.9c0,0.1,0.1,0.2,0.1,0.4l0.1,0.3c0,0.1,0,0.2-0.1,0.2L-686.9,227.4z M-685.8,230.2c0.2-0.2,0.2-0.4,0.1-0.6
	c-0.1-0.2-0.1-0.5,0-0.6c0.1-0.3,0.3-0.5,0.6-0.7c0,0,0,0,0,0c0,0,0.1,0,0.1-0.1c0.3-0.2,0.6-0.2,0.9-0.2c0.2,0,0.4,0.1,0.6,0.3
	c0.1,0.2,0.4,0.3,0.6,0.2c3.9-1.3,9,0.7,11.4,4.4c0.3,0.5,0.6,1,0.8,1.5c-0.2-0.2-0.5-0.2-0.7,0c0,0-0.1,0.1-0.1,0.1
	c-0.2,0.5-0.4,1-0.7,1.4c-0.1-0.6-0.2-1.2-0.4-1.8c-0.1-0.3-0.4-0.4-0.6-0.3c-0.1,0-0.2,0.1-0.3,0.2l-0.7,1.4
	c-0.4-0.7-0.8-1.3-1.4-1.9c-0.2-0.2-0.5-0.2-0.7,0c-0.1,0.1-0.1,0.2-0.1,0.3c0,0.1,0.1,2.8,0.4,4.5c-1.7,0-3.5,0.5-5,1.4
	c-0.7-0.6-1.6-1.1-2.5-1.3c-1.8-0.5-3.2,0.2-4.3,1C-688.7,236.1-687.9,232.4-685.8,230.2L-685.8,230.2z M-694.2,233.3
	c0-0.2,0.2-0.4,0.4-0.4c0.2,0,0.4,0.2,0.4,0.4c0,1.2,0.9,2.9,1.8,4.7c0.7,1.4,1.4,2.8,1.6,3.7c-0.1,0-0.1,0-0.2,0
	c-0.2,0-0.4,0-0.6-0.1c-0.1-1-0.8-2.4-1.6-3.8c0,0,0-0.1-0.1-0.1c0,0-0.1-0.1-0.1-0.1l0,0C-693.3,235.9-694.2,234.2-694.2,233.3z
	 M-698.7,236.6l0.6-0.1c2-0.4,3.8,0.1,4.8,1.5c0.4,0.7,0.7,1.4,1,2c-1.1-1.1-2.6-2.1-4.8-1.6c-0.2,0-0.3,0.1-0.5,0.1
	c-0.4-0.4-0.7-0.9-0.9-1.4L-698.7,236.6z M-687,260c-0.7,0-1.4-0.4-2-0.7c-0.5-0.3-1.6-0.4-2.3,0c-0.6,0.4-1.3,0.8-2,0.8
	c-1.5,0-3.6-1.6-5.4-4.2c-1.9-2.7-3.1-5.8-3.1-8.2c0-1.7,0.4-3.6,1.2-5c0.9-1.8,2.3-2.9,4-3.3c2.2-0.6,3.5,0.9,4.6,2.1
	c0.2,0.2,0.4,0.4,0.6,0.6c0,0,0.1,0.1,0.1,0.1c0,0,0,0,0,0c0.4,0.3,0.9,0.5,1.5,0.4c0.3,0,0.6-0.1,0.8-0.3l0,0c0,0,0,0,0,0
	c0,0,0,0,0.1,0c0.1-0.1,0.2-0.2,0.3-0.3l0,0c0.3-0.5,0.7-0.9,1.1-1.3c0,0,0,0,0.1-0.1c0.9-0.9,2.2-1.7,3.9-1.2
	c0.7,0.2,1.4,0.5,1.9,1c-0.1,0.1-0.2,0.1-0.3,0.2c-2.1,1.7-3.5,4.3-3.9,7.6c-0.5,3.2,0.6,6.4,2.8,8.9c0.2,0.2,0.3,0.4,0.5,0.5
	C-684.1,259.1-685.7,260-687,260z M-664.1,251c-0.6,3.9-2.7,6.1-4.4,7.3c-2.1,1.4-4.7,2-7.2,1.7c-2.1-0.3-4.2-1.3-5.9-2.9l0,0
	c-0.3-0.3-0.5-0.5-0.8-0.8c-1.5-1.6-3.1-4.3-2.6-8.1c0.9-6.6,5.4-8.9,9.1-8.9c0.2,0,0.3,0,0.5,0c0.3,0,0.5-0.2,0.5-0.4
	c0-0.1,0-0.1,0-0.2c-0.3-0.8-0.4-2.3-0.5-3.4c0.3,0.4,0.5,0.9,0.7,1.4c0.1,0.3,0.4,0.4,0.6,0.3c0.1,0,0.2-0.1,0.3-0.2l0.6-1.1
	c0.1,0.6,0.1,1.1,0.1,1.7c0,0.5,0.4,0.6,0.4,0.6c0.5,0.1,0.7-0.3,1.4-1.6c0-0.1,0.1-0.2,0.1-0.3c0.1,0.5,0.2,1,0.1,1.4
	c-0.1,0.3,0.1,0.5,0.4,0.6c0.2,0,0.4,0,0.5-0.2l0.8-1c-0.1,0.7-0.5,1.6-1.4,2.4c-0.1,0.1-0.2,0.2-0.2,0.4c0,0.2,0.1,0.5,0.4,0.5
	c1.8,0.4,3.7,1.7,4.9,3.4C-664.7,244.9-663.6,247.4-664.1,251z"/>
<path d="M-425,621.6c-4-9.5-6.9-19.4-8.6-29.6c-0.5-3.3-3.6-5.5-6.9-4.9c-3.3,0.5-5.5,3.6-4.9,6.9c0,0,0,0,0,0
	c1.9,11.1,5,21.9,9.4,32.3c1.7,3.9,3.5,7.7,5.5,11.3c1.6,2.9,5.2,4,8.1,2.4c2.9-1.6,4-5.2,2.4-8.1l0,0
	C-421.8,628.6-423.4,625.2-425,621.6z"/>
<path d="M-407.9,649.9c-2.1-2.5-5.9-2.9-8.5-0.7c-2.5,2.1-2.8,5.8-0.8,8.4c1.8,2.2,3.7,4.3,5.6,6.3c2.3,2.4,6.1,2.4,8.5,0.1
	c2.3-2.3,2.4-6,0.2-8.4C-404.6,653.7-406.3,651.8-407.9,649.9z"/>
<path d="M-594,671.5c-1.7-2.3-3.4-4.8-5-7.2c-1.8-2.8-5.6-3.5-8.3-1.7c-2.8,1.8-3.5,5.6-1.7,8.3c0,0,0,0.1,0.1,0.1
	c1.7,2.5,3.5,5,5.3,7.5c1.8,2.5,3.7,5,5.6,7.5c2,2.6,5.8,3.1,8.4,1.1c2.6-2,3.1-5.8,1.1-8.4C-590.4,676.4-592.2,673.9-594,671.5z"/>
<path d="M-621.7,623.9c-6.6-15.2-10.9-29.7-12.6-43.2c-0.4-3.3-3.4-5.6-6.7-5.2s-5.6,3.4-5.2,6.7c1.8,14.6,6.4,30.3,13.5,46.5
	c2.3,5.3,4.9,10.6,7.7,16c1.6,2.9,5.2,4,8.2,2.4c2.8-1.6,3.9-5.1,2.5-8C-617,634-619.5,628.9-621.7,623.9z"/>
</svg>
