<?xml version="1.0" encoding="utf-8"?>
<!-- Generator: Adobe Illustrator 19.0.0, SVG Export Plug-In . SVG Version: 6.00 Build 0)  -->
<svg version="1.1" id="Layer_1" xmlns="http://www.w3.org/2000/svg" xmlns:xlink="http://www.w3.org/1999/xlink" x="0px" y="0px"
	 viewBox="-927 501 40 40" style="enable-background:new -927 501 40 40;" xml:space="preserve">
<path d="M-888.1,517.9h-11.2c1.4-1.7,0.8-3.9,0.2-4.9c-0.3-0.6-0.3-1.2-0.3-1.8l4.6,0.9c0.1,0,0.1,0,0.1,0c0.3,0,0.6-0.2,0.6-0.5
	c0.1-0.3-0.1-0.7-0.5-0.8l-4.7-0.9c0.2-0.8,0.5-1.3,0.7-1.7l4,0.8c0.1,0,0.1,0,0.1,0c0.3,0,0.6-0.2,0.6-0.5c0.1-0.3-0.1-0.7-0.5-0.8
	l-31.5-6.2c-0.3-0.1-0.7,0.2-0.8,0.5c-0.1,0.3,0.2,0.7,0.5,0.8l21.2,4.2c-0.2,0.4-0.4,1-0.6,1.7l-20.1-4c-0.3-0.1-0.6,0.2-0.8,0.5
	c-0.1,0.3,0.2,0.7,0.5,0.8l20.1,4c-0.1,0.8,0,1.6,0.4,2.5c0,0.1,0,0.1,0.1,0.1c0,0,1.3,2.2-0.3,3.6c-0.3,0.3-0.3,0.6,0,0.9
	c0.1,0.1,0.3,0.2,0.4,0.2c0.1,0,0.3-0.1,0.4-0.2c1.8-1.7,1.1-4.1,0.5-5.2c-0.3-0.6-0.3-1.2-0.3-1.8l1.2,0.3c-0.1,0.8,0,1.7,0.4,2.6
	c0,0.1,0,0.1,0.1,0.1s1.3,2.2-0.3,3.6c-0.3,0.3-0.3,0.6,0,0.9c0.1,0.1,0.2,0.1,0.3,0.2h-23.2c-0.4,0-0.6,0.3-0.6,0.6v2.5
	c0,6.8,3.6,13.1,9.4,16.7v2.2c0,0.4,0.3,0.6,0.6,0.6h18.9c0.4,0,0.6-0.3,0.6-0.6v-2.2c5.9-3.5,9.4-9.9,9.4-16.7v-2.5
	C-887.5,518.1-887.7,517.9-888.1,517.9z M-900.5,509.7l-1.3-0.3c0.2-0.8,0.5-1.3,0.7-1.6l1.2,0.3C-900,508.4-900.3,509-900.5,509.7z
	 M-904.2,508.9c0.2-0.8,0.5-1.3,0.7-1.7l1.2,0.3c-0.3,0.4-0.5,1-0.7,1.7L-904.2,508.9z M-902.2,517.7c1.8-1.7,1.1-4.1,0.5-5.2
	c-0.3-0.6-0.3-1.3-0.3-1.9l1.3,0.3c-0.1,0.8,0,1.7,0.4,2.6c0,0.1,0,0.1,0.1,0.1c0,0,1.3,2.2-0.3,3.6c-0.2,0.2-0.3,0.4-0.2,0.6h-1.8
	C-902.3,517.9-902.3,517.8-902.2,517.7z M-925.2,519.1h36.5v1.3h-36.5V519.1z M-897.9,536.8c-0.2,0.1-0.3,0.3-0.3,0.6v1.9h-17.6
	v-1.9c0-0.3-0.1-0.4-0.3-0.6c-5.5-3.1-8.9-8.9-9.1-15.2h36.5C-889,527.9-892.4,533.7-897.9,536.8z"/>
</svg>
