<svg xmlns="http://www.w3.org/2000/svg" width="31" height="33" viewBox="0 0 31 33">
    <path fill="#4A4A4A" fill-rule="nonzero" d="M21.55 0c5.042 0 9.144 4.322 9.144 9.635v13.072c0 5.313-4.102 9.635-9.144 9.635H9.144C4.102 32.342 0 28.02 0 22.707V9.635C0 4.322 4.102 0 9.144 0H21.55zm6.056 22.707V9.635c0-3.524-2.711-6.381-6.056-6.381H9.144c-3.345 0-6.056 2.857-6.056 6.38v13.073c0 3.524 2.711 6.381 6.056 6.381H21.55c3.345 0 6.056-2.857 6.056-6.38zm-12.259-14.9c4.377 0 7.938 3.752 7.938 8.364 0 4.612-3.56 8.365-7.938 8.365-4.377 0-7.939-3.753-7.939-8.365s3.562-8.365 7.939-8.365zm0 13.475c2.679 0 4.85-2.288 4.85-5.11 0-2.824-2.171-5.112-4.85-5.112s-4.85 2.288-4.85 5.111 2.17 5.111 4.85 5.111zm7.954-11.409c-1.05 0-1.902-.897-1.902-2.004s.851-2.004 1.902-2.004c1.05 0 1.902.897 1.902 2.004s-.852 2.004-1.902 2.004z"/>
</svg>
