<?xml version="1.0" encoding="utf-8"?>
<!-- Generator: Adobe Illustrator 19.0.0, SVG Export Plug-In . SVG Version: 6.00 Build 0)  -->
<svg version="1.1" id="Layer_1" xmlns="http://www.w3.org/2000/svg" xmlns:xlink="http://www.w3.org/1999/xlink" x="0px" y="0px"
	 viewBox="-927 501 40 40" style="enable-background:new -927 501 40 40;" xml:space="preserve">
<g>
	<path d="M-889.4,502.2C-889.4,502.1-889.4,502.1-889.4,502.2C-889.4,502.1-889.4,502.1-889.4,502.2c-0.1-0.1-0.2-0.1-0.2-0.1
		c0,0,0,0,0,0h-13.2c-4,0-7.4,2.8-8.2,6.8l-0.1,0.3c-0.2,1.1-0.2,2.1,0,3.2c0.3,1.6,1.1,3,2.2,4.2c0.2,0.9,0.6,1.8,1.3,2.5l-3.3,3.3
		c-0.3,0.3-0.5,0.8-0.5,1.2v0.1c0,0.9,0.8,1.7,1.7,1.7c0.5,0,1-0.2,1.4-0.7l3.3-4.2c0.4,0.1,0.8,0.1,1.2,0.1h15.8c0,0,0.1,0,0.1,0
		c0,0,0,0,0,0c0,0,0,0,0,0c0,0,0,0,0.1,0c0,0,0,0,0,0c0,0,0,0,0,0c0,0,0,0,0-0.1c0,0,0,0,0,0c0,0,0,0,0,0c0,0,0,0,0-0.1
		c0,0,0,0,0-0.1c0,0,0,0,0,0v-16.6c0-0.1-0.1-0.2-0.2-0.3L-889.4,502.2z M-888.4,519.3l-0.8-0.8v-15.2l0.8,0.6V519.3z M-910.2,509.3
		l0.1-0.3c0.7-3.6,3.8-6.1,7.4-6.1h12.8v15.4h-12.8c-0.1,0-0.2,0-0.3,0c0,0,0,0-0.1,0l0,0l2-0.6c0.5-0.1,0.9-0.4,1.2-0.7l1.2-1.2
		c0.2,0.1,0.4,0.3,0.6,0.4c0.6,0.4,1.2,0.8,2.2,1c0.2,0,0.3,0,0.5,0c1.9,0,3.9-1.2,4.3-2.7c0.2-0.8,0-1.3-0.3-1.8
		c-0.2-0.5-0.5-1-0.5-1.9c0-1,0.3-1.7,0.5-2.3c0.3-0.7,0.6-1.3,0.2-2.1c-0.6-1.5-2.6-2.1-3.5-2.2c-1.2-0.2-1.9,0-2.6,0.3
		c-0.6,0.2-1.4,0.5-2.6,0.5c-0.9,0-1.5-0.1-2-0.2c-0.7-0.2-1.3-0.3-2.4-0.1c-0.8,0.1-3,0.4-3.5,1.8c-0.2,0.7,0,1.1,0.3,1.6
		c0.2,0.5,0.5,0.9,0.5,1.6c0,0.6-0.2,1-0.4,1.3c-0.2,0.4-0.5,0.9-0.3,1.6c0.1,0.5,0.3,0.7,1.8,1.9l0.9,0.7c0.3,0.3,0.6,0.5,0.8,0.7
		l-0.7,0.7l-1.1,1.1c-0.1,0-0.2-0.1-0.3-0.1c-0.1,0-0.2-0.1-0.3-0.1c-0.1-0.1-0.3-0.1-0.4-0.2c-0.1,0-0.1-0.1-0.2-0.1
		c-0.2-0.1-0.3-0.2-0.5-0.3c0,0-0.1-0.1-0.1-0.1c-0.2-0.1-0.3-0.3-0.5-0.4c-1-1-1.8-2.4-2.1-3.9
		C-910.4,511.2-910.4,510.3-910.2,509.3z M-906.7,507.6c-0.2-0.4-0.4-0.7-0.3-1c0.2-0.6,1.2-1.1,2.8-1.3c1-0.1,1.5,0,2.1,0.1
		c0.5,0.1,1.2,0.3,2.2,0.3c1.3,0,2.1-0.3,2.8-0.5c0.7-0.2,1.3-0.4,2.2-0.3c0.6,0.1,2.4,0.5,2.9,1.7c0.2,0.5,0,0.9-0.2,1.5
		c-0.3,0.6-0.6,1.5-0.6,2.7c0,1,0.3,1.7,0.6,2.2c0.2,0.5,0.4,0.8,0.2,1.2c-0.4,1.3-2.3,2.3-3.9,2.1c-0.8-0.1-1.3-0.4-1.8-0.8
		c-0.2-0.1-0.3-0.2-0.5-0.3l2.3-2.3c0.5-0.5,0.8-1.3,0.8-2.1c0-0.8-0.4-1.5-1-2l-0.4-0.3c-0.2-0.1-0.4-0.1-0.5,0l-6.7,6.7
		c-0.2-0.2-0.5-0.4-0.9-0.7l-0.9-0.7c-1.3-1.1-1.5-1.2-1.5-1.5c-0.1-0.4,0-0.6,0.3-1c0.2-0.4,0.5-0.9,0.5-1.7
		C-906.1,508.7-906.4,508-906.7,507.6z M-896.7,509.3L-896.7,509.3c0.5,0.4,0.8,0.9,0.8,1.5c0,0.6-0.2,1.1-0.6,1.5l-2.6,2.6
		l-1.4,1.4c-0.2,0.2-0.5,0.4-0.9,0.5l-1.9,0.6l-0.7-0.7L-896.7,509.3z M-907.6,517.5c0,0,0.1,0.1,0.1,0.1c0,0,0.1,0.1,0.2,0.1
		c0.1,0.1,0.2,0.1,0.3,0.2c0,0,0.1,0,0.1,0c0.1,0.1,0.2,0.1,0.3,0.2l-0.3,0.3C-907.2,518.2-907.4,517.9-907.6,517.5z M-908.9,524.2
		c-0.2,0.2-0.4,0.4-0.7,0.4c-0.5,0-0.9-0.4-0.9-0.9v-0.1c0-0.2,0.1-0.5,0.3-0.7l3.6-3.6l1-1l0,0l1.1-1.1l0.7,0.7l-0.3,0.4
		c0,0,0,0,0,0l-1.1,1.5c0,0,0,0,0,0L-908.9,524.2z M-903.8,519.8c-0.2,0-0.4,0-0.6,0l0.6-0.8c0.1,0,0.1,0,0.2,0c0.1,0,0.2,0,0.3,0
		c0.2,0,0.3,0,0.5,0h13.1l0.8,0.8H-903.8z"/>
	<rect x="-904.2" y="506.8" width="0.8" height="0.8"/>
	<rect x="-902.6" y="506.8" width="3.2" height="0.8"/>
	<rect x="-905" y="509.6" width="0.8" height="0.8"/>
	<rect x="-903.4" y="509.6" width="3.2" height="0.8"/>
	<path d="M-894.4,511.9c-0.2,1-0.8,1.5-1,1.7l0.5,0.6c0.4-0.3,1.1-1,1.3-2.2c0.3-1.3-0.2-2.3-0.4-2.6l-0.7,0.4
		C-894.6,510.1-894.2,510.9-894.4,511.9z"/>
</g>
<g>
	<path d="M-922.3,509.7c-0.9,0-1.6,0.7-1.6,1.6c0,0.9,0.7,1.6,1.6,1.6s1.6-0.7,1.6-1.6C-920.7,510.4-921.4,509.7-922.3,509.7z
		 M-922.3,512.3c-0.5,0-1-0.4-1-1c0-0.5,0.4-1,1-1c0.5,0,1,0.4,1,1C-921.3,511.9-921.7,512.3-922.3,512.3z"/>
	<path d="M-915.8,511c-0.7,0-1.3,0.6-1.3,1.3s0.6,1.3,1.3,1.3c0.7,0,1.3-0.6,1.3-1.3S-915.1,511-915.8,511z M-915.8,512.9
		c-0.4,0-0.6-0.3-0.6-0.6c0-0.4,0.3-0.6,0.6-0.6c0.4,0,0.6,0.3,0.6,0.6C-915.2,512.6-915.5,512.9-915.8,512.9z"/>
	<path d="M-918.4,514.2c0-0.5-0.4-1-1-1c-0.5,0-1,0.4-1,1c0,0.5,0.4,1,1,1C-918.8,515.2-918.4,514.7-918.4,514.2z M-919.7,514.2
		c0-0.2,0.1-0.3,0.3-0.3c0.2,0,0.3,0.1,0.3,0.3c0,0.2-0.1,0.3-0.3,0.3C-919.5,514.5-919.7,514.4-919.7,514.2z"/>
	<path d="M-922.3,515.8c-0.7,0-1.3,0.6-1.3,1.3s0.6,1.3,1.3,1.3c0.7,0,1.3-0.6,1.3-1.3S-921.6,515.8-922.3,515.8z M-922.3,517.8
		c-0.4,0-0.6-0.3-0.6-0.6c0-0.4,0.3-0.6,0.6-0.6c0.4,0,0.6,0.3,0.6,0.6C-921.6,517.5-921.9,517.8-922.3,517.8z"/>
	<path d="M-915.8,515.8c-0.5,0-1,0.4-1,1c0,0.5,0.4,1,1,1c0.5,0,1-0.4,1-1C-914.9,516.3-915.3,515.8-915.8,515.8z M-915.8,517.1
		c-0.2,0-0.3-0.1-0.3-0.3c0-0.2,0.1-0.3,0.3-0.3c0.2,0,0.3,0.1,0.3,0.3C-915.5,517-915.7,517.1-915.8,517.1z"/>
	<path d="M-919.6,511.4l0.8,0.4c0,0,0.1,0,0.1,0c0.1,0,0.2-0.1,0.3-0.2c0.1-0.2,0-0.4-0.1-0.4l-0.8-0.4c-0.2-0.1-0.4,0-0.4,0.1
		C-919.8,511.1-919.8,511.3-919.6,511.4z"/>
	<path d="M-916.5,515.2c0.1,0,0.2,0,0.2-0.1c0.1-0.1,0.1-0.3,0-0.5l-0.6-0.6c-0.1-0.1-0.3-0.1-0.5,0c-0.1,0.1-0.1,0.3,0,0.5l0.6,0.6
		C-916.6,515.2-916.6,515.2-916.5,515.2z"/>
	<path d="M-918.7,517l-0.9,0.3c-0.2,0.1-0.3,0.2-0.2,0.4c0,0.1,0.2,0.2,0.3,0.2c0,0,0.1,0,0.1,0l0.9-0.3c0.2-0.1,0.3-0.2,0.2-0.4
		S-918.6,516.9-918.7,517z"/>
	<path d="M-923.3,514.8l0.6-0.6c0.1-0.1,0.1-0.3,0-0.5c-0.1-0.1-0.3-0.1-0.5,0l-0.6,0.6c-0.1,0.1-0.1,0.3,0,0.5
		c0.1,0.1,0.1,0.1,0.2,0.1S-923.4,514.8-923.3,514.8z"/>
	<path d="M-917.4,505.5c-0.2,0-0.3,0.1-0.4,0.2c0,0.2,0.1,0.3,0.2,0.4c0,0,2.3,0.6,2.7,2.3c0,0.2,0.2,0.3,0.3,0.3c0,0,0,0,0.1,0
		c0.2,0,0.3-0.2,0.3-0.4C-914.7,506.2-917.3,505.6-917.4,505.5z"/>
	<path d="M-914.4,505.5c-0.5-0.2-0.7-0.4-0.8-0.6c0,0,0,0,0.1,0c0,0,0.1,0,0.1,0c0,0,0.1,0,0.1,0s0.1,0,0.1,0s0.1,0,0.1,0
		c0,0,0.1,0,0.1-0.1c0,0,0.1,0,0.1-0.1c0,0,0,0,0.1-0.1c0,0,0-0.1,0.1-0.1c0,0,0,0,0.1-0.1c0,0,0-0.1,0.1-0.1c0,0,0,0,0-0.1
		c0,0,0-0.1,0-0.1c0,0,0,0,0-0.1c0-0.1,0-0.1,0-0.2v-0.8c0-0.6-0.4-1.1-1-1.1h-8.3c-0.6,0-1,0.5-1,1.1v0.8c0,0.6,0.4,1.1,1,1.1h0
		c-0.1,0.3-0.3,0.4-0.8,0.6c-0.8,0.3-1.8,0.8-1.8,2.6v3.4v5c0,1.9,1.6,3.5,3.5,3.5h6.5c1.9,0,3.5-1.6,3.5-3.5v-3.8v-4.6
		C-912.6,506.4-913.6,505.9-914.4,505.5z M-914.9,503.1v0.8c0,0,0,0.1,0,0.1c0,0.2-0.1,0.4-0.4,0.4h-0.6l0,0h0v-1.6h0.6
		C-915,502.6-914.9,502.9-914.9,503.1z M-922.3,502.6h0.6v1.6h-0.6V502.6z M-921,502.6h0.6v1.6h-0.6V502.6z M-919.7,502.6h0.6v1.6
		h-0.6V502.6z M-918.4,502.6h0.6v1.6h-0.6V502.6z M-917.1,502.6h0.6v1.6h-0.6V502.6z M-923.9,503.1c0-0.2,0.1-0.4,0.4-0.4h0.6v1.6
		h-0.6c-0.2,0-0.3-0.2-0.4-0.4c0,0,0-0.1,0-0.1V503.1z M-913.3,516.5c0,1.6-1.3,2.8-2.8,2.8h-6.5c-1.6,0-2.8-1.3-2.8-2.8v-5
		c0-1.7,1.4-3,3-3c0.1,0,0.2,0,0.4,0c0.7,0.1,1.4,0.2,2.1,0.5c0.1,0,0.2,0.1,0.3,0.1c0.4,0.2,1.6,0.7,3.3,0.6h0.1
		c1.7,0,3.1,1.4,3.1,3L-913.3,516.5L-913.3,516.5z M-916.3,509.1c0,0-0.1,0-0.1,0c-1.5,0.1-2.6-0.4-3-0.5c-0.1-0.1-0.2-0.1-0.4-0.1
		c-0.7-0.2-1.4-0.4-2.2-0.5c-0.1,0-0.3,0-0.4,0c-1.3,0-2.4,0.6-3,1.6v-1.3c0-1.4,0.7-1.7,1.4-2c0.5-0.2,1.1-0.5,1.2-1.2h7
		c0.1,0.7,0.6,1,1.2,1.2c0.7,0.3,1.4,0.7,1.4,2v2.5C-913.9,509.7-915.1,509.1-916.3,509.1z"/>
</g>
<g>
	<g>
		<path d="M-914.1,530.2c-0.2,0-0.4,0.1-0.4,0.4v6.6c0,1.2-1,2.2-2.2,2.2h-5.9c-1.2,0-2.2-1-2.2-2.2v-6.6c0-0.2-0.1-0.4-0.4-0.4
			s-0.4,0.1-0.4,0.4v6.6c0,1.6,1.3,2.9,2.9,2.9h5.9c1.6,0,2.9-1.3,2.9-2.9v-6.6C-913.7,530.4-913.9,530.2-914.1,530.2z
			 M-912.9,525.6c0.2-0.3,0.3-0.6,0.3-0.9c0-0.8-0.7-1.5-1.5-1.5h-11c-0.8,0-1.5,0.7-1.5,1.5c0,0.4,0.1,0.7,0.4,1
			c-0.1,0.3-0.6,1.8-0.1,2.5c0.1,0.2,0.4,0.4,0.9,0.4c0.4,0,1-0.2,1.7-0.6c1.2,0.5,1.9,0.8,2.5,0.8c0.7,0,1.2-0.4,1.7-0.9
			c0.2-0.2,0.3-0.2,0.3-0.3c0,0,0.1,0.1,0.3,0.3c0.3,0.4,0.9,1,2.1,1.2c0.3,0,0.6,0.1,0.9,0.1c0.7,0,1.2-0.2,1.5-0.6
			c0,0,0-0.1,0.1-0.1c0.3,0.2,0.7,0.4,1.1,0.4l0,0c0.3,0,0.6-0.1,0.7-0.3c0.1-0.2,0.2-0.6,0.2-1
			C-912.3,526.4-912.6,525.8-912.9,525.6z M-925.1,524h11c0.4,0,0.7,0.3,0.7,0.7s-0.3,0.7-0.7,0.7h-11c-0.4,0-0.7-0.3-0.7-0.7
			S-925.5,524-925.1,524z M-913.1,528.2c0,0,0,0-0.1,0c-0.3,0-0.8-0.3-1-0.5l-0.6-0.5v0.8c0,0,0,0.1-0.1,0.1
			c-0.2,0.3-0.8,0.3-1.7,0.2c-1-0.1-1.3-0.6-1.7-1c-0.2-0.3-0.4-0.5-0.8-0.5s-0.6,0.3-0.8,0.4c-0.6,0.6-0.8,0.7-1.2,0.7
			c-0.5,0-1.2-0.3-2.4-0.8l-0.2-0.1l-0.1,0.1c-0.8,0.5-1.3,0.6-1.5,0.6c-0.2,0-0.3-0.1-0.3-0.1c-0.2-0.3-0.1-1,0.1-1.6h0.5l0,0h11
			c0,0,0,0,0,0h0.7c0,0,0.4,0.1,0.4,1.5C-913,528-913.1,528.1-913.1,528.2z M-919.6,537.9c2,0,3.7-1.7,3.7-3.7s-1.7-3.7-3.7-3.7
			c-2,0-3.7,1.7-3.7,3.7S-921.6,537.9-919.6,537.9z M-919.6,531.3c1.6,0,2.9,1.3,2.9,2.9s-1.3,2.9-2.9,2.9c-1.6,0-2.9-1.3-2.9-2.9
			S-921.2,531.3-919.6,531.3z"/>
	</g>
</g>
<g>
	<rect x="-893.1" y="533.4" width="3.3" height="0.6"/>
	<rect x="-889.2" y="533.4" width="0.6" height="0.6"/>
	<path d="M-893.7,531.3c0.1,0,0.2,0,0.3,0c0.5,0,0.9-0.4,0.9-0.9c0.5,0,0.9-0.4,0.9-0.9c0-0.1,0-0.2-0.1-0.4l0.4-0.4v-0.1
		c0-0.4-0.1-0.8-0.2-1.1l3.9-3.9c0.2-0.2,0.3-0.4,0.3-0.7c0-0.5-0.4-0.9-0.9-0.9c-0.2,0-0.5,0.1-0.7,0.3l-3.9,3.9
		c-0.3-0.2-0.7-0.2-1.1-0.2h-0.1l-0.4,0.4c-0.1,0-0.2-0.1-0.4-0.1c-0.5,0-0.9,0.4-0.9,0.9c-0.5,0-0.9,0.4-0.9,0.9
		c0,0.1,0,0.2,0.1,0.4l-0.4,0.4v0.1c0,1.1,0.6,2,1.5,2.4v0.9h-7.5v0.3c0,1.4,0.5,2.8,1.3,3.9l-3.4,0c-0.5,0-0.9,0.4-0.9,0.9
		c0,0.5,0.4,0.9,0.9,0.9h3.3c0.2,0,0.3,0.1,0.3,0.3c0,0.2-0.1,0.3-0.3,0.3h-0.9c-0.5,0-0.9,0.4-0.9,0.9s0.4,0.9,0.9,0.9h5.9
		c0.9,0,1.7-0.6,2-1.4l0.1-0.4h0.9c3.5,0,6.3-2.8,6.3-6.3v-0.3h-6.3V531.3z M-888.6,522.8c0.1-0.1,0.1-0.1,0.2-0.1
		c0.2,0,0.3,0.2,0.3,0.3c0,0.1,0,0.2-0.1,0.2l-3.8,3.8c-0.1-0.2-0.3-0.3-0.5-0.5L-888.6,522.8z M-893.9,526.5c1.1,0.1,1.9,0.9,2,2
		l-0.1,0.1l-2-2L-893.9,526.5z M-894.9,526.8c0.1,0,0.2,0,0.2,0.1l2.3,2.3c0.1,0.1,0.1,0.1,0.1,0.2c0,0.2-0.2,0.3-0.3,0.3
		c-0.1,0-0.2,0-0.2-0.1l-2.3-2.3c-0.1-0.1-0.1-0.1-0.1-0.2C-895.2,527-895.1,526.8-894.9,526.8z M-895.8,527.7c0.1,0,0.2,0,0.2,0.1
		l2.3,2.3c0.1,0.1,0.1,0.1,0.1,0.2c0,0.2-0.2,0.3-0.3,0.3c-0.1,0-0.2,0-0.2-0.1l-2.3-2.3c-0.1-0.1-0.1-0.1-0.1-0.2
		C-896.1,527.9-896,527.7-895.8,527.7z M-896.4,529.1l0.1-0.1l2,2l-0.1,0.1C-895.5,531-896.3,530.1-896.4,529.1z M-902.4,532.8h6.9
		v0.9c0,0.2-0.1,0.3-0.3,0.3h-3c-0.5,0-0.9,0.4-0.9,0.9c0,0.5,0.4,0.9,0.9,0.9l0.9,0c0.2,0,0.3,0.1,0.3,0.3c0,0.2-0.1,0.3-0.3,0.3
		l-2.9,0C-901.8,535.4-902.3,534.2-902.4,532.8z M-895.4,539c-0.2,0.6-0.8,1-1.4,1h-5.9c-0.2,0-0.3-0.1-0.3-0.3s0.1-0.3,0.3-0.3h0.9
		c0.5,0,0.9-0.4,0.9-0.9c0-0.5-0.4-0.9-0.9-0.9h-3.3c-0.2,0-0.3-0.1-0.3-0.3s0.1-0.3,0.3-0.3l7.2,0c0.5,0,0.9-0.4,0.9-0.9
		c0-0.5-0.4-0.9-0.9-0.9l-0.9,0c-0.2,0-0.3-0.1-0.3-0.3c0-0.2,0.1-0.3,0.3-0.3h3c0.5,0,0.9-0.4,0.9-0.9v-2.2c0.2,0,0.4,0.1,0.6,0.1
		v2.7c0,0.5,0.4,0.9,0.9,0.9h2.1c0.2,0,0.3,0.1,0.3,0.3s-0.1,0.3-0.3,0.3h-1.4c-0.9,0-1.7,0.6-2,1.4L-895.4,539z M-888,532.8
		c-0.2,3-2.6,5.4-5.7,5.4h-0.7l0.3-0.8c0.2-0.6,0.8-1,1.4-1h1.4c0.5,0,0.9-0.4,0.9-0.9c0-0.5-0.4-0.9-0.9-0.9h-2.1
		c-0.2,0-0.3-0.1-0.3-0.3v-1.5H-888z"/>
	<path d="M-902.4,531.6L-902.4,531.6c2,0,3.6-1.6,3.6-3.6c0-0.7-0.2-1.3-0.5-1.9l-2.3-3.7c-0.2-0.2-0.4-0.4-0.7-0.4
		s-0.6,0.1-0.7,0.4l-2.3,3.7c-0.4,0.6-0.5,1.2-0.5,1.9C-906,530-904.4,531.6-902.4,531.6z M-904.9,526.5l2.3-3.7
		c0.1-0.1,0.3-0.1,0.4,0l2.3,3.7c0.3,0.5,0.4,1,0.4,1.6c0,1.6-1.3,3-3,3h-0.1c-1.6,0-3-1.3-3-3C-905.4,527.5-905.2,527-904.9,526.5z
		"/>
	<path d="M-903.3,528.5v0.6c0,0.5,0.3,1,0.8,1.2l0.1,0.1l0.1-0.1c0.5-0.2,0.8-0.7,0.8-1.2v-0.6c0.2,0.1,0.4,0.1,0.6,0.1
		c0.5,0,0.9-0.4,0.9-0.9c0-0.5-0.4-0.9-0.9-0.9h-0.5c0.1-0.2,0.2-0.4,0.2-0.6c0-0.4-0.2-0.7-0.5-0.9l0.2-0.8l-0.6-0.1l-0.1,0.7
		c-0.1,0-0.1,0-0.2,0c-0.1,0-0.1,0-0.2,0l-0.1-0.7l-0.6,0.1l0.2,0.8c-0.3,0.2-0.5,0.6-0.5,0.9c0,0.2,0.1,0.4,0.2,0.6h-0.5
		c-0.5,0-0.9,0.4-0.9,0.9c0,0.5,0.4,0.9,0.9,0.9C-903.7,528.6-903.5,528.6-903.3,528.5z M-902.4,529.8c-0.2-0.1-0.3-0.3-0.3-0.5h0.6
		C-902.1,529.5-902.2,529.7-902.4,529.8z M-902.1,528.6h-0.6v-0.5c0.1-0.1,0.2-0.2,0.3-0.3c0.1,0.1,0.2,0.2,0.3,0.3V528.6z
		 M-900.6,527.7c0,0.2-0.1,0.3-0.3,0.3c-0.4,0-0.8-0.2-1.1-0.6h1.1C-900.7,527.4-900.6,527.6-900.6,527.7z M-901.8,526.2
		c0,0.3-0.3,0.6-0.6,0.6c-0.3,0-0.6-0.3-0.6-0.6c0-0.3,0.3-0.6,0.6-0.6C-902.1,525.6-901.8,525.9-901.8,526.2z M-904.2,527.7
		c0-0.2,0.1-0.3,0.3-0.3h1.1c-0.2,0.4-0.6,0.6-1.1,0.6C-904,528-904.2,527.9-904.2,527.7z"/>
	<rect x="-897" y="538.8" width="0.6" height="0.6"/>
	<rect x="-898.2" y="538.8" width="0.6" height="0.6"/>
	<rect x="-899.4" y="538.8" width="0.6" height="0.6"/>
</g>
</svg>
