<?xml version="1.0" encoding="utf-8"?>
<!-- Generator: Adobe Illustrator 19.0.0, SVG Export Plug-In . SVG Version: 6.00 Build 0)  -->
<svg version="1.1" id="Layer_1" xmlns="http://www.w3.org/2000/svg" xmlns:xlink="http://www.w3.org/1999/xlink" x="0px" y="0px"
	 viewBox="-927 501 40 40" style="enable-background:new -927 501 40 40;" xml:space="preserve">
<title>juice-drink-fresh-food-fruit-beverage</title>
<g>
	<path d="M-893.7,514.4c-0.4,0-0.7,0.3-0.7,0.7v4.6c0,1.5-1.2,2.7-2.7,2.7c-0.4,0-0.7,0.3-0.7,0.7s0.3,0.7,0.7,0.7c2.2,0,4-1.8,4-4
		V515C-893.1,514.7-893.4,514.4-893.7,514.4z"/>
	<path d="M-891.1,507.7h-12.1l1.3-3.5c0.4-1.1,1.4-1.8,2.6-1.8h6.9c0.4,0,0.7-0.3,0.7-0.7s-0.3-0.7-0.7-0.7h-6.9
		c-1.7,0-3.2,1.1-3.8,2.7l-1.5,4h-2.4c-0.4,0-0.7,0.3-0.7,0.7v2h-1.4c-0.4-4-3.9-7-7.9-6.6c-1.7,0.2-3.3,0.9-4.5,2.1
		c-2.8,2.9-2.8,7.5,0,10.3c1.2,1.2,2.8,2,4.5,2.1v3.4c0,4,2.8,7.5,6.6,8.4v5.3l-6.3,4.4c-0.3,0.2-0.4,0.6-0.2,0.9
		c0.1,0.2,0.3,0.3,0.5,0.3h15.9c0.4,0,0.7-0.3,0.7-0.7c0-0.2-0.1-0.4-0.3-0.5l-2.1-1.4h11c0.4,0,0.7-0.3,0.7-0.7
		c0-0.2-0.1-0.4-0.3-0.5l-6.3-4.4v-5.3c3.9-0.9,6.6-4.4,6.6-8.4v-10.6C-890.4,508-890.7,507.7-891.1,507.7z M-891.7,509.1v2.7h-8
		V511c0-0.4-0.3-0.7-0.7-0.7h-3.8l0.5-1.3H-891.7z M-915.6,511.7h14.6v2.7h-14.6V511.7z M-906.3,509.1h1.2l-0.5,1.3h-0.8V509.1z
		 M-914.7,510.4l3.1-3.1c0.7,0.9,1.1,1.9,1.3,3.1H-914.7z M-915.6,509.4v-4.3c1.1,0.1,2.2,0.6,3.1,1.3L-915.6,509.4z M-917,505.1
		v4.3l-3.1-3.1C-919.1,505.7-918.1,505.2-917,505.1z M-921,507.3l3.1,3.1h-4.3C-922.1,509.3-921.7,508.2-921,507.3z M-917.9,511.7
		l-3.1,3.1c-0.7-0.9-1.1-1.9-1.3-3.1H-917.9z M-920,515.7l3.1-3.1v4.3C-918.1,516.9-919.1,516.4-920,515.7L-920,515.7z
		 M-915.6,521.7v-6h14.6v6c0,4-3.3,7.3-7.3,7.3S-915.6,525.7-915.6,521.7z M-901,527.4v5.3l-4.6,3.1l-0.7-0.5v-5.3
		c1.8-0.4,3.4-1.4,4.6-2.8C-901.5,527.3-901.3,527.3-901,527.4z M-914.2,539.6l4.9-3.3c0.2-0.1,0.3-0.3,0.3-0.5v-5.4
		c0.2,0,0.4,0,0.7,0c0.2,0,0.4,0,0.7,0v5.4c0,0.2,0.1,0.4,0.3,0.5l4.9,3.3H-914.2z M-893.2,536.9H-904l-0.4-0.3l4.5-3.1
		c0.2-0.1,0.3-0.3,0.3-0.6v-5.4c0.2,0,0.4,0,0.7,0s0.4,0,0.7,0v5.4c0,0.2,0.1,0.4,0.3,0.5L-893.2,536.9z M-897.8,526.2
		c-0.8,0.1-1.6,0.1-2.4,0c-0.2,0-0.4-0.1-0.7-0.1c0.8-1.3,1.2-2.9,1.2-4.4V513h8v6C-891.7,522.6-894.3,525.6-897.8,526.2z"/>
	<path d="M-906.3,518.3c0.4,0,0.7-0.3,0.7-0.7c0-0.4-0.3-0.7-0.7-0.7h-7.3c-0.4,0-0.7,0.3-0.7,0.7c0,0.4,0.3,0.7,0.7,0.7H-906.3z"/>
	<path d="M-903,520.3h-7.3c-0.4,0-0.7,0.3-0.7,0.7s0.3,0.7,0.7,0.7h7.3c0.4,0,0.7-0.3,0.7-0.7S-902.7,520.3-903,520.3z"/>
	<path d="M-906.3,523.7c0-0.4-0.3-0.7-0.7-0.7h-6c-0.4,0-0.7,0.3-0.7,0.7s0.3,0.7,0.7,0.7h6C-906.6,524.3-906.3,524-906.3,523.7z"/>
	<path d="M-903.7,518.3h0.7c0.4,0,0.7-0.3,0.7-0.7c0-0.4-0.3-0.7-0.7-0.7h-0.7c-0.4,0-0.7,0.3-0.7,0.7
		C-904.3,518-904,518.3-903.7,518.3z"/>
	<path d="M-903.7,523h-0.7c-0.4,0-0.7,0.3-0.7,0.7s0.3,0.7,0.7,0.7h0.7c0.4,0,0.7-0.3,0.7-0.7S-903.3,523-903.7,523z"/>
</g>
</svg>
