<?xml version="1.0" encoding="utf-8"?>
<!-- Generator: Adobe Illustrator 19.0.0, SVG Export Plug-In . SVG Version: 6.00 Build 0)  -->
<svg version="1.1" id="Layer_1" xmlns="http://www.w3.org/2000/svg" xmlns:xlink="http://www.w3.org/1999/xlink" x="0px" y="0px"
	 viewBox="-935 511 40 40" style="enable-background:new -935 511 40 40;" xml:space="preserve">
<style type="text/css">
	.st0{fill:none;stroke:#000000;stroke-width:0.9922;stroke-linecap:round;stroke-linejoin:round;stroke-miterlimit:10;}
</style>
<g>
	<polygon class="st0" points="-927.7,545.5 -921.9,550.2 -901.4,550.2 -895.7,545.5 	"/>
	<path class="st0" d="M-909.8,538.8c2.1,3.3,6.9,1.2,7.9-2c0.9-3,0-6.4,1-7.4c1-1.1,2.5-0.6,3.1-0.8c0.7-0.2,0.9-1.2,0.2-1.7
		c-0.6-0.4-1.7-0.5-1.7-0.5c-0.2-0.3-0.9-2.4-1.9-1.9c-1,0.5-0.7,1.5-0.8,2.3c-0.1,0.8,0.3,1.2-3.2,2.9
		C-908.6,531.5-912.2,534.8-909.8,538.8z"/>
	<path class="st0" d="M-907,530.9c-4-2.2-8.2,1.5-8.2,1.5c-7.7,7-10.4,6.3-10.4,6.3l0.1,2.1c0,0,6.2,0.5,5.9,3.9"/>
	<path class="st0" d="M-901.4,533.7c0,0,4.5,5.1,1.6,11.1"/>
</g>
<g>
	<g>
		<path d="M-926.4,536.9c-0.5,0.3-1.1,0.4-1.9,0.5c-1.5,0.2-2.9-0.4-4.1-1.7c-1.5-1.6-2.4-4.1-2-6.2c0.6-3.8,3.7-5.8,6.6-7.3
			c1.6-0.8,5.7-2.4,8.6,0.4c1.8,1.7,2.2,4,1.6,5.4c-0.4,0.9-1.2,1.4-2.1,1.3c-1.8-0.2-2.4,0.8-3.1,2l0,0c-0.4,0.6-0.7,1.4-0.9,2
			C-924.4,534.8-924.9,536.2-926.4,536.9z M-927.4,523.2c-2.8,1.4-5.6,3.2-6.1,6.6c-0.3,1.8,0.4,3.9,1.8,5.3c1,1,2.1,1.5,3.3,1.4
			c2.5-0.3,3-1.6,3.7-3.4c0.3-0.7,0.6-1.5,1-2.2l0.4,0.3l-0.4-0.3l0.4,0.3l-0.4-0.3c0.8-1.3,1.7-2.7,4.1-2.5c0.6,0.1,1-0.4,1.1-0.7
			c0.5-1.1,0.2-2.9-1.3-4.3C-922.3,521.2-925.6,522.3-927.4,523.2z"/>
	</g>
	<g>
		<path d="M-921.8,527.4c-1,0.5-2.3,0.1-2.8-0.9c-0.5-1-0.1-2.3,0.9-2.8c1-0.5,2.3-0.1,2.8,0.9
			C-920.3,525.6-920.8,526.9-921.8,527.4z M-923.2,524.6c-0.5,0.3-0.8,0.9-0.5,1.5c0.3,0.5,0.9,0.8,1.5,0.5c0.5-0.3,0.8-0.9,0.5-1.5
			C-922,524.5-922.7,524.3-923.2,524.6z"/>
	</g>
	<g>
		<path d="M-930.5,537c-0.2,0.1-0.5,0-0.6-0.2c-0.2-0.2-0.1-0.5,0.1-0.7c2.2-1.6,1.9-3.4,1.4-5.9c-0.1-0.7-0.3-1.4-0.4-2.2
			c-0.5-3.8,3.6-6.2,3.7-6.3c0.2-0.1,0.5-0.1,0.7,0.2c0.1,0.2,0.1,0.5-0.2,0.7c0,0-3.6,2.2-3.3,5.4c0.1,0.7,0.2,1.5,0.4,2.1
			C-928.1,532.6-927.7,535-930.5,537C-930.4,536.9-930.4,536.9-930.5,537z"/>
	</g>
	<g>
		<path d="M-932.2,535.5c-0.2,0.1-0.4,0.1-0.5-0.1c-0.2-0.2-0.2-0.5,0-0.7c1-1.1,1.2-2.2,0.8-4.1c-1-4.1,1.4-6.7,1.6-6.8
			c0.2-0.2,0.5-0.2,0.7,0c0.2,0.2,0.2,0.5,0,0.7l0,0c-0.1,0.1-2.1,2.4-1.3,5.9c0.5,2.2,0.3,3.6-1,4.9
			C-932.1,535.4-932.1,535.5-932.2,535.5z"/>
	</g>
</g>
<g>
	<g>
		<path d="M-896,513.5c-0.4-0.1-0.7,0.1-0.9,0.4l-1.2,2.4l-0.5,1l-0.1-0.1c-0.7-1.1-1.7-2.2-2.7-3c-1-0.8-2.1-1.5-3.3-1.9
			c-0.6-0.2-1.1-0.4-1.7-0.5c-0.3-0.1-0.6-0.1-0.9-0.2c-1.5-0.3-2.9-0.3-4.4,0l0,0c-1.1,0.2-2.2,0.5-3.3,1c-0.6,0.3-1.2,0.6-1.7,1
			c0,0,0,0,0,0c-1.4,0.9-2.6,2-3.8,3.2c-0.7,0.8-0.8,1.9-0.1,2.8c0.8,0.9,5.2,5.7,11,5.7h0c0.6,0,1.1,0,1.7-0.1
			c0.6-0.1,1.1-0.2,1.6-0.4c0.5-0.2,1.1-0.4,1.6-0.6c0.5-0.3,1.1-0.6,1.6-0.9c0.5-0.3,1-0.7,1.5-1.1c0.5-0.4,1-0.9,1.5-1.4
			c0.4-0.4,0.8-0.9,1.2-1.3c0.1-0.1,0.2-0.2,0.3-0.3c0.6,0.9,1.2,1.8,1.7,2.5c0.2,0.3,0.6,0.4,1,0.3c0.3-0.1,0.5-0.4,0.5-0.7v-6.8
			C-895.5,513.9-895.7,513.6-896,513.5z M-909.6,524.2L-909.6,524.2c-0.8,0-1.6-0.1-2.3-0.3c1.3-1.6,2.1-3.5,2.2-5.5
			c0-0.2-0.2-0.5-0.4-0.5c0,0,0,0,0,0c-0.2,0-0.4,0.2-0.4,0.4c-0.1,2-0.9,3.9-2.2,5.3c-3.8-1.2-6.5-4.1-7.1-4.8
			c-0.4-0.5-0.4-1.1,0.1-1.5c1.1-1.1,2.3-2.2,3.6-3.1c0.5-0.4,1.1-0.7,1.7-0.9c1-0.5,2-0.8,3.1-0.9c2.2-0.4,4.4-0.1,6.5,0.7
			c1.1,0.4,2.2,1.1,3.1,1.8c1,0.8,1.8,1.8,2.5,2.8c0.1,0.1,0.2,0.3,0.3,0.5l-0.9,1C-903,522.5-906.2,524.2-909.6,524.2z
			 M-898.1,518.1l1.7-3.4v5.9C-896.9,519.9-897.5,519-898.1,518.1L-898.1,518.1z"/>
		<path d="M-915.5,516.1c-0.5,0-0.9,0.4-0.9,0.9c0,0.5,0.4,0.9,0.9,0.9c0.5,0,0.9-0.4,0.9-0.9S-915,516.1-915.5,516.1
			C-915.5,516.1-915.5,516.1-915.5,516.1z"/>
	</g>
</g>
</svg>
