<?xml version="1.0" encoding="utf-8"?>
<!-- Generator: Adobe Illustrator 19.0.0, SVG Export Plug-In . SVG Version: 6.00 Build 0)  -->
<svg version="1.1" id="Layer_1" xmlns="http://www.w3.org/2000/svg" xmlns:xlink="http://www.w3.org/1999/xlink" x="0px" y="0px"
	 viewBox="-927 501 40 40" style="enable-background:new -927 501 40 40;" xml:space="preserve">
<g>
	<path d="M-891.3,507.1V502c0-0.4-0.3-0.7-0.7-0.7h-13.8c-0.4,0-0.7,0.3-0.7,0.7v5.1l-3.2,6.4c0,0.1-0.1,0.2-0.1,0.3V540
		c0,0.4,0.3,0.7,0.7,0.7h20.3c0.4,0,0.7-0.3,0.7-0.7v-26.2c0-0.1,0-0.2-0.1-0.3L-891.3,507.1z M-905,502.7h7.2v1.3
		c0,0.4,0.3,0.7,0.7,0.7c0.4,0,0.7-0.3,0.7-0.7v-1.3h1.3v2c0,0.4,0.3,0.7,0.7,0.7s0.7-0.3,0.7-0.7v-2h1.3v3.9H-905V502.7z
		 M-905.3,507.9h12.3l-2.8,5.6c0,0.1-0.1,0.2-0.1,0.3v11.6c-0.3,0.5-1.8,2.1-5.9,2.1c-2.3-0.1-4.6,0.5-6.6,1.8v-15.4L-905.3,507.9z
		 M-908.3,531.1c0.5-0.5,2.4-2.2,6.6-2.2c3,0,4.8-0.8,5.9-1.6v12.1h-12.4V531.1z M-894.6,539.3v-25.4l2.6-5.2l2.6,5.2v20.2h-2
		c-0.4,0-0.7,0.3-0.7,0.7c0,0.4,0.3,0.7,0.7,0.7h2v1.3h-3.3c-0.4,0-0.7,0.3-0.7,0.7c0,0.4,0.3,0.7,0.7,0.7h3.3v1.3H-894.6z"/>
	<path d="M-902.1,526.2c2.7,0,4.9-2.2,4.9-4.9c0-2.7-2.2-4.9-4.9-4.9c-2.7,0-4.9,2.2-4.9,4.9C-907,524-904.8,526.2-902.1,526.2z
		 M-902.1,517.7c2,0,3.6,1.6,3.6,3.6c0,2-1.6,3.6-3.6,3.6s-3.6-1.6-3.6-3.6C-905.7,519.3-904.1,517.7-902.1,517.7z"/>
	<path d="M-898.5,531.5h-7.2c-0.4,0-0.7,0.3-0.7,0.7s0.3,0.7,0.7,0.7h7.2c0.4,0,0.7-0.3,0.7-0.7S-898.1,531.5-898.5,531.5z"/>
	<path d="M-898.5,534.1h-7.2c-0.4,0-0.7,0.3-0.7,0.7c0,0.4,0.3,0.7,0.7,0.7h7.2c0.4,0,0.7-0.3,0.7-0.7
		C-897.8,534.4-898.1,534.1-898.5,534.1z"/>
	<path d="M-898.5,536.7h-7.2c-0.4,0-0.7,0.3-0.7,0.7c0,0.4,0.3,0.7,0.7,0.7h7.2c0.4,0,0.7-0.3,0.7-0.7
		C-897.8,537-898.1,536.7-898.5,536.7z"/>
	<path d="M-892.6,518.4h1.3c0.4,0,0.7-0.3,0.7-0.7c0-0.4-0.3-0.7-0.7-0.7h-1.3c-0.4,0-0.7,0.3-0.7,0.7
		C-893.2,518.1-892.9,518.4-892.6,518.4z"/>
	<path d="M-892.6,521h1.3c0.4,0,0.7-0.3,0.7-0.7s-0.3-0.7-0.7-0.7h-1.3c-0.4,0-0.7,0.3-0.7,0.7S-892.9,521-892.6,521z"/>
	<path d="M-892.6,523.6h1.3c0.4,0,0.7-0.3,0.7-0.7s-0.3-0.7-0.7-0.7h-1.3c-0.4,0-0.7,0.3-0.7,0.7S-892.9,523.6-892.6,523.6z"/>
	<path d="M-924.7,540c0,0.3,0.3,0.6,0.7,0.6h11.1c0.3,0,0.6-0.3,0.7-0.6l1.3-19.7c0-0.4-0.2-0.7-0.6-0.7c0,0,0,0,0,0h-13.8
		c-0.4,0-0.7,0.3-0.7,0.7c0,0,0,0,0,0L-924.7,540z M-923.4,539.3l-0.8-12.4h11.6l-0.8,12.4H-923.4z M-912.3,521l-0.3,4.6h-11.7
		l-0.3-4.6H-912.3z"/>
	<path d="M-922.1,528.2c-0.4,0-0.6,0.3-0.6,0.7c0,0,0,0,0,0l0.7,7.2c0,0.3,0.3,0.6,0.7,0.6c0,0,0,0,0.1,0c0.4,0,0.6-0.3,0.6-0.7
		c0,0,0,0,0,0l-0.7-7.2C-921.4,528.4-921.8,528.2-922.1,528.2C-922.1,528.2-922.1,528.2-922.1,528.2z"/>
	<path d="M-906.3,514.4h8.5c0.4,0,0.7-0.3,0.7-0.7c0-0.4-0.3-0.7-0.7-0.7h-8.5c-0.4,0-0.7,0.3-0.7,0.7
		C-907,514.2-906.7,514.4-906.3,514.4z"/>
</g>
</svg>
