<?xml version="1.0" encoding="utf-8"?>
<!-- Generator: Adobe Illustrator 19.0.0, SVG Export Plug-In . SVG Version: 6.00 Build 0)  -->
<svg version="1.1" id="Layer_1" xmlns="http://www.w3.org/2000/svg" xmlns:xlink="http://www.w3.org/1999/xlink" x="0px" y="0px"
	 viewBox="-934 509.5 40 40" style="enable-background:new -934 509.5 40 40;" xml:space="preserve">
<g>
	<path d="M-910.3,548.7h13.5c0.4,0,0.7-0.3,0.7-0.7v-18.2c0-3.2-2.7-3.6-2.9-7h0.7c0.4,0,0.7-0.3,0.7-0.7v-2.8
		c0-0.4-0.3-0.7-0.7-0.7h-1.1l0.3-1.9c0.2-1.3-1.1-2.3-2.5-2.3h-3.7c-1.4,0-2.8,1-2.5,2.3l0.3,1.9h-1.1c-0.4,0-0.7,0.3-0.7,0.7v2.8
		c0,0.4,0.3,0.7,0.7,0.7h0.7c-0.2,3.4-2.9,3.8-2.9,7V548C-911,548.4-910.7,548.7-910.3,548.7z M-897.5,547.3h-12.1v-17.5
		c0-0.8,0.3-1.5,0.7-2.1h10.6c0.5,0.6,0.7,1.3,0.7,2.1C-897.5,529.8-897.5,547.3-897.5,547.3z M-906.5,516.5
		c-0.1-0.4,0.6-0.6,1.1-0.6h3.7c0.5,0,1.2,0.3,1.1,0.6l-0.4,2.2h-5.2L-906.5,516.5z M-908,520c2.8,0,6.1,0,8.9,0v1.3
		c-2.7,0-6.2,0-8.9,0C-908,521.4-908,520-908,520z M-900.4,522.8c0.1,1.2,0.5,2.4,1.2,3.5h-8.5c0.7-1.1,1.1-2.3,1.2-3.5
		C-906.6,522.8-900.4,522.8-900.4,522.8z"/>
	<path d="M-904.2,533.3c-0.4,0.8-2.3,4.7-2.3,6c0,1.6,1.3,2.9,2.9,2.9c1.6,0,2.9-1.3,2.9-2.9c0-1.3-1.9-5.2-2.3-6
		C-903.1,532.8-903.9,532.8-904.2,533.3z M-903.5,540.8c-0.8,0-1.5-0.7-1.5-1.5c0-0.6,0.8-2.4,1.5-4c0.8,1.6,1.5,3.5,1.5,4
		C-902,540.1-902.7,540.8-903.5,540.8z"/>
</g>
<path d="M-926.4,515.4h6.1c0.4,0,0.6-0.2,0.6-0.6v-3.7c0-0.7-0.5-1.2-1.2-1.2h-4.9c-0.7,0-1.2,0.5-1.2,1.2v3.7
	C-927,515.2-926.7,515.4-926.4,515.4z M-925.7,511.2h4.9v3.1h-4.9V511.2z M-916,529.7v2l1,1c0.1,0.1,0.2,0.2,0.2,0.4V546
	c0,0.2-0.1,0.3-0.2,0.4l-1.8,1.8c-0.1,0.1-0.2,0.1-0.3,0.2c-0.1,0-2.4,0.6-6.3,0.6s-6.2-0.6-6.3-0.6s-0.2-0.1-0.3-0.2l-1.8-1.8
	c0-0.1-0.1-0.2-0.1-0.4v-12.8c0-0.2,0.1-0.3,0.2-0.4l1-1v-2l-1-1c-0.1-0.1-0.2-0.2-0.2-0.4v-6.1c0-0.2,0.1-0.4,0.2-0.5l5.3-3.5v-0.9
	c0-0.4,0.2-0.6,0.6-0.6c0.4,0,0.6,0.2,0.6,0.6v1.2c0,0.2-0.1,0.4-0.2,0.5l-5.3,3.5v5.6l1,1c0.1,0.1,0.2,0.2,0.2,0.4v2.4
	c0,0.2-0.1,0.3-0.2,0.4l-1,1v12.3l1.5,1.5c0.5,0.1,2.7,0.5,5.8,0.5s5.3-0.4,5.8-0.5l1.5-1.5v-12.3l-1-1c-0.1-0.1-0.2-0.2-0.2-0.4
	v-2.4c0-0.2,0.1-0.3,0.2-0.4l1-1v-5.6l-5.3-3.5c-0.1-0.1-0.2-0.3-0.2-0.5v-1.2c0-0.4,0.2-0.6,0.6-0.6c0.4,0,0.6,0.2,0.6,0.6v0.9
	l5.3,3.5c0.2,0.1,0.2,0.3,0.2,0.5v6.1c0,0.2-0.1,0.3-0.2,0.4L-916,529.7z M-917.6,523.9c-0.1,0-1.3,0.7-3.3,0.7
	c-1,0-1.9-0.3-2.7-0.7c-0.7-0.2-1.4-0.5-2.2-0.5c-1.6,0-2.6,1-2.6,1c-0.2,0.2-0.6,0.2-0.9,0c-0.2-0.2-0.2-0.6,0-0.9
	c0.1-0.1,1.4-1.4,3.5-1.4c1,0,1.9,0.3,2.7,0.7c0.7,0.3,1.4,0.5,2.2,0.5c1.6,0,2.7-0.5,2.8-0.5c0.3-0.1,0.7,0,0.8,0.2
	C-917.1,523.4-917.3,523.8-917.6,523.9z M-925.7,534.4c0,1.3,1.1,2.4,2.4,2.4s2.4-1.1,2.4-2.4c0-1.3-1.1-2.4-2.4-2.4
	S-925.7,533-925.7,534.4z M-923.3,533.2c0.7,0,1.2,0.5,1.2,1.2s-0.5,1.2-1.2,1.2s-1.2-0.5-1.2-1.2S-924,533.2-923.3,533.2z
	 M-925.7,545.1c0.1,0.2,0.3,0.3,0.5,0.3c2.1,0,4.1-1,5.3-2.7l1.3-1.8c0.1-0.2,0.1-0.4,0.1-0.6c-0.1-0.2-0.3-0.4-0.5-0.4
	c-1.9,0-3.7,0.8-4.9,2.2c0.1-0.2,0.2-0.4,0.3-0.6c0.4-1,0.9-2,0.9-3.4c0-0.4-0.2-0.6-0.6-0.6c-0.4,0-0.6,0.2-0.6,0.6
	c0,1.2-0.4,2-0.8,2.9c-0.5,1-1,2.1-1,3.8C-925.7,544.8-925.7,545-925.7,545.1z M-923.4,543.3c0.7-1,1.8-1.8,3.1-2.1l-0.5,0.7
	c-0.7,1-1.8,1.8-3.1,2.1L-923.4,543.3z M-928.2,533.8h1.2c0.4,0,0.6,0.2,0.6,0.6c0,0.4-0.2,0.6-0.6,0.6h-1.2c-0.4,0-0.6-0.2-0.6-0.6
	C-928.8,534-928.6,533.8-928.2,533.8z M-918.4,535h-1.2c-0.4,0-0.6-0.2-0.6-0.6c0-0.4,0.2-0.6,0.6-0.6h1.2c0.4,0,0.6,0.2,0.6,0.6
	C-917.8,534.8-918,535-918.4,535z M-927.8,536.3l1-0.6c0.3-0.2,0.7-0.1,0.9,0.2c0.2,0.3,0.1,0.7-0.2,0.9l-1,0.6
	c-0.3,0.2-0.7,0.1-0.9-0.2S-928.1,536.5-927.8,536.3z M-918.8,532.5l-1,0.6c-0.3,0.2-0.7,0.1-0.9-0.2c-0.2-0.3-0.1-0.7,0.2-0.9
	l1-0.6c0.3-0.2,0.7-0.1,0.9,0.2C-918.3,531.9-918.5,532.3-918.8,532.5z M-926.3,538.3l0.6-1c0.2-0.3,0.5-0.4,0.9-0.2
	c0.3,0.1,0.4,0.5,0.2,0.9l-0.6,1c-0.2,0.3-0.5,0.4-0.9,0.2C-926.4,539-926.4,538.6-926.3,538.3z M-920.3,530.5l-0.6,1
	c-0.2,0.3-0.5,0.4-0.9,0.2c-0.3-0.1-0.4-0.5-0.2-0.9l0.6-1c0.2-0.3,0.5-0.4,0.9-0.2C-920.2,529.8-920.2,530.2-920.3,530.5z
	 M-922.7,529.5v1.2c0,0.4-0.2,0.6-0.6,0.6c-0.4,0-0.6-0.2-0.6-0.6v-1.2c0-0.4,0.2-0.6,0.6-0.6C-922.9,528.9-922.7,529.1-922.7,529.5
	z M-921.4,538.9l-0.6-1c-0.2-0.3-0.1-0.7,0.2-0.9c0.3-0.2,0.7-0.1,0.9,0.2l0.6,1c0.2,0.3,0.1,0.7-0.2,0.9
	C-920.9,539.3-921.2,539.2-921.4,538.9z M-925.2,529.9l0.6,1c0.2,0.3,0.1,0.7-0.2,0.9c-0.3,0.2-0.7,0.1-0.9-0.2l-0.6-1
	c-0.2-0.3-0.1-0.7,0.2-0.9C-925.7,529.4-925.4,529.6-925.2,529.9z M-919.4,537.4l-1-0.6c-0.3-0.2-0.4-0.5-0.2-0.9
	c0.1-0.3,0.5-0.4,0.9-0.2l1,0.6c0.3,0.2,0.4,0.5,0.2,0.9C-918.7,537.4-919.1,537.5-919.4,537.4z M-927.2,531.4l1,0.6
	c0.3,0.2,0.4,0.5,0.2,0.9c-0.1,0.3-0.5,0.4-0.9,0.2l-1-0.6c-0.3-0.2-0.4-0.5-0.2-0.9C-927.9,531.3-927.5,531.3-927.2,531.4z"/>
</svg>
