<?xml version="1.0" encoding="utf-8"?>
<!-- Generator: Adobe Illustrator 19.0.0, SVG Export Plug-In . SVG Version: 6.00 Build 0)  -->
<svg version="1.1" id="Layer_1" xmlns="http://www.w3.org/2000/svg" xmlns:xlink="http://www.w3.org/1999/xlink" x="0px" y="0px"
	 viewBox="-927 501 40 40" style="enable-background:new -927 501 40 40;" xml:space="preserve">
<g>
	<rect x="-893.2" y="525.4" width="1.3" height="1.3"/>
	<path d="M-891.9,528l-1.3-0.1c-0.1,2.4-0.9,4.7-2.3,6.6l1,0.7C-893,533.1-892.1,530.6-891.9,528z"/>
	<path d="M-887.5,512.8v-1.9h-1.9c-1.4,0-2.6,0.6-3.4,1.6c-0.7-2.4-2.9-4.1-5.4-4.1h-0.6v1.9c0,1,0.3,2,0.8,2.9
		c-0.4-0.2-0.9-0.3-1.4-0.3c-1,0-2,0.5-2.6,1.3c-1.2-0.2-2.4,0.3-3.1,1.2l-4.9-9.8c0.7-0.4,1.1-1.1,1.1-1.9c0-1.2-1-2.1-2.1-2.1
		h-0.1c-0.3,0-0.5,0.1-0.8,0.2l-5.1,2c-0.8,0.3-1.3,1.1-1.3,2c0,1.2,1,2.1,2.1,2.1h0.1c0.1,0,0.3,0,0.4,0l2.3,11.4h-1.1
		c-0.7,0-1.3,0.6-1.3,1.3v2.5c0,0.7,0.6,1.3,1.3,1.3v3.1h0c-0.4,0.5-0.6,1.2-0.6,1.9c0,1.2,0.2,2.3,0.5,3.3c-1.3-0.9-2.3-2-3-3.4
		l0-0.1c0-0.1,0-0.2,0-0.2c0-2.2,0.4-4.3,1.3-6.3l0.5-1.3l-1.2-0.5l-0.5,1.3c-0.9,2.2-1.4,4.5-1.4,6.8c0,1.9,0.4,3.8,1.1,5.6
		l1.2-0.5c-0.3-0.7-0.5-1.5-0.6-2.2c0.6,0.7,1.3,1.3,2.1,1.9c0.9,0.6,1.4,1.5,1.4,2.5c0,1.6-1.2,2.9-2.8,3c0.6-0.6,0.9-1.5,0.9-2.4
		c0-0.6-0.1-1.1-0.4-1.6l-1.1,0.6c0.2,0.3,0.3,0.7,0.3,1.1c0,1.3-1.1,2.4-2.4,2.4h-0.1h-0.1c-1.3,0-2.4-1.1-2.4-2.4
		c0-0.4,0.1-0.7,0.3-1.1c1.1-2.1,1.6-4.5,1.6-6.9v-0.8c0-1.9-0.7-3.7-2.1-5l-0.9,0.9c1.1,1.1,1.7,2.6,1.7,4.1v0.8c0,0.1,0,0.1,0,0.2
		l0,0.1c-0.7,1.4-1.8,2.6-3.1,3.5c-1.2,0.8-1.9,2.1-1.9,3.6c0,2.4,1.9,4.3,4.3,4.3h2.5h0.1h0.1h2.5c2.3,0,4.2-1.9,4.3-4.2
		c1.1,1.4,2.5,2.5,4.1,3.3l1.7,0.8c0.2,0.1,0.4,0.1,0.6,0.1h13v-2.9c2.4-2.9,3.8-6.6,3.8-10.4v-3c0.7,0,1.3-0.6,1.3-1.3v-2.5
		c0-0.7-0.6-1.3-1.3-1.3h-1.3c0-0.7-0.3-1.4-0.7-1.9C-889.2,516.9-887.5,515.1-887.5,512.8z M-925.2,536.2c0-1,0.5-2,1.4-2.5
		c0.8-0.5,1.5-1.1,2.1-1.9c-0.3,1.2-0.6,2.3-1.2,3.4c-0.3,0.5-0.4,1.1-0.4,1.6c0,0.9,0.3,1.8,0.9,2.4
		C-924,539.1-925.2,537.8-925.2,536.2z M-897.6,509.7c2.1,0.3,3.8,2.1,3.8,4.4v0.6c-2.1-0.3-3.8-2.1-3.8-4.4V509.7z M-911.1,506
		l0.7,1.5l-3.8,1.4l-0.3-1.6L-911.1,506z M-916.2,506.5c-0.5,0-0.9-0.4-0.9-0.9c0-0.4,0.2-0.7,0.5-0.8l5.1-2c0.1,0,0.2-0.1,0.3-0.1
		h0.1c0.5,0,0.9,0.4,0.9,0.9c0,0.4-0.2,0.7-0.5,0.8l-5.1,2C-915.9,506.5-916,506.5-916.2,506.5L-916.2,506.5z M-913.9,510.1l4.1-1.5
		l3.8,7.5c-1.3,0.4-2.2,1.6-2.2,3h-3.9L-913.9,510.1z M-912.5,526.1c-0.3,0-0.5,0.1-0.8,0.2v-2.2h1.1
		C-912.4,524.8-912.5,525.4-912.5,526.1z M-906,539.2h-0.2c0,0-0.1,0-0.1,0l-1.7-0.8c-3.6-1.7-5.9-5.3-5.9-9.2
		c0-0.8,0.5-1.5,1.3-1.8c0,0.3,0,0.5,0,0.8v0.4h1.3v-0.4c0-0.3,0-0.5,0-0.7c0.7,0.3,1.2,1,1.2,1.8v0.6c0,1.7,0.4,3.5,1.2,5
		c0.5,1.1,1.2,2.1,2.1,2.9l1,1c0,0,0.1,0.1,0.1,0.2C-905.7,539.1-905.9,539.2-906,539.2z M-904.5,539.2c0-0.1,0-0.2,0-0.3
		c0-0.4-0.1-0.7-0.4-1h10.4v1.3H-904.5z M-890.6,527.2c0,3.5-1.2,6.9-3.4,9.6h-12c-0.7-0.7-1.3-1.5-1.7-2.4
		c-0.7-1.4-1.1-2.9-1.1-4.5v-0.6c0-1.5-1-2.7-2.4-3c0.1-0.7,0.2-1.3,0.4-2h20.3V527.2z M-889.4,520.4l0,2.5h0h-21.2
		c0.1-0.3,0.2-0.7,0.4-1l-1.2-0.5c-0.2,0.5-0.4,1-0.5,1.5h-2.7v-2.5L-889.4,520.4L-889.4,520.4z M-907,519.1c0-1,0.8-1.9,1.8-1.9
		l0.6,0l0.1-0.5c0.3-1,1.4-1.7,2.5-1.3l0.5,0.2l0.3-0.5c0.3-0.7,1-1.1,1.7-1.1c0.7,0,1.4,0.4,1.7,1.1l0.3,0.5l0.5-0.2
		c1.1-0.4,2.2,0.2,2.5,1.3l0.1,0.5l0.5,0c0,0,0.1,0,0.1,0c1,0,1.9,0.8,1.9,1.9H-907z M-891.9,516h-0.6v-0.6c0-1.7,1.4-3.1,3.1-3.1
		h0.6v0.6C-888.8,514.6-890.2,516-891.9,516z"/>
	<rect x="-896.9" y="516.6" width="1.3" height="1.3"/>
	<rect x="-903.2" y="516.6" width="1.3" height="1.3"/>
	<rect x="-900.1" y="515.3" width="1.3" height="1.3"/>
</g>
</svg>
