<?xml version="1.0" encoding="utf-8"?>
<!-- Generator: Adobe Illustrator 19.0.0, SVG Export Plug-In . SVG Version: 6.00 Build 0)  -->
<svg version="1.1" id="Layer_1" xmlns="http://www.w3.org/2000/svg" xmlns:xlink="http://www.w3.org/1999/xlink" x="0px" y="0px"
	 viewBox="-703 221 40 40" style="enable-background:new -703 221 40 40;" xml:space="preserve">
<title>Cocina_Alimentos</title>
<g>
	<path d="M-672.3,238.7c-0.2-0.2-0.5-0.3-0.8-0.3l0.5-0.8c0.3-0.4,0.4-0.9,0.4-1.4c0-0.5-0.3-0.9-0.7-1.2l-15.8-13.3c0,0,0,0-0.1,0
		c-0.8-0.5-2-0.2-2.6,0.7l-11,16.4c-0.6,0.9-0.5,2.1,0.3,2.6c0,0,0,0,0.1,0l18.3,9.6c0.4,0.2,0.8,0.3,1.3,0.2c0.5-0.1,1-0.4,1.2-0.9
		l0.5-0.8c0.2,0.3,0.4,0.5,0.6,0.6l4.5,3c1,0.6,2.2,0.4,2.9-0.6l5.3-7.9c0.6-1,0.4-2.2-0.6-2.9L-672.3,238.7z M-682.2,249.5
		c-0.2,0.3-0.6,0.4-0.8,0.3c0,0,0,0-0.1,0l-18.2-9.6c-0.2-0.1-0.2-0.5,0-0.8l1.7-2.5l4.6,3.1c0.3,0.2,0.7,0.1,0.9-0.2
		c0.2-0.3,0.1-0.7-0.2-0.9l-4.6-3.1l2.7-4.1l6.2,4.2c0.3,0.2,0.7,0.1,0.9-0.2c0.2-0.3,0.1-0.7-0.2-0.9l-6.2-4.2l2.7-4.1l4.6,3.1
		c0.3,0.2,0.7,0.1,0.9-0.2c0.2-0.3,0.1-0.7-0.2-0.9l-4.6-3.1l1.7-2.5c0.2-0.3,0.6-0.4,0.7-0.3l15.8,13.3c0,0,0,0,0.1,0
		c0.1,0.1,0.1,0.2,0.1,0.3c0,0.2,0,0.4-0.2,0.5L-682.2,249.5z M-668.3,243.9l-5.3,7.9c-0.2,0.4-0.7,0.4-1.1,0.2l-4.5-3
		c-0.4-0.2-0.4-0.7-0.2-1.1l5.3-7.9c0.2-0.4,0.7-0.4,1.1-0.2l4.5,3C-668.2,243-668.1,243.5-668.3,243.9L-668.3,243.9z"/>
	<path d="M-670.9,243.6c-0.3,0.2-0.3,0.6-0.1,0.8c0.2,0.3,0.6,0.3,0.8,0.1s0.3-0.6,0.1-0.8c0,0,0,0,0,0
		C-670.3,243.5-670.7,243.4-670.9,243.6z"/>
	<path d="M-672.2,245.5c-0.3,0.2-0.3,0.6-0.1,0.8c0.2,0.3,0.6,0.3,0.8,0.1s0.3-0.6,0.1-0.8c0,0,0,0,0,0
		C-671.6,245.4-671.9,245.3-672.2,245.5z"/>
	<path d="M-673.4,247.4c-0.3,0.2-0.3,0.6-0.2,0.8c0.2,0.3,0.6,0.3,0.8,0.2c0.3-0.2,0.3-0.6,0.2-0.8c0,0,0,0,0,0
		C-672.8,247.2-673.2,247.2-673.4,247.4z"/>
	<path d="M-674.7,249.2c-0.3,0.2-0.3,0.6-0.1,0.8c0.2,0.3,0.6,0.3,0.8,0.1c0.3-0.2,0.3-0.6,0.1-0.8c0,0,0,0,0,0
		C-674.1,249.1-674.4,249.1-674.7,249.2z"/>
	<path d="M-667.8,246.3c-0.4,0.1-0.6,0.4-0.5,0.8l0,0l0.3,1.4c0.1,0.4,0.4,0.6,0.8,0.5s0.6-0.4,0.5-0.8l-0.3-1.4
		C-667.1,246.4-667.5,246.2-667.8,246.3z"/>
	<path d="M-669.2,249.9c-0.4,0.1-0.6,0.4-0.5,0.8l0,0l0.3,1.4c0.1,0.4,0.4,0.6,0.8,0.5s0.6-0.4,0.5-0.8l-0.3-1.4
		C-668.5,250-668.9,249.8-669.2,249.9z"/>
	<path d="M-671.1,252.7c-0.4,0.1-0.6,0.4-0.5,0.8l0,0l0.3,1.4c0.1,0.4,0.4,0.6,0.8,0.5c0.4-0.1,0.6-0.4,0.5-0.8l-0.3-1.4
		C-670.4,252.8-670.8,252.6-671.1,252.7L-671.1,252.7z"/>
	<path d="M-666.5,251.6c-0.4,0.1-0.6,0.4-0.5,0.8l0,0l0.3,1.4c0.1,0.4,0.4,0.6,0.8,0.5s0.6-0.4,0.5-0.8l-0.3-1.4
		C-665.8,251.7-666.2,251.5-666.5,251.6C-666.5,251.6-666.5,251.6-666.5,251.6z"/>
	<path d="M-664.8,248.3c-0.4,0.1-0.6,0.4-0.5,0.8l0,0l0.3,1.4c0.1,0.4,0.4,0.6,0.8,0.5c0.4-0.1,0.6-0.4,0.5-0.8l-0.3-1.4
		C-664.1,248.4-664.4,248.2-664.8,248.3L-664.8,248.3z"/>
	<path d="M-668,255.1c-0.4,0.1-0.6,0.4-0.5,0.8l0,0l0.3,1.4c0.1,0.4,0.4,0.6,0.8,0.5c0.4-0.1,0.6-0.4,0.5-0.8l0,0l-0.3-1.4
		C-667.3,255.3-667.6,255-668,255.1L-668,255.1z"/>
	<path d="M-669.9,258c-0.4,0.1-0.6,0.4-0.5,0.8l0,0l0.3,1.4c0.1,0.4,0.4,0.6,0.8,0.5s0.6-0.4,0.5-0.8l0,0l-0.3-1.4
		C-669.2,258.1-669.5,257.9-669.9,258C-669.9,258-669.9,258-669.9,258z"/>
</g>
</svg>
