<?xml version="1.0" encoding="utf-8"?>
<!-- Generator: Adobe Illustrator 19.0.0, SVG Export Plug-In . SVG Version: 6.00 Build 0)  -->
<svg version="1.1" id="Layer_1" xmlns="http://www.w3.org/2000/svg" xmlns:xlink="http://www.w3.org/1999/xlink" x="0px" y="0px"
	 viewBox="-927 501 40 40" style="enable-background:new -927 501 40 40;" xml:space="preserve">
<g>
	<path d="M-908.9,515.4v-2c0-0.4-0.3-0.6-0.6-0.6h-0.6v-1.9c0-0.4-0.3-0.6-0.6-0.6h-2.6l-0.6-8.4c0-0.3-0.3-0.6-0.6-0.6h-1.3
		c-0.3,0-0.6,0.3-0.6,0.6l-0.6,8.4h-2.6c-0.4,0-0.6,0.3-0.6,0.6v1.9h-0.6c-0.4,0-0.6,0.3-0.6,0.6v2c-0.7,0.3-1.3,1-1.3,1.8v21.8
		c0,1.1,0.9,1.9,1.9,1.9h11.5c1.1,0,1.9-0.9,1.9-1.9v-21.8C-907.6,516.3-908.2,515.6-908.9,515.4z M-915.4,502.4L-915.4,502.4
		l0.6,7.7h-1.2L-915.4,502.4z M-919.2,511.4h7.7v1.3h-7.7V511.4z M-910.2,514v1.3h-10.2V514H-910.2z M-908.9,538.9
		c0,0.4-0.3,0.6-0.6,0.6h-11.5c-0.4,0-0.6-0.3-0.6-0.6v-21.8c0-0.4,0.3-0.6,0.6-0.6h11.5c0.4,0,0.6,0.3,0.6,0.6V538.9z"/>
	<path d="M-914.3,524.3c0.2-0.5,0.4-1,0.7-1.5l0.1-0.1l-1.1-0.7l-0.1,0.1c-0.4,0.7-0.8,1.4-1,2.1c-2.7,0.2-4.8,2.4-4.8,5.1
		c0,2.8,2.3,5.1,5.1,5.1s5.1-2.3,5.1-5.1C-910.2,526.8-912,524.8-914.3,524.3z M-915.3,533.2c-2.1,0-3.8-1.7-3.8-3.8
		c0-1.9,1.4-3.5,3.2-3.8c0,0.3,0,0.5,0,0.8v1.5c-0.4-0.2-0.6-0.6-0.6-1.1h-1.3c0,1.4,1.1,2.6,2.6,2.6s2.6-1.1,2.6-2.6h-1.3
		c0,0.5-0.3,0.9-0.6,1.1v-1.5c0-0.3,0-0.5,0.1-0.8c1.8,0.3,3.1,1.9,3.1,3.8C-911.5,531.4-913.2,533.2-915.3,533.2z"/>
	<path d="M-892.3,515.4v-2c0-0.4-0.3-0.6-0.6-0.6h-0.6v-1.9c0-0.4-0.3-0.6-0.6-0.6h-2.6l-0.6-8.4c0-0.3-0.3-0.6-0.6-0.6h-1.3
		c-0.3,0-0.6,0.3-0.6,0.6l-0.6,8.4h-2.6c-0.4,0-0.6,0.3-0.6,0.6v1.9h-0.6c-0.4,0-0.6,0.3-0.6,0.6v2c-0.7,0.3-1.3,1-1.3,1.8v21.8
		c0,1.1,0.9,1.9,1.9,1.9h11.5c1.1,0,1.9-0.9,1.9-1.9v-21.8C-891,516.3-891.5,515.6-892.3,515.4z M-898.7,502.4L-898.7,502.4l0.6,7.7
		h-1.2L-898.7,502.4z M-902.5,511.4h7.7v1.3h-7.7V511.4z M-893.6,514v1.3h-10.2V514H-893.6z M-892.3,538.9c0,0.4-0.3,0.6-0.6,0.6
		h-11.5c-0.4,0-0.6-0.3-0.6-0.6v-21.8c0-0.4,0.3-0.6,0.6-0.6h11.5c0.4,0,0.6,0.3,0.6,0.6V538.9z"/>
	<path d="M-894.5,524.2c0.2-0.6,0.3-1.3,0.3-1.9h-1.3c0,0.5-0.1,0.9-0.2,1.3c-0.2,0-0.3,0-0.5,0c-1.3,0-2.3,0.9-2.5,2.2l0,0.3
		c-0.4,2.7-1.9,5.1-4.1,6.7l-0.8,0.6c-0.2,0.2-0.3,0.5-0.2,0.7c0.1,0.3,0.3,0.4,0.6,0.4c0,0,0,0,0.1,0l0.4,0
		c4.2-0.4,7.8-3.4,8.9-7.5l0.2-0.6c0-0.1,0-0.1,0-0.2C-893.6,525.3-893.9,524.6-894.5,524.2z M-895,526.6c-0.8,2.9-3,5.1-5.7,6.1
		c1.8-1.7,2.9-4,3.3-6.5l0-0.3c0.1-0.6,0.6-1.1,1.2-1.1c0,0,0,0,0,0c-0.1,0.2-0.2,0.4-0.3,0.6l-0.2,0.3l1.1,0.7l0.2-0.3
		c0.1-0.2,0.3-0.4,0.4-0.6c0.1,0.2,0.1,0.3,0.2,0.5L-895,526.6z"/>
</g>
</svg>
