<?xml version="1.0" encoding="utf-8"?>
<!-- Generator: Adobe Illustrator 19.0.0, SVG Export Plug-In . SVG Version: 6.00 Build 0)  -->
<svg version="1.1"
	 id="Layer_1" xmlns:dc="http://purl.org/dc/elements/1.1/" xmlns:cc="http://creativecommons.org/ns#" xmlns:rdf="http://www.w3.org/1999/02/22-rdf-syntax-ns#"
	 xmlns="http://www.w3.org/2000/svg" xmlns:xlink="http://www.w3.org/1999/xlink" x="0px" y="0px" viewBox="-909 478 40 40"
	 style="enable-background:new -909 478 40 40;" xml:space="preserve">
<g transform="translate(0,-952.36218)">
	<g transform="matrix(-1.0811548,0,0,1.0811548,104.05811,-81.351822)">
		<path d="M908.1,1398.4c-0.4,0-0.8,0.4-0.8,0.8v2.2c0,0.4,0.3,0.7,0.6,0.8v2c-1.3,1-2.4,2.7-3.1,4.5c-0.8,1.9-1.3,3.9-1.3,5.4v3.8
			c0,0,0,0,0,0.1v6.1c0,0,0,0,0,0v6.5c0,2.6,2,4.6,4.6,4.6h4.9c2.5,0,4.6-2.1,4.6-4.6v-6.4c0,0,0-0.1,0-0.1v-6.1c0,0,0,0,0,0v-3.8
			c0-1.5-0.5-3.5-1.3-5.4c-0.8-1.8-1.8-3.5-3.1-4.5v-2c0.4-0.1,0.6-0.4,0.6-0.8v-2.2c0-0.4-0.4-0.8-0.8-0.8L908.1,1398.4
			L908.1,1398.4z M924,1398.4c-0.4,0-0.8,0.4-0.8,0.8v2.2c0,0.4,0.3,0.7,0.6,0.8v2.1c-1.3,1.1-2.4,2.7-3.1,4.5
			c-0.8,1.9-1.3,3.8-1.3,5.4c0,0,0,0,0,0c0,0-0.1,0.7-0.1,1.5c0,0.9,0,1.9,0.1,2.6c0.2,0.8,0.6,1.5,1,2.2c0.4,0.7,0.7,1.2,0.7,1.9
			s-0.3,1.2-0.7,1.9c-0.4,0.7-0.8,1.3-1,2.2c-0.1,0.7-0.1,1.8-0.1,2.6c0,0.9,0.1,1.5,0.1,1.5c0,0,0,0,0,0c0,2.5,2,4.6,4.5,4.6h4.9
			c2.5,0,4.5-2.1,4.6-4.6c0,0,0,0,0,0c0,0,0.1-0.7,0.1-1.5c0-0.9,0-1.9-0.1-2.6c-0.2-0.8-0.6-1.5-1-2.2c-0.4-0.7-0.7-1.3-0.7-1.9
			c0-0.6,0.3-1.2,0.7-1.9c0.4-0.7,0.8-1.3,1-2.2c0-0.3,0-0.4,0-0.5c0,0,0,0,0-0.1c0.1-1.5,0-3.6,0-3.6c0,0,0,0,0,0
			c0-0.7-0.1-1.6-0.3-2.5c0,0,0,0,0,0c-0.6-2.7-2.1-5.8-4.1-7.4v-2.1c0.4-0.1,0.6-0.4,0.6-0.8v-2.2c0-0.4-0.4-0.8-0.8-0.8
			L924,1398.4L924,1398.4z M924,1399.1h4.9c0,0,0,0,0,0v2.2c0,0,0,0,0,0H924c0,0,0,0,0,0L924,1399.1
			C924,1399.1,924,1399.1,924,1399.1z M908.1,1399.1C908.1,1399.1,908.1,1399.1,908.1,1399.1h4.9c0,0,0,0,0,0v2.2c0,0,0,0,0,0h-4.9
			c0,0,0,0,0,0V1399.1z M924.6,1402.1h3.6v2.2c0,0.1,0.1,0.2,0.1,0.3c1.7,1.3,3.1,4.1,3.8,6.7h-6.7c0,0-0.1,0-0.1,0
			c-0.1,0-0.2,0.1-0.3,0.2c0,0,0,0,0,0c0,0,0,0.1,0,0.1v6c0,0.2,0.1,0.3,0.3,0.4c0,0,0,0,0,0c0,0,0,0,0.1,0h7.1
			c-0.1,0.6-0.5,1.2-0.9,1.9c-0.4,0.7-0.8,1.4-0.8,2.3c0,0.9,0.4,1.6,0.8,2.3c0.4,0.7,0.8,1.3,0.9,1.9c0.1,0.6,0.1,1.6,0.1,2.5
			c0,0.8-0.1,1.5-0.1,1.5c0,0,0,0,0,0c0,2.1-1.7,3.8-3.8,3.8H924c-2.1,0-3.8-1.7-3.8-3.8c0,0,0,0,0,0c0,0-0.1-0.7-0.1-1.5
			c0-0.8,0-1.9,0.1-2.5c0.1-0.6,0.5-1.3,0.9-1.9c0.4-0.7,0.8-1.4,0.8-2.3c0-0.9-0.4-1.6-0.8-2.3c-0.4-0.7-0.8-1.3-0.9-1.9
			c-0.1-0.6-0.1-1.6-0.1-2.5s0.1-1.5,0.1-1.5c0,0,0,0,0,0c0-1.4,0.5-3.3,1.2-5.1c0.8-1.8,1.8-3.4,3-4.3c0.1-0.1,0.2-0.2,0.1-0.3
			L924.6,1402.1L924.6,1402.1z M908.7,1402.1h3.6v2.2c0,0.1,0.1,0.2,0.2,0.3c1.2,0.9,2.3,2.6,3,4.3c0.8,1.8,1.2,3.7,1.2,5.1v3.5
			h-12.4v-3.5c0-1.4,0.4-3.3,1.2-5.1c0.8-1.8,1.8-3.4,3-4.3c0.1-0.1,0.2-0.2,0.2-0.3L908.7,1402.1L908.7,1402.1z M925.9,1412h6.5
			c0.2,0.7,0.3,1.4,0.3,2c0,0,0,0,0,0c0,0,0.1,1.9,0,3.2h-6.8L925.9,1412L925.9,1412z M904.3,1418.3h12.4v5.3h-12.4V1418.3z
			 M904.3,1424.4h12.4v6.1c0,2.1-1.7,3.8-3.8,3.8h-4.9c-2.1,0-3.8-1.7-3.8-3.8L904.3,1424.4L904.3,1424.4z"/>
	</g>
</g>
</svg>
