<?xml version="1.0" encoding="UTF-8"?>
<svg width="132px" height="49px" viewBox="0 0 132 49" version="1.1" xmlns="http://www.w3.org/2000/svg" xmlns:xlink="http://www.w3.org/1999/xlink">
    <!-- Generator: Sketch 57.1 (83088) - https://sketch.com -->
    <title>Group 2</title>
    <desc>Created with Sketch.</desc>
    <g id="Page-1" stroke="none" stroke-width="1" fill="none" fill-rule="evenodd">
        <g id="Artboard" transform="translate(-221.000000, -16.000000)">
            <g id="Group-2" transform="translate(221.000000, 16.000000)">
                <rect id="Rectangle" stroke="#D4D4D4" fill="#FFFFFF" x="0.5" y="0.5" width="131" height="48" rx="3"></rect>
                <g id="ssl-secure-logo" transform="translate(14.000000, 7.000000)">
                    <path d="M23.3215515,13.7968453 C24.5453084,13.9867783 24.8314605,14.7220028 24.8010188,15.7758246 C24.715782,18.7228494 24.910609,21.7005086 24.5757502,24.616899 C23.8695024,30.8172922 18.249962,35.375684 11.9241739,35.1551167 C5.61056241,34.9284225 0.392852656,29.9350228 0.0823471742,23.6978684 C-0.0576847096,20.8978885 0.0153754037,18.0856548 0.0519054603,15.2856749 C0.0579938031,14.8813014 0.344145913,14.2134725 0.636386367,14.1276963 C1.53137275,13.858114 1.43395927,13.2270463 1.4096059,12.5898518 C1.26957401,9.39162527 1.89058498,6.44460045 3.99715158,3.91420284 C6.88302605,0.446394007 11.6319334,-0.889263812 16.0033635,0.605692646 C20.2286734,2.05163414 23.2119614,6.12600317 23.3154632,10.6231263 C23.3398166,11.63406 23.3215515,12.6572474 23.3215515,13.7968453 Z M19.6563692,13.8397334 C19.6563692,12.767531 19.6746342,11.7933586 19.6502808,10.8130593 C19.528514,6.08924195 15.0109637,2.68882869 10.4995017,3.9632178 C6.43248869,5.1150695 4.44768894,8.75443071 5.29396859,13.8336065 C10.0063459,13.8397334 14.7369882,13.8397334 19.6563692,13.8397334 Z M18.018605,17.6812814 C15.7172114,19.8440667 13.507143,21.9088222 11.2788095,24.004212 C10.1159361,22.9197558 9.05656442,21.9394565 7.92413267,20.8856348 C7.05958799,21.6943817 6.25592675,22.4479868 5.37920539,23.2689875 C7.38227016,25.1560637 9.29400979,26.9634905 11.2788095,28.838313 C14.3899527,25.9035419 17.4341241,23.0300395 20.5452672,20.0952684 C19.6685459,19.2558871 18.889238,18.5084089 18.018605,17.6812814 Z" id="Shape" fill="#81B641" fill-rule="nonzero"></path>
                    <g id="Group" transform="translate(28.937008, 3.348837)" fill="#010101" fill-rule="nonzero">
                        <path d="M0.96752126,12.8620155 C1.88027717,13.3953488 3.2615811,13.8666667 4.69765039,13.8666667 C6.49882205,13.8666667 7.50285354,13.0046512 7.50285354,11.7209302 C7.50285354,10.5302326 6.71788346,9.82945736 4.76458583,9.11007752 C2.21495433,8.18604651 0.58416378,6.79069767 0.58416378,4.53953488 C0.58416378,1.95968992 2.70175748,0.0186046512 6.04852913,0.0186046512 C7.72191496,0.0186046512 8.94500787,0.384496124 9.74823307,0.79379845 L9.0727937,3.11317829 C8.51297008,2.81550388 7.43591811,2.36899225 5.98767874,2.36899225 C4.19867717,2.36899225 3.43804724,3.34263566 3.43804724,4.26666667 C3.43804724,5.47596899 4.33254803,6.04031008 6.39537638,6.84651163 C9.07887874,7.88837209 10.3689071,9.26511628 10.3689071,11.5224806 C10.3689071,14.0527132 8.49471496,16.248062 4.51509921,16.248062 C2.87822362,16.248062 1.18658268,15.7767442 0.340762205,15.2496124 L0.96752126,12.8620155 Z" id="Path"></path>
                        <polygon id="Path" points="21.5532094 9.01085271 15.7359118 9.01085271 15.7359118 13.6310078 22.2408189 13.6310078 22.2408189 15.9937984 12.9124535 15.9937984 12.9124535 0.254263566 21.9000567 0.254263566 21.9000567 2.61705426 15.7359118 2.61705426 15.7359118 6.66666667 21.5532094 6.66666667"></polygon>
                        <path d="M35.8043717,15.5286822 C35.1350173,15.8697674 33.6685228,16.2418605 31.7943307,16.2418605 C26.895874,16.2418605 23.9081197,13.103876 23.9081197,8.31007752 C23.9081197,3.1379845 27.4556976,0.00620155039 32.1776882,0.00620155039 C34.0336252,0.00620155039 35.3479937,0.390697674 35.9199874,0.700775194 L35.3053984,2.99534884 C34.5873638,2.66046512 33.5589921,2.38139535 32.2933039,2.38139535 C29.1473386,2.38139535 26.8776189,4.38449612 26.8776189,8.16744186 C26.8776189,11.6341085 28.8613417,13.8356589 32.2567937,13.8356589 C33.3946961,13.8356589 34.5873638,13.6062016 35.3358236,13.2651163 L35.8043717,15.5286822 Z" id="Path"></path>
                        <path d="M40.9949102,0.254263566 L40.9949102,9.43255814 C40.9949102,12.5085271 42.2484283,13.9410853 44.1591307,13.9410853 C46.1915339,13.9410853 47.4146268,12.5209302 47.4146268,9.43255814 L47.4146268,0.254263566 L50.238085,0.254263566 L50.238085,9.24651163 C50.238085,14.096124 47.7918992,16.2542636 44.0617701,16.2542636 C40.495937,16.2542636 38.177537,14.2139535 38.177537,9.26511628 L38.177537,0.254263566 L40.9949102,0.254263566 Z" id="Path"></path>
                        <path d="M53.4509858,0.471317829 C54.5219528,0.272868217 56.0918929,0.130232558 57.7287685,0.130232558 C59.9437228,0.130232558 61.4528126,0.508527132 62.4933543,1.40155039 C63.3452598,2.12093023 63.825978,3.2124031 63.825978,4.56434109 C63.825978,6.59224806 62.4750992,7.9751938 61.0146898,8.49612403 L61.0146898,8.56434109 C62.134337,8.99844961 62.7854362,10.0837209 63.1687937,11.6093023 C63.6616819,13.5813953 64.0815496,15.3860465 64.3918866,15.9937984 L61.4954079,15.9937984 C61.2580913,15.5410853 60.8869039,14.2387597 60.4548661,12.2790698 C60.0106583,10.2263566 59.2804535,9.5627907 57.6740031,9.5255814 L56.256189,9.5255814 L56.256189,15.9937984 L53.4570709,15.9937984 L53.4570709,0.471317829 L53.4509858,0.471317829 Z M56.2501039,7.41705426 L57.9174047,7.41705426 C59.8281071,7.41705426 61.0086047,6.3875969 61.0086047,4.8248062 C61.0086047,3.11317829 59.822022,2.30697674 58.0025953,2.30077519 C57.1080945,2.30077519 56.5361008,2.3751938 56.2501039,2.4496124 L56.2501039,7.41705426 L56.2501039,7.41705426 Z" id="Shape"></path>
                        <polygon id="Path" points="75.1319811 9.01085271 69.3085984 9.01085271 69.3085984 13.6310078 75.8195906 13.6310078 75.8195906 15.9937984 66.4912252 15.9937984 66.4912252 0.254263566 75.4788283 0.254263566 75.4788283 2.61705426 69.3085984 2.61705426 69.3085984 6.66666667 75.1319811 6.66666667"></polygon>
                    </g>
                    <g id="Group" transform="translate(28.937008, 24.279070)" fill="#BDBCC2" fill-rule="nonzero">
                        <path d="M0.496863094,5.87141324 C0.913982728,6.09745975 1.53966218,6.29452594 2.19601219,6.29452594 C3.01798324,6.29452594 3.47804166,5.92937388 3.47804166,5.38454383 C3.47804166,4.88028623 3.12226314,4.58468694 2.23281687,4.28329159 C1.06733553,3.89495528 0.32510795,3.30375671 0.32510795,2.35320215 C0.32510795,1.26354204 1.28816358,0.446296959 2.81555753,0.446296959 C3.57618745,0.446296959 4.13439167,0.596994633 4.5024384,0.77667263 L4.19573279,1.75620751 C3.93810008,1.6286941 3.45350521,1.43742397 2.79102108,1.43742397 C1.97518415,1.43742397 1.62553975,1.84894454 1.62553975,2.23728086 C1.62553975,2.74733453 2.03039116,2.98497317 2.97504445,3.32694097 C4.19573279,3.76744186 4.78460757,4.3470483 4.78460757,5.30339893 C4.78460757,6.37567084 3.93196596,7.30304114 2.11626873,7.30304114 C1.37404115,7.30304114 0.601143002,7.10017889 0.214693929,6.87992844 L0.496863094,5.87141324 Z" id="Path"></path>
                        <path d="M5.91941834,5.87141324 C6.33653797,6.09745975 6.96221742,6.29452594 7.61856744,6.29452594 C8.44053848,6.29452594 8.9005969,5.92937388 8.9005969,5.38454383 C8.9005969,4.88028623 8.54481839,4.58468694 7.65537211,4.28329159 C6.48989078,3.89495528 5.7476632,3.30375671 5.7476632,2.35320215 C5.7476632,1.26354204 6.71071882,0.446296959 8.23811278,0.446296959 C8.9987427,0.446296959 9.55694691,0.596994633 9.92499365,0.77667263 L9.61828804,1.75620751 C9.36065532,1.6286941 8.87606045,1.43742397 8.21357633,1.43742397 C7.3977394,1.43742397 7.048095,1.84894454 7.048095,2.23728086 C7.048095,2.74733453 7.45294641,2.98497317 8.3975997,3.32694097 C9.61828804,3.76744186 10.2071628,4.3470483 10.2071628,5.30339893 C10.2071628,6.37567084 9.35452121,7.30304114 7.53882398,7.30304114 C6.79659639,7.30304114 6.02369825,7.10017889 5.63724917,6.87992844 L5.91941834,5.87141324 Z" id="Path"></path>
                        <polygon id="Path" points="11.36651 0.550626118 12.6546736 0.550626118 12.6546736 6.18440072 15.5499746 6.18440072 15.5499746 7.20450805 11.36651 7.20450805"></polygon>
                        <polygon id="Path" points="22.6164719 4.24851521 19.9665354 4.24851521 19.9665354 6.20178891 22.9354458 6.20178891 22.9354458 7.19871199 18.684506 7.19871199 18.684506 0.550626118 22.782093 0.550626118 22.782093 1.54754919 19.9726695 1.54754919 19.9726695 3.25738819 22.622606 3.25738819 22.622606 4.24851521"></polygon>
                        <path d="M24.0579883,7.19871199 L24.0579883,0.550626118 L25.5301753,0.550626118 L27.3458725,3.4022898 C27.812065,4.13838998 28.2169164,4.90926655 28.5420244,5.6337746 L28.5665608,5.62797853 C28.4745491,4.74697674 28.4500127,3.88915921 28.4500127,2.86905188 L28.4500127,0.550626118 L29.6400305,0.550626118 L29.6400305,7.20450805 L28.3089281,7.20450805 L26.4748285,4.27749553 C26.0270384,3.54719141 25.5608458,2.7357424 25.2112014,1.98225403 L25.1805309,1.98805009 C25.2296038,2.85166369 25.2480061,3.73266547 25.2480061,4.82232558 L25.2480061,7.20450805 L24.0579883,7.20450805 L24.0579883,7.19871199 Z" id="Path"></path>
                        <path d="M36.17286,7.0016458 C35.8661544,7.14654741 35.1975362,7.30304114 34.3448946,7.30304114 C32.1120777,7.30304114 30.7503048,5.9757424 30.7503048,3.95291592 C30.7503048,1.76779964 32.3697104,0.446296959 34.5166497,0.446296959 C35.3631572,0.446296959 35.9643002,0.608586762 36.2219329,0.741896243 L35.9458979,1.709839 C35.6146558,1.57073345 35.1484633,1.4490161 34.5718567,1.4490161 C33.1364745,1.4490161 32.1059436,2.2952415 32.1059436,3.89495528 C32.1059436,5.36135957 33.0076581,6.28872987 34.5595885,6.28872987 C35.0809881,6.28872987 35.6207899,6.19019678 35.9643002,6.04529517 L36.17286,7.0016458 Z" id="Path"></path>
                        <path d="M37.2585979,0.637567084 C37.7493269,0.550626118 38.4608839,0.492665474 39.2092456,0.492665474 C40.21524,0.492665474 40.9083947,0.654955277 41.3807214,1.03169946 C41.7671704,1.33889088 41.9879985,1.79677996 41.9879985,2.36479428 C41.9879985,3.22261181 41.3745872,3.80801431 40.705969,4.02826476 L40.705969,4.05724508 C41.2151003,4.24271914 41.5156718,4.70060823 41.687427,5.34397138 C41.908255,6.17860465 42.1045466,6.93788909 42.2456312,7.19871199 L40.9267971,7.19871199 C40.816383,7.00744186 40.650762,6.45681574 40.4544704,5.62797853 C40.2520447,4.75856887 39.9208026,4.48035778 39.1908433,4.46296959 L38.5406274,4.46296959 L38.5406274,7.19871199 L37.264732,7.19871199 L37.264732,0.637567084 L37.2585979,0.637567084 Z M38.5344933,3.57617174 L39.2951232,3.57617174 C40.1661671,3.57617174 40.705969,3.14146691 40.705969,2.48071556 C40.705969,1.75620751 40.1661671,1.42003578 39.3319279,1.41423971 C38.9209423,1.41423971 38.6633096,1.44322004 38.5344933,1.47799642 L38.5344933,3.57617174 Z" id="Shape"></path>
                        <path d="M44.6440691,7.19871199 L44.6440691,4.4281932 L42.4173863,0.544830054 L43.8895733,0.544830054 L44.7299467,2.24887299 C44.969177,2.7357424 45.1532004,3.11828265 45.3433579,3.56457961 L45.3617602,3.56457961 C45.5335154,3.14146691 45.7359411,2.72994633 45.9690373,2.24307692 L46.8155448,0.539033989 L48.2631953,0.539033989 L45.9260986,4.38762075 L45.9260986,7.18711986 L44.6440691,7.18711986 L44.6440691,7.19871199 Z" id="Path"></path>
                        <path d="M48.9195453,0.63177102 C49.3857379,0.556422182 50.0236855,0.492665474 50.8885954,0.492665474 C51.8271146,0.492665474 52.5141351,0.678139535 52.9619253,1.03749553 C53.379045,1.36207513 53.6489459,1.88372093 53.6489459,2.50969589 C53.6489459,3.14146691 53.4403861,3.65731664 53.0478029,4.01667263 C52.5325375,4.50354204 51.7351029,4.73538462 50.8211201,4.73538462 C50.5818898,4.73538462 50.3671958,4.72379249 50.1893066,4.6890161 L50.1893066,7.19871199 L48.9134112,7.19871199 L48.9134112,0.63177102 L48.9195453,0.63177102 Z M50.1954407,3.73266547 C50.3610617,3.77323792 50.5634874,3.79062612 50.8272543,3.79062612 C51.7903099,3.79062612 52.3730505,3.33853309 52.3730505,2.5560644 C52.3730505,1.82576029 51.8271146,1.43162791 50.9376683,1.43162791 C50.5818898,1.43162791 50.3303912,1.46060823 50.1954407,1.48958855 L50.1954407,3.73266547 Z" id="Shape"></path>
                        <polygon id="Path" points="56.1087249 1.57073345 54.0967361 1.57073345 54.0967361 0.550626118 59.4211455 0.550626118 59.4211455 1.57073345 57.3907544 1.57073345 57.3907544 7.19871199 56.1025908 7.19871199 56.1025908 1.57073345"></polygon>
                        <polygon id="Path" points="61.5251461 0.550626118 61.5251461 7.20450805 60.2369825 7.20450805 60.2369825 0.550626118"></polygon>
                        <path d="M69.2479934,3.80801431 C69.2479934,6.03370304 67.8187452,7.30883721 65.8803658,7.30883721 C63.8929134,7.30883721 62.6354204,5.87141324 62.6354204,3.9239356 C62.6354204,1.88372093 64.0033274,0.440500894 65.9846457,0.440500894 C68.0395733,0.440500894 69.2479934,1.90690519 69.2479934,3.80801431 Z M63.9910592,3.90075134 C63.9910592,5.25703041 64.7148844,6.33509839 65.947841,6.33509839 C67.1869317,6.33509839 67.8923546,5.24543828 67.8923546,3.84858676 C67.8923546,2.59084079 67.2360046,1.40844365 65.947841,1.40844365 C64.6719456,1.41423971 63.9910592,2.53288014 63.9910592,3.90075134 Z" id="Shape"></path>
                        <path d="M70.3521336,7.19871199 L70.3521336,0.550626118 L71.8243205,0.550626118 L73.6400178,3.4022898 C74.1062103,4.13838998 74.5110617,4.90926655 74.8361697,5.6337746 L74.8607061,5.62797853 C74.7686944,4.74697674 74.744158,3.88915921 74.744158,2.86905188 L74.744158,0.550626118 L75.9341758,0.550626118 L75.9341758,7.20450805 L74.6030734,7.20450805 L72.7689738,4.27749553 C72.3211836,3.54719141 71.8549911,2.7357424 71.5053467,1.98225403 L71.4746761,1.98805009 C71.523749,2.85166369 71.5421514,3.73266547 71.5421514,4.82232558 L71.5421514,7.20450805 L70.3521336,7.20450805 L70.3521336,7.19871199 Z" id="Path"></path>
                    </g>
                    <path d="M11.5764627,24.5840532 C10.4353784,23.5255814 9.39585658,22.5687708 8.28464361,21.5401993 C7.43629823,22.3295681 6.64769548,23.0651163 5.78740157,23.8664452 C7.75293419,25.7083056 9.62885285,27.4724252 11.5764627,29.3023256 C14.6293112,26.4378738 17.6164428,23.6332226 20.6692913,20.7687708 C19.8089974,19.9554817 19.0442917,19.2259136 18.1899721,18.4186047 C15.9317006,20.523588 13.7690173,22.5388704 11.5764627,24.5840532 Z" id="Path"></path>
                    <path d="M23.7999369,11.1103635 C23.6904218,6.76180406 20.7152607,2.82203288 16.4928439,1.42385844 C12.1244069,-0.021711739 7.3787511,1.26389781 4.4948526,4.62307113 C2.38972837,7.06987639 1.76914261,9.91954547 1.90907862,13.0121177 C1.92733114,13.4683018 1.98817288,13.9185613 1.65354331,14.2266337 L5.7846975,14.2266337 C4.9389973,9.31524974 6.92852222,5.79019132 10.9866663,4.68231581 C15.5011235,3.45002648 20.0155806,6.73810619 20.1311799,11.305871 C20.1555166,12.2478614 20.1372641,13.1957762 20.1372641,14.2325581 L23.976378,14.2325581 C23.9155362,14.2207092 23.8607786,14.2029358 23.7999369,14.1910869 C23.8060211,13.0832114 23.8242736,12.0938252 23.7999369,11.1103635 Z" id="Path" fill="#D2D1D6" fill-rule="nonzero"></path>
                    <path d="M12.4015748,14.2325581 C14.7979297,14.2325581 17.2184902,14.2325581 19.6874619,14.2325581 L23.5058962,14.2325581 C24.5648914,14.461237 24.831153,15.1593093 24.800896,16.1342035 C24.7161764,19.0287965 24.9098213,21.9534789 24.5769942,24.8179826 C23.8931858,30.7816868 18.5255929,35.186764 12.4015748,35.1627907" id="Path" stroke="#81B641" stroke-linecap="round" stroke-linejoin="round"></path>
                    <path d="M12.4015748,23.6992304 C14.287839,21.9612263 16.1741032,20.2232222 18.127734,18.4186047 C19.0034996,19.2361327 19.7874016,19.9749359 20.6692913,20.7985197 C17.8888889,23.3722192 15.1636045,25.9035283 12.4015748,28.4651163" id="Path" stroke="#81B641" stroke-linecap="round" stroke-linejoin="round"></path>
                    <path d="M12.4015748,14.2325581 C10.0252054,14.2325581 7.67333458,14.2325581 5.3214638,14.2325581 L1.16281729,14.2325581 C1.04644868,14.3468889 0.881082768,14.4431674 0.642220892,14.5093589 C0.348237044,14.5936027 0.0603778598,15.2495002 0.0542531963,15.6466492 C0.0113805518,18.4026224 -0.0559907466,21.164613 0.0848765138,23.9085514 C0.397234352,30.0342736 5.65219563,34.9384617 11.997347,35.1611058 C12.1320896,35.1671232 12.2668322,35.1550884 12.4015748,35.1550884" id="Path" stroke="#81B641" stroke-linecap="round" stroke-linejoin="round"></path>
                    <path d="M12.4015748,23.7933852 C12.071156,24.1010499 11.7349403,24.4145197 11.4045215,24.7221844 C10.2973286,23.6947003 9.28868171,22.765901 8.21047292,21.7674419 C7.38732428,22.5337012 6.62214386,23.2477156 5.78740157,24.025585 C7.69455582,25.8135235 9.51475774,27.5259971 11.4045215,29.3023256 C11.7407372,28.9888558 12.071156,28.6753861 12.4015748,28.3677214" id="Path" stroke="#81B641" stroke-linecap="round" stroke-linejoin="round"></path>
                    <path d="M12.8149606,14.2325581 L12.8149606,23.4418605" id="Path" stroke="#81B641" stroke-linecap="round" stroke-linejoin="round"></path>
                    <path d="M12.8149606,36 L12.8149606,28.4651163" id="Path" stroke="#81B641" stroke-linecap="round" stroke-linejoin="round"></path>
                    <path d="M24.8008816,16.1347593 C24.8313318,15.1595802 24.5633704,14.4613039 23.4976146,14.2325581 L19.6548039,14.2325581 C17.1944306,14.2325581 14.7827776,14.2325581 12.4015748,14.2325581 L12.4015748,23.183739 C14.2529448,21.4741658 16.1043148,19.7706122 18.0226751,18.0068624 C18.8935498,18.8195116 19.673074,19.5539057 20.5500387,20.3725746 C17.809524,22.9128559 15.1238195,25.4049802 12.4015748,27.9211831 L12.4015748,35.1627907 C18.5342379,35.1507514 23.8934668,30.7564259 24.5816405,24.8150571 C24.9105022,21.9497161 24.7156212,19.0301984 24.8008816,16.1347593 Z" id="Path" fill="#72A341" fill-rule="nonzero"></path>
                </g>
            </g>
        </g>
    </g>
</svg>