<?xml version="1.0" encoding="utf-8"?>
<!-- Generator: Adobe Illustrator 19.0.0, SVG Export Plug-In . SVG Version: 6.00 Build 0)  -->
<svg version="1.1" id="Layer_1" xmlns="http://www.w3.org/2000/svg" xmlns:xlink="http://www.w3.org/1999/xlink" x="0px" y="0px"
	 viewBox="-927 501 40 40" style="enable-background:new -927 501 40 40;" xml:space="preserve">
<g>
	<path d="M-906,517.1c0.4,0,0.6-0.3,0.6-0.7v-2.6c0-0.4-0.3-0.7-0.6-0.7h-0.7v-1.9c0-0.4-0.3-0.7-0.7-0.7h-16.3
		c-0.4,0-0.7,0.3-0.7,0.7v1.9h-0.6c-0.4,0-0.7,0.3-0.7,0.7v2.6c0,0.4,0.3,0.7,0.7,0.7h1.3v1.8l-1.2,1.8c-0.1,0.1-0.1,0.2-0.1,0.4
		v16.3c0,1.8,1.5,3.2,3.2,3.2h12.4c1.8,0,3.2-1.5,3.3-3.2V521c0-0.1,0-0.3-0.1-0.4l-1.2-1.8v-1.8H-906z M-924.3,514.5h5.8v-1.3h-4.5
		v-1.3h15v1.3h-2.6v1.3h3.9v1.3h-17.6V514.5z M-922.6,519.7h14.3l1,1.5V532c-1.2-0.1-2.3-0.4-3.4-0.9c-0.3-0.1-0.6-0.3-0.9-0.4
		c-0.6-0.2-1.1-0.4-1.5-0.6c-1-0.5-4.1-0.8-5.3-0.8c-1.8,0.1-3.5,0.5-5.2,1.1v-9.3L-922.6,519.7z M-909.3,539.2h-12.4
		c-1.1,0-1.9-0.9-1.9-1.9v-5.4c1.1-0.3,3.7-1.1,5.2-1.1c1,0,3.9,0.2,4.8,0.7c0.4,0.2,0.9,0.4,1.6,0.6c0.3,0.1,0.6,0.2,0.9,0.3
		c1.2,0.6,2.6,0.9,3.9,1v3.9C-907.3,538.3-908.2,539.2-909.3,539.2z M-908.6,518.4h-13.7v-1.3h13.7V518.4z"/>
	<rect x="-915.1" y="513.2" width="1.3" height="1.3"/>
	<path d="M-900.7,534.9l-3.9,4.5c-0.2,0.3-0.2,0.7,0.1,0.9c0.1,0.1,0.3,0.2,0.4,0.2h15.6c0.4,0,0.7-0.3,0.7-0.6
		c0-0.2-0.1-0.3-0.2-0.4l-3.9-4.5c-2.1-2.5-5.8-2.7-8.2-0.6C-900.3,534.5-900.5,534.7-900.7,534.9L-900.7,534.9z M-896.3,534.2
		c1.3,0,2.6,0.6,3.5,1.6l2.9,3.4h-12.8l2.9-3.4C-898.8,534.8-897.6,534.2-896.3,534.2z"/>
	<rect x="-898.9" y="536.6" width="1.3" height="1.3"/>
	<rect x="-896.3" y="535.3" width="1.3" height="1.3"/>
	<rect x="-896.3" y="523" width="1.3" height="1.3"/>
	<rect x="-898.9" y="519" width="1.3" height="1.3"/>
	<rect x="-895.6" y="514.5" width="1.3" height="1.3"/>
	<rect x="-899.5" y="511.9" width="1.3" height="1.3"/>
	<rect x="-893.7" y="529.5" width="1.3" height="1.3"/>
	<rect x="-900.2" y="524.9" width="1.3" height="1.3"/>
	<rect x="-900.2" y="530.1" width="1.3" height="1.3"/>
	<path d="M-896.3,501.5c-2.3,0-4.3,1-5.3,2.6h-24c-0.4,0-0.7,0.3-0.7,0.6v2.6c0,0.4,0.3,0.6,0.7,0.6h24c1,1.6,3,2.6,5.3,2.6
		c3.2,0,5.9-2,5.9-4.5C-890.4,503.5-893,501.5-896.3,501.5z M-896.3,509.3c-1.9,0-3.7-0.9-4.3-2.2c-0.1-0.2-0.3-0.4-0.6-0.4h-23.8
		v-1.3h23.8c0.3,0,0.5-0.1,0.6-0.4c0.6-1.3,2.4-2.2,4.3-2.2c2.5,0,4.5,1.5,4.5,3.3S-893.7,509.3-896.3,509.3z"/>
	<path d="M-899.4,505.8l1.2,0.6c0.5-0.7,1.2-1,2-0.9v-1.3C-897.5,504-898.8,504.7-899.4,505.8z"/>
	<rect x="-921.7" y="532.7" width="1.3" height="1.3"/>
	<rect x="-917" y="534" width="1.3" height="1.3"/>
	<rect x="-910.5" y="535.9" width="1.3" height="1.3"/>
	<rect x="-913.2" y="536.6" width="1.3" height="1.3"/>
</g>
</svg>
