<?xml version="1.0" encoding="utf-8"?>
<!-- Generator: Adobe Illustrator 19.0.0, SVG Export Plug-In . SVG Version: 6.00 Build 0)  -->
<svg version="1.1" id="Layer_1" xmlns="http://www.w3.org/2000/svg" xmlns:xlink="http://www.w3.org/1999/xlink" x="0px" y="0px"
	 viewBox="-929 503 40 40" style="enable-background:new -929 503 40 40;" xml:space="preserve">
<g>
	<path d="M-894.4,528.7h-3.9c0.1-0.8,0.2-1.5,0.2-2.4c0-0.4-0.3-0.6-0.6-0.6h-25c-0.4,0-0.6,0.3-0.6,0.6c0,5,2.2,9.7,5.7,12.4h-4.5
		c-0.3,0-0.6,0.2-0.6,0.5c-0.1,0.3,0.1,0.6,0.3,0.7l4.8,2.6c0.1,0.1,0.2,0.1,0.3,0.1h14.1c0.1,0,0.2,0,0.3-0.1l4.8-2.6
		c0.3-0.1,0.4-0.4,0.3-0.7c-0.1-0.3-0.3-0.5-0.6-0.5h-4.5c0.6-0.4,1.1-1,1.7-1.6c4.3-0.3,7.8-3.5,8.4-7.8c0-0.2,0-0.4-0.1-0.5
		S-894.2,528.7-894.4,528.7z M-904.3,541.4H-918l-2.4-1.3h4h10.5h4L-904.3,541.4z M-906.1,538.8h-10.2c-3.9-2.2-6.6-6.8-6.8-11.8
		h23.6C-899.6,532-902.1,536.6-906.1,538.8z M-901,535.8c1.2-1.7,2-3.7,2.5-5.8h3.3C-895.8,532.8-898.1,535.1-901,535.8z"/>
	<path d="M-914.2,514.6c0-0.4-0.3-0.6-0.6-0.6c-0.4,0-0.6,0.3-0.6,0.6c0,0.4-0.1,0.6-0.4,0.9c-0.4,0.4-0.8,0.8-0.8,1.8
		c0,1,0.5,1.4,0.8,1.8c0.3,0.3,0.4,0.5,0.4,0.9s-0.1,0.6-0.4,0.9c-0.4,0.4-0.8,0.8-0.8,1.8c0,0.4,0.3,0.6,0.6,0.6
		c0.4,0,0.6-0.3,0.6-0.6c0-0.4,0.1-0.6,0.4-0.9c0.4-0.4,0.8-0.8,0.8-1.8s-0.5-1.4-0.8-1.8c-0.3-0.3-0.4-0.5-0.4-0.9
		c0-0.4,0.1-0.6,0.4-0.9C-914.7,516-914.2,515.6-914.2,514.6z"/>
	<path d="M-909.9,514.6c0-0.4-0.3-0.6-0.6-0.6c-0.4,0-0.6,0.3-0.6,0.6c0,0.4-0.1,0.6-0.4,0.9c-0.4,0.4-0.8,0.8-0.8,1.8
		c0,1,0.5,1.4,0.8,1.8c0.3,0.3,0.4,0.5,0.4,0.9s-0.1,0.6-0.4,0.9c-0.4,0.4-0.8,0.8-0.8,1.8c0,0.4,0.3,0.6,0.6,0.6
		c0.4,0,0.6-0.3,0.6-0.6c0-0.4,0.1-0.6,0.4-0.9c0.4-0.4,0.8-0.8,0.8-1.8s-0.5-1.4-0.8-1.8c-0.3-0.3-0.4-0.5-0.4-0.9
		c0-0.4,0.1-0.6,0.4-0.9C-910.3,516-909.9,515.6-909.9,514.6z"/>
	<path d="M-905.6,514.6c0-0.4-0.3-0.6-0.6-0.6c-0.4,0-0.6,0.3-0.6,0.6c0,0.4-0.1,0.6-0.4,0.9c-0.4,0.4-0.8,0.8-0.8,1.8
		c0,1,0.5,1.4,0.8,1.8c0.3,0.3,0.4,0.5,0.4,0.9s-0.1,0.6-0.4,0.9c-0.4,0.4-0.8,0.8-0.8,1.8c0,0.4,0.3,0.6,0.6,0.6
		c0.4,0,0.6-0.3,0.6-0.6c0-0.4,0.1-0.6,0.4-0.9c0.4-0.4,0.8-0.8,0.8-1.8s-0.5-1.4-0.8-1.8c-0.3-0.3-0.4-0.5-0.4-0.9
		c0-0.4,0.1-0.6,0.4-0.9C-906.1,516-905.6,515.6-905.6,514.6z"/>
</g>
<g>
	<path d="M-898.9,505.2L-898.9,505.2c0.8-0.5,1.7-0.8,2.4-0.8c0.8,0,1.4,0.2,1.8,0.8c0.3,0.5,0.3,1.2-0.1,1.9
		c-0.4,0.6-1,1.3-1.8,1.8l0,0c-0.8,0.5-1.7,0.8-2.4,0.8c-0.8,0-1.4-0.2-1.8-0.8c-0.3-0.5-0.3-1.2,0.1-1.9
		C-900.3,506.3-899.7,505.7-898.9,505.2L-898.9,505.2z M-896.4,505c-0.6,0-1.4,0.2-2.1,0.7l0,0c-0.7,0.4-1.3,1-1.6,1.6
		c-0.3,0.5-0.3,1-0.1,1.4c0.2,0.4,0.7,0.5,1.3,0.5c0.6,0,1.4-0.2,2.1-0.7l0,0c0.7-0.4,1.3-1,1.6-1.6c0.3-0.5,0.3-1,0.1-1.4
		C-895.4,505.2-895.9,505-896.4,505z"/>
	<path d="M-900.8,508.6c1.1-1.1,2.2-1.5,3.2-1.8c0.9-0.3,1.8-0.6,2.4-1.5l0.5,0.3c-0.7,1.1-1.7,1.4-2.7,1.8
		c-0.9,0.3-1.9,0.6-2.9,1.7L-900.8,508.6L-900.8,508.6z"/>
	<path d="M-893.3,515.3c0.3,1.7-0.9,2.6-2.5,2.1c-1.5-0.5-2.9-2.2-3.2-3.8c-0.3-1.7,0.9-2.6,2.5-2.1
		C-895,512-893.6,513.7-893.3,515.3L-893.3,515.3z M-893.9,515.4c-0.2-1.4-1.5-2.9-2.8-3.3c-0.4-0.1-1-0.2-1.4,0.1
		c-0.3,0.3-0.4,0.8-0.3,1.3c0.2,1.4,1.5,2.9,2.8,3.3C-894.4,517.2-893.7,516.6-893.9,515.4L-893.9,515.4z"/>
	<path d="M-898,511.6c1.3,0.9,1.8,1.9,2.3,2.9c0.4,0.9,0.8,1.7,1.9,2.1l-0.2,0.5c-1.2-0.6-1.7-1.4-2.2-2.4c-0.4-0.9-0.9-1.8-2.1-2.6
		L-898,511.6L-898,511.6z"/>
	<g>
		<path d="M-893.1,508.7c0.8,0,1.4,0.2,2,0.5c0.6,0.3,0.9,0.8,0.9,1.3v0l0,0l0,0c0,0.5-0.3,1-0.9,1.3c-0.5,0.3-1.2,0.5-1.9,0.5h0
			l0,0l0,0c-0.8,0-1.4-0.2-1.9-0.5c-0.6-0.3-0.9-0.8-0.9-1.3c0-0.5,0.3-1,0.9-1.3C-894.6,508.9-893.9,508.7-893.1,508.7
			L-893.1,508.7z M-891.5,509.7c-0.4-0.2-1-0.4-1.7-0.4s-1.2,0.2-1.6,0.4c-0.4,0.2-0.6,0.5-0.6,0.8c0,0.3,0.2,0.6,0.6,0.8
			c0.4,0.2,1,0.4,1.7,0.4h0l0,0l0,0c0.6,0,1.2-0.2,1.6-0.4c0.4-0.2,0.6-0.5,0.6-0.8v0l0,0l0,0C-890.9,510.2-891.1,509.9-891.5,509.7
			L-891.5,509.7z"/>
		<path d="M-895.8,510.5c1.2-0.4,2-0.3,2.8-0.2c0.7,0.1,1.4,0.2,2.2-0.3l0.3,0.5c-0.9,0.6-1.7,0.5-2.5,0.3c-0.7-0.1-1.5-0.2-2.6,0.2
			L-895.8,510.5L-895.8,510.5z"/>
	</g>
	<g>
		<path d="M-901.6,509.5c0.8,0,1.4,0.2,2,0.5c0.6,0.3,0.9,0.8,0.9,1.3v0l0,0l0,0c0,0.5-0.3,1-0.9,1.3c-0.5,0.3-1.2,0.5-1.9,0.5h0
			l0,0l0,0c-0.8,0-1.4-0.2-1.9-0.5c-0.6-0.3-0.9-0.8-0.9-1.3s0.3-1,0.9-1.3C-903,509.7-902.3,509.5-901.6,509.5L-901.6,509.5z
			 M-899.9,510.5c-0.4-0.2-1-0.4-1.7-0.4c-0.6,0-1.2,0.2-1.6,0.4c-0.4,0.2-0.6,0.5-0.6,0.8c0,0.3,0.2,0.6,0.6,0.8
			c0.4,0.2,1,0.4,1.7,0.4h0l0,0l0,0c0.6,0,1.2-0.2,1.6-0.4c0.4-0.2,0.6-0.5,0.6-0.8v0l0,0l0,0C-899.3,510.9-899.5,510.7-899.9,510.5
			L-899.9,510.5z"/>
		<path d="M-904.2,511.2c1.2-0.4,2-0.3,2.8-0.2c0.7,0.1,1.4,0.2,2.2-0.3l0.3,0.5c-0.9,0.6-1.7,0.5-2.5,0.3c-0.7-0.1-1.5-0.2-2.6,0.2
			L-904.2,511.2L-904.2,511.2z"/>
	</g>
</g>
<g>
	<path d="M-925.2,513.2c1-0.3,1.9-1,2.3-1.9c0.5-0.9,0.6-2,0.2-2.9c-0.7-1.9-2.1-3.1-3.4-4.2l-0.3-0.2l-0.1,0.4
		c-0.1,0.4-0.2,1-0.3,1.3c-0.2,0.8-0.7,1.5-1.1,2.1c-0.6,0.8-0.8,1.8-0.6,2.7c0.1,0.6,0.5,1.2,1,1.8c0.2,0.2,0.5,0.5,0.8,0.7
		c0.1,0.1,0.3,0,0.3-0.1c0.1-0.1,0-0.3-0.1-0.3c-0.9-0.6-1.5-1.3-1.6-2.1c-0.2-0.8,0-1.6,0.5-2.4c0.4-0.6,0.9-1.4,1.2-2.3
		c0.1-0.2,0.2-0.6,0.2-0.9c1.4,1.1,2.4,2.2,2.9,3.7c0.3,0.8,0.2,1.7-0.2,2.5c-0.4,0.7-1,1.3-1.8,1.5c0.2-0.8,0.4-1.7,0.4-2.7
		c0,0,0,0,0.1-0.1l0.6-1.1c0.1-0.1,0-0.3-0.1-0.3c-0.1-0.1-0.3,0-0.3,0.1l-0.3,0.6c-0.1-0.7-0.2-1.3-0.4-2c0-0.1-0.2-0.2-0.3-0.1
		c-0.1,0-0.2,0.2-0.1,0.3c0.4,1.1,0.5,2.2,0.4,3.1c-0.5-0.8-1.3-1.3-1.3-1.3c-0.1-0.1-0.3,0-0.3,0.1s0,0.3,0.1,0.3
		c0,0,1,0.6,1.4,1.7c0,0,0,0,0,0.1c-0.3,2-1.1,3.4-1.3,3.6c-0.1,0.1,0,0.2,0,0.3c0,0,0,0,0,0c0.1,0.1,0.3,0,0.3-0.1
		C-926,514.9-925.6,514.2-925.2,513.2C-925.2,513.2-925.2,513.2-925.2,513.2z"/>
	<path d="M-917.3,513.4c0.2-0.1,0.6-0.2,0.9-0.2l0.4-0.1l-0.2-0.3c-0.7-0.9-1.6-1.9-2.9-2.3c-0.6-0.2-1.4-0.2-2,0.2
		c-0.6,0.3-1.1,0.9-1.3,1.5c-0.4,0.1-0.7,0.2-1.1,0.4c-0.1,0.1-0.2,0.2-0.1,0.3c0,0,0,0,0,0.1c0.1,0.1,0.2,0.1,0.3,0
		c1.3-0.6,2.7-0.8,4-0.6c0.1,0,0.3-0.1,0.3-0.2c0-0.1-0.1-0.3-0.2-0.3c-0.9-0.1-1.8-0.1-2.7,0.1c0.2-0.5,0.6-0.8,0.9-0.9
		c0.5-0.3,1.1-0.3,1.7-0.1c0.9,0.3,1.7,1,2.4,1.9c-0.2,0-0.4,0.1-0.5,0.1c-0.6,0.2-1.1,0.5-1.6,0.8c-0.8,0.5-2.2,0.4-3-0.6
		c-0.1-0.1-0.2-0.1-0.3-0.1c-0.1,0.1-0.1,0.2-0.1,0.3c0.1,0.1,0.2,0.2,0.3,0.3c1,1,2.4,1,3.3,0.4
		C-918.4,513.8-917.9,513.5-917.3,513.4z"/>
</g>
</svg>
