<?xml version="1.0" encoding="utf-8"?>
<!-- Generator: Adobe Illustrator 19.0.0, SVG Export Plug-In . SVG Version: 6.00 Build 0)  -->
<svg version="1.1" id="Layer_1" xmlns="http://www.w3.org/2000/svg" xmlns:xlink="http://www.w3.org/1999/xlink" x="0px" y="0px"
	 viewBox="-703 221 40 40" style="enable-background:new -703 221 40 40;" xml:space="preserve">
<title>Fruits 3</title>
<path d="M-425,621.6c-4-9.5-6.9-19.4-8.6-29.6c-0.5-3.3-3.6-5.5-6.9-4.9c-3.3,0.5-5.5,3.6-4.9,6.9c0,0,0,0,0,0
	c1.9,11.1,5,21.9,9.4,32.3c1.7,3.9,3.5,7.7,5.5,11.3c1.6,2.9,5.2,4,8.1,2.4c2.9-1.6,4-5.2,2.4-8.1l0,0
	C-421.8,628.6-423.4,625.2-425,621.6z"/>
<path d="M-407.9,649.9c-2.1-2.5-5.9-2.9-8.5-0.7c-2.5,2.1-2.8,5.8-0.8,8.4c1.8,2.2,3.7,4.3,5.6,6.3c2.3,2.4,6.1,2.4,8.5,0.1
	c2.3-2.3,2.4-6,0.2-8.4C-404.6,653.7-406.3,651.8-407.9,649.9z"/>
<path d="M-594,671.5c-1.7-2.3-3.4-4.8-5-7.2c-1.8-2.8-5.6-3.5-8.3-1.7c-2.8,1.8-3.5,5.6-1.7,8.3c0,0,0,0.1,0.1,0.1
	c1.7,2.5,3.5,5,5.3,7.5c1.8,2.5,3.7,5,5.6,7.5c2,2.6,5.8,3.1,8.4,1.1c2.6-2,3.1-5.8,1.1-8.4C-590.4,676.4-592.2,673.9-594,671.5z"/>
<path d="M-621.7,623.9c-6.6-15.2-10.9-29.7-12.6-43.2c-0.4-3.3-3.4-5.6-6.7-5.2s-5.6,3.4-5.2,6.7c1.8,14.6,6.4,30.3,13.5,46.5
	c2.3,5.3,4.9,10.6,7.7,16c1.6,2.9,5.2,4,8.2,2.4c2.8-1.6,3.9-5.1,2.5-8C-617,634-619.5,628.9-621.7,623.9z"/>
<path d="M-668.9,245.9c0.9-1.1,1.7-2.4,2.4-3.9c2.4-5.3,3.6-8.5,2.6-10.4c0,0,0,0,0,0c0-0.4-0.1-0.8-0.3-1.3c-0.2-0.6-0.6-1-1.1-1.2
	c-0.4-0.2-0.8-0.2-1.2-0.2c0.1-0.2,0.2-0.5,0.4-0.6c1.3-1.6,2.2-1.3,2.2-1.3c0.2,0.1,0.4,0.1,0.6,0c0.2-0.1,0.3-0.3,0.2-0.5
	c-0.1-1.3-0.8-1.6-1.3-1.7c-2.2-0.3-3.2,1.4-4,3.2c-1.4-0.4-2.4,0.3-2.9,0.9c-0.3-0.1-0.7-0.1-1.1,0c-0.1,0-0.3,0.1-0.4,0.2
	c-0.4-0.5-0.8-0.9-1.3-1.3c0.2,0,0.4-0.1,0.4-0.1c0.2-0.1,0.4-0.3,0.4-0.6c0-0.3-0.2-0.5-0.5-0.5l-1.1-0.2c-3.7-1.7-6.5-1.6-7.7-1.4
	c0.1-2,1.1-2.4,1.2-2.4c0.2-0.1,0.4-0.3,0.4-0.5c0-0.2-0.1-0.4-0.3-0.5l-1.5-0.6c-0.2-0.1-0.4,0-0.5,0.1c-1.6,1.2-1.9,3-2,4
	c-3.3-0.7-7.1,0.6-7.3,0.7c0,0,0,0,0,0l-3.4,1.3c-0.2,0.1-0.3,0.2-0.3,0.4c0,0.2,0.1,0.4,0.2,0.5c0.2,0.1,0.4,0.3,2.7-0.4
	c0,0,0,0,0.1,0c-2.2,1.7-3.4,4.1-3.6,7.1c-0.9,0.2-1.6,0.7-2,1c-0.4-0.1-1.3-0.9-2.1-1.8c-0.2-0.2-0.4-0.2-0.6-0.2l-1.1,0.4
	c-0.1,0.1-0.3,0.2-0.3,0.3c0,0.1,0,0.3,0,0.4c0,0,0.5,0.9,1.3,1.8c0.5,0.5,0.5,1,0.5,1.2c-1.2,2.2,0,4.2,0.9,5.5
	c0.2,0.4,0.4,0.7,0.6,1c0.1,0.3,0.3,0.8,0.5,1.4c0.1,0.8,0.3,1.7,0.3,1.9c0,0.3,0.2,0.6,0.4,0.7c0,0,0.1,0,0.1,0
	c0.3,0,0.7-0.4,1-0.8c2.4,2.9,6.8,6.7,12.6,9.5c5.7,2.7,10.3,4,13.8,4c1.7,0,3.1-0.3,4.3-0.9c2.4-1.2,3.2-3.3,3.5-4.9
	C-662.5,252.2-664.6,248.1-668.9,245.9z M-664.8,225.9c0.1,0,0.2,0,0.3,0c0,0,0.1,0,0.1,0.1c-0.6,0.1-1.5,0.5-2.5,1.7
	c-0.1,0.1-0.2,0.2-0.3,0.3C-666.5,226.6-665.9,225.9-664.8,225.9z M-668.8,229c-0.2,0.4-0.3,0.5-0.4,0.7l-0.1,0.1
	c-0.2,0.2-0.1,0.6,0.1,0.8c0.2,0.2,0.6,0.1,0.8-0.1l0.1-0.1c0.2-0.3,0.4-0.6,0.8-1.5c0,0,0-0.1,0-0.1c-0.1,0.3-0.1,0.7,0,1.1
	c0,0.1,0.1,0.3,0.3,0.3c0.1,0.1,0.3,0.1,0.4,0c0,0,0.6-0.2,1.1,0c0.2,0.1,0.3,0.2,0.4,0.4c-0.2-0.1-0.5-0.1-0.8-0.1
	c-0.6,0.1-1.2,0.4-1.7,0.9c0,0,0,0,0,0c-0.5-0.4-1.2-0.5-1.8-0.5c0-0.1-0.2-0.8-0.6-1.3C-670.1,229.2-669.6,228.8-668.8,229z
	 M-671.3,230c0.3,0.2,0.5,0.6,0.6,0.8c0,0-0.1,0-0.1,0c-0.3,0.1-0.5,0.3-0.4,0.6c0.1,0.3,0.4,0.5,0.6,0.4c0.4-0.1,1.6-0.2,2.1,0.2
	c0,0,0.1,0.1,0.1,0.2c0,0,0,0,0,0c0,0.1,0.1,0.2,0.1,0.3c0,0.3,0.2,0.5,0.5,0.5h0c0.3,0,0.5-0.2,0.5-0.5c0-0.1,0-0.3,0-0.4
	c0.4-0.5,0.8-0.7,1.3-0.8c0.6-0.1,1,0.3,1,0.3c1,1.2,0.4,3.7-2.4,9.8c-2.7,5.8-7.7,8-7.8,8c-8.3,4-14.1,0.7-14.1,0.7
	c-0.3-0.2-0.5-0.4-0.7-0.5c-0.1,0-0.1-0.1-0.2-0.1c2.4,0.9,8.6,1.4,12.3-3.8c4-5.6,4.5-11.2,4.6-11.5c0.1-1.7,0.6-4.2,1.3-4.4
	C-671.7,229.9-671.5,229.9-671.3,230z M-684.8,226.3c0.2,0,0.4,0,0.5-0.1c0.1-0.1,0.2-0.3,0.2-0.5c0,0-0.2-2.2,1.4-3.6l0.3,0.1
	c-0.5,0.6-1.1,1.6-1,3.5c0,0.2,0.1,0.3,0.2,0.4c0.1,0.1,0.3,0.1,0.5,0.1c0,0,2.7-0.7,6.7,0.9c-1.5,0.2-3.3,0.4-4.5,0.2
	c-0.2-0.1-0.5,0.1-0.6,0.3c-0.1,0.2,0,0.5,0.2,0.7c0,0,2.3,1.8,2.9,3.6c0,0.1,0.1,0.2,0.1,0.3c-2.1-1.1-4.2-2.6-4.2-3.6
	c0-0.3-0.2-0.5-0.5-0.5c-0.3,0-0.5,0.2-0.6,0.5c0,0-0.2,1.8-1.7,3.6c0.2-0.9,0.3-2.2,0.4-3.7c0-0.2-0.1-0.4-0.3-0.5
	c-0.2-0.1-0.4-0.1-0.6,0.1l-4.9,4.2c0.5-1.4,1.4-3.3,2.9-4.2c0.2-0.1,0.3-0.3,0.3-0.5c0-0.2-0.2-0.4-0.4-0.5c-0.1,0-1.6-0.4-3.3-0.6
	C-689.3,226.1-686.8,225.7-684.8,226.3z M-691,227.5c0.8,0.1,1.5,0.2,2.1,0.3c-2.2,2.1-2.9,5.7-2.9,5.9c0,0.2,0.1,0.5,0.3,0.6
	c0.2,0.1,0.4,0.1,0.6-0.1l5.3-4.6c-0.2,2.6-0.7,4.1-0.7,4.2c-0.1,0.3,0,0.5,0.2,0.7c0.1,0,0.2,0.1,0.3,0.1c0.2,0,0.3-0.1,0.4-0.2
	c0.1-0.2,0.3-0.3,0.5-0.5c1.4-1.3,2.1-2.6,2.5-3.6c1.4,1.7,4.5,3.2,5.8,3.8c0.3,0.2,0.5,0.2,0.6,0.2c0.3,0,0.5-0.2,0.5-0.4
	c0.1-0.3-0.1-0.5-0.3-0.6c-0.1,0-0.2-0.1-0.3-0.1c-0.2-0.1-0.5-0.5-0.9-1.6c-0.4-1.1-1.3-2.2-2-3c1.2,0,2.5-0.2,3.6-0.4
	c0.8,0.5,1.5,1.1,2,1.8c-0.8,1.4-1,3.8-1,4.4c0,0.1-0.5,4.6-3.4,9.4c-4.7-1.5-9.1-4.6-11-6c0.2-0.3,0.4-0.5,0.5-0.8
	c0.1-0.2,0.1-0.5-0.1-0.7c-0.2-0.2-0.5-0.2-0.7,0c-1.3,1.1-2.3,0.5-3.5-0.4c-0.2-0.2-0.4-0.3-0.6-0.4c-1-0.6-1.8-0.8-2.6-0.8
	C-695.5,231.4-693.9,229-691,227.5z M-698.7,244c-0.2-0.4-0.4-0.7-0.7-1.1c-0.8-1.3-1.8-2.8-0.8-4.5c0-0.1,0.1-0.1,0.1-0.2
	c0-0.1,0.1-1.1-0.8-2.1c-0.4-0.4-0.6-0.8-0.8-1.1l0.1,0c0.5,0.6,1.3,1.3,2,1.7c0,0.2,0,0.3,0.2,0.4c0.1,0.1,0.2,0.1,0.4,0.1
	c0.1,0,0.3-0.1,0.4-0.2c0,0,0.1-0.2,0.4-0.3c0,0,0,0,0,0c0.8-0.7,2.5-1.6,4.6-0.3c0.2,0.1,0.3,0.2,0.5,0.4c0.6,0.5,1.4,1.1,2.4,1.2
	c-0.4,0.2-0.9,0.2-1.4-0.1c-0.2-0.1-0.4-0.1-0.6,0c-0.1,0-0.3,0.2-0.3,0.6c-0.1,0.4,0.1,0.8,0.4,1.3c0.4,0.6,0.9,2.4,0.9,4
	c-0.9-0.9-2.5-2.2-3.8-2.1c-0.6,0.1-1.8-0.1-2.5-0.8c-0.2-0.2-0.5-0.2-0.7,0c-0.2,0.2-0.3,0.5-0.1,0.7c0.5,0.8,1.2,2.2,1.2,3
	c0,0.2,0,0.4,0,0.7c0,0.3,0,0.6,0,0.7c0,0,0,0.1-0.1,0.1c0,0,0,0,0,0c-0.1,0.1-0.1,0.1-0.1,0.2c0-0.3-0.1-0.5-0.1-0.7
	C-698.3,244.9-698.5,244.3-698.7,244z M-664.2,255c-0.3,1.3-1,3.1-2.9,4.1c-3.3,1.7-9.3,0.6-17.2-3.1c-5.9-2.8-10.2-6.7-12.5-9.5
	c0.1-0.1,0.1-0.2,0.1-0.2c0.1-0.3,0.1-0.7,0-1.1c0-0.2,0-0.4,0-0.5c0.1-0.6-0.2-1.3-0.5-2c0.6,0.2,1.2,0.2,1.7,0.2
	c1-0.1,2.8,1.5,3.7,2.6c0.1,0.2,0.4,0.2,0.6,0.2c0.2-0.1,0.4-0.3,0.4-0.5c0-0.1,0-0.3,0-0.5c0.2-1.9-0.3-4.5-1-5.5c0,0,0,0,0,0
	c0.9,0.2,1.6-0.2,2.2-0.6c1.8,1.3,6.3,4.6,11.1,6.2c-0.1,0.2-0.2,0.4-0.4,0.6c-3.8,5.4-10.3,3.8-11.4,3.3c-0.3-0.1-0.7-0.1-0.9,0.1
	c-0.2,0.1-0.5,0.5-0.4,1.2c0.1,0.4,0.4,0.6,0.8,0.9c0.2,0.1,0.4,0.3,0.7,0.5c0.2,0.1,2.5,1.5,6.5,1.5c2.4,0,5.3-0.5,8.7-2.1
	c0.2-0.1,2.7-1.2,5.1-3.9C-665.6,248.6-663.7,252.4-664.2,255z"/>
</svg>
