<?xml version="1.0" encoding="utf-8"?>
<!-- Generator: Adobe Illustrator 19.0.0, SVG Export Plug-In . SVG Version: 6.00 Build 0)  -->
<svg version="1.1" id="Layer_1" xmlns="http://www.w3.org/2000/svg" xmlns:xlink="http://www.w3.org/1999/xlink" x="0px" y="0px"
	 viewBox="-931 503 40 40" style="enable-background:new -931 503 40 40;" xml:space="preserve">
<g>
	<path d="M-928.8,528.9L-928.8,528.9l1,14h11.2l1-14.6l0,0l0.4-5.3h-14L-928.8,528.9z M-917.9,541.6h-8.7l-0.8-11.8c0,0,0,0,0,0
		c0.1,0,0.2,0,0.2-0.1c0,0,0,0,0,0c0.1,0,0.2,0,0.3,0c0,0,0.1,0,0.1,0c0.1,0,0.2,0,0.3,0c0,0,0.1,0,0.1,0c0.1,0,0.3,0,0.4,0
		c1.4,0,2,0.3,2.7,0.6c0.8,0.3,1.6,0.7,3.3,0.7c0.2,0,0.4,0,0.5,0c0.1,0,0.1,0,0.2,0c0.1,0,0.2,0,0.3,0c0.1,0,0.1,0,0.2,0
		c0.1,0,0.2,0,0.3,0c0,0,0.1,0,0.1,0c0.1,0,0.2,0,0.3-0.1c0,0,0.1,0,0.1,0c0.1,0,0.2-0.1,0.3-0.1c0,0,0.1,0,0.1,0
		c0.1,0,0.1-0.1,0.2-0.1c0,0,0.1,0,0.1-0.1c0,0,0.1,0,0.1,0L-917.9,541.6z M-916.7,524.3l-0.3,4.6l-0.2,0.1
		c-0.7,0.3-1.4,0.6-2.7,0.6c-1.4,0-2-0.3-2.7-0.6c-0.8-0.3-1.6-0.7-3.3-0.7c-0.3,0-0.5,0-0.8,0c-0.1,0-0.1,0-0.2,0
		c-0.2,0-0.3,0-0.5,0.1c0,0-0.1,0-0.1,0l-0.3-4.1H-916.7z"/>
	<path d="M-927.5,510.8c-0.4,0.7-0.4,1.6,0,2.3c0.4,0.7,1.1,1.1,2,1.1c0.8,0,1.6-0.4,2-1.1c0.4-0.7,0.4-1.6,0-2.3l-2-3.4
		L-927.5,510.8z M-924.7,512.5c-0.2,0.3-0.5,0.5-0.8,0.5s-0.6-0.2-0.8-0.5c-0.2-0.3-0.2-0.7,0-0.9l0.8-1.4l0.8,1.4
		C-924.5,511.8-924.5,512.2-924.7,512.5z"/>
	<path d="M-920.9,516.3c-0.4,0.7-0.4,1.6,0,2.3c0.4,0.7,1.1,1.1,2,1.1s1.6-0.4,2-1.1c0.4-0.7,0.4-1.6,0-2.3l-2-3.4L-920.9,516.3z
		 M-918.2,517.9c-0.2,0.3-0.5,0.5-0.8,0.5s-0.6-0.2-0.8-0.5c-0.2-0.3-0.2-0.7,0-0.9l0.8-1.4l0.8,1.4
		C-918,517.2-918,517.6-918.2,517.9z"/>
	<path d="M-892.7,515c0-3.8-2.6-6.9-6.2-7.8c0.1-0.3,0.2-0.6,0.2-0.9v-1.3c0-1.1-0.9-2-2-2h-4c-1.1,0-2,0.9-2,2v1.3
		c0,0.3,0.1,0.6,0.2,0.9c-3.5,0.8-6.2,4-6.2,7.8c0,1.1,0.5,2,1.3,2.7c-0.8,0.6-1.3,1.6-1.3,2.7v3.3c0,1.1,0.5,2,1.3,2.7
		c-0.8,0.6-1.3,1.6-1.3,2.7v10.6c0,1.8,1.5,3.3,3.3,3.3h13.3c1.8,0,3.3-1.5,3.3-3.3V529c0-1.1-0.5-2-1.3-2.7
		c0.8-0.6,1.3-1.6,1.3-2.7v-3.3c0-1.1-0.5-2-1.3-2.7C-893.3,517.1-892.7,516.1-892.7,515z M-905.3,505.1c0-0.4,0.3-0.7,0.7-0.7h4
		c0.4,0,0.7,0.3,0.7,0.7v1.3c0,0.4-0.3,0.7-0.7,0.7h-4c-0.4,0-0.7-0.3-0.7-0.7V505.1z M-894.1,529v10.6c0,1.1-0.9,2-2,2h-13.3
		c-1.1,0-2-0.9-2-2V529c0-1.1,0.9-2,2-2h13.3C-895,527-894.1,527.9-894.1,529z M-894.1,520.3v3.3c0,1.1-0.9,2-2,2h-13.3
		c-1.1,0-2-0.9-2-2v-3.3c0-1.1,0.9-2,2-2h13.3C-895,518.4-894.1,519.2-894.1,520.3z M-896,517h-13.3c-1.1,0-2-0.9-2-2
		c0-3.7,3-6.6,6.6-6.6h4c3.7,0,6.6,3,6.6,6.6C-894.1,516.1-895,517-896,517z"/>
</g>
</svg>
